<?xml version="1.0" standalone="no"?>
<!DOCTYPE svg PUBLIC "-//W3C//DTD SVG 1.1//EN" "http://www.w3.org/Graphics/SVG/1.1/DTD/svg11.dtd" >
<svg xmlns="http://www.w3.org/2000/svg" xmlns:xlink="http://www.w3.org/1999/xlink" version="1.1">
<metadata>
Created by FontForge 20170731 at Tue Nov 17 03:13:50 2020
 By Aleksey,,,
Copyright (c) 2010 Linotype GmbH, www.linotype.com. All rights reserved. This font software may not be reproduced, modified, disclosed or transferred without the express written approval of Linotype GmbH.
</metadata>
<defs>
<font id="DINNextCYR-Bold" horiz-adv-x="1138" >
  <font-face 
    font-family="DIN Next CYR"
    font-weight="700"
    font-stretch="normal"
    units-per-em="2048"
    panose-1="2 11 8 3 2 2 3 5 2 3"
    ascent="1536"
    descent="-512"
    x-height="991"
    cap-height="1393"
    bbox="-345.125 -487 2204 1894"
    underline-thickness="102"
    underline-position="-307"
    unicode-range="U+000D-FB04"
  />
<missing-glyph horiz-adv-x="1036" 
d="M0 20v1352q0 21 20 21h996q20 0 20 -21v-1352q0 -20 -20 -20h-996q-20 0 -20 20zM141 145q0 -12 13 -12h729q12 0 12 12v1102q0 13 -12 13h-729q-13 0 -13 -13v-1102zM428 498q-20 0 -20 20v49q0 61 38 111l95 123q47 61 47 106q0 37 -23 61.5t-61 24.5q-78 0 -98 -80
q-3 -21 -23 -18l-133 20q-9 0 -14 7t-3 16q19 99 91 157t188 58q115 0 187.5 -69t72.5 -171q0 -94 -65 -168l-93 -122q-26 -37 -26 -78v-27q0 -20 -21 -20h-139zM406 254v137q0 21 20 21h145q9 0 15 -6t6 -15v-137q0 -9 -6 -15t-15 -6h-145q-20 0 -20 21z" />
    <glyph glyph-name="IJ" unicode="IJ" horiz-adv-x="1634" 
d="M133 20v1352q0 9 6 15t15 6h260q20 0 20 -21v-1352q0 -20 -20 -20h-260q-21 0 -21 20zM610 156q-10 16 2 28l191 146q14 10 28 -4q30 -35 74.5 -58.5t95.5 -23.5q99 0 152 61.5t53 179.5v887q0 9 6 15t15 6h260q20 0 20 -21v-872q0 -254 -133.5 -388.5t-374.5 -134.5
q-125 0 -231.5 50.5t-157.5 128.5z" />
    <glyph glyph-name="ij" unicode="ij" horiz-adv-x="1089" 
d="M395 1149h-245q-21 0 -21 20v203q0 9 6 15t15 6h245q9 0 15 -6t6 -15v-203q0 -20 -21 -20zM395 0h-245q-21 0 -21 20v951q0 20 21 20h245q21 0 21 -20v-951q0 -20 -21 -20zM940 1149h-246q-20 0 -20 20v203q0 21 20 21h246q9 0 15 -6t6 -15v-203q0 -20 -21 -20zM590 -369
h-68q-20 0 -20 21v201q0 20 20 20h41q61 0 86 24.5t25 90.5v983q0 20 20 20h246q21 0 21 -20v-981q0 -185 -93.5 -272t-277.5 -87z" />
    <glyph glyph-name="napostrophe" unicode="&#x22;n" horiz-adv-x="1132" 
d="M-39 999q-10 0 -16 7t-6 16v350q0 21 20 21h197q20 0 20 -21v-172q0 -27 -16 -41l-168 -145q-15 -15 -31 -15zM991 0h-246q-20 0 -20 20v570q0 84 -39.5 132t-114.5 48q-73 0 -114 -48.5t-41 -131.5v-570q0 -20 -21 -20h-245q-21 0 -21 20v951q0 20 21 20h245
q21 0 21 -20v-70h2q37 50 102 81.5t154 31.5q161 0 249.5 -101t88.5 -268v-625q0 -20 -21 -20z" />
    <glyph glyph-name="f_f" unicode="ff" horiz-adv-x="1388" 
d="M430 0h-244q-20 0 -20 20v748q0 12 -12 12h-62q-20 0 -20 21v170q0 20 20 20h62q12 0 12 13v47q0 180 84.5 261t263.5 81h113q20 0 20 -21v-192q0 -21 -20 -21h-64q-67 0 -89.5 -21.5t-22.5 -84.5v-49q0 -13 12 -13h162q20 0 20 -20v-170q0 -21 -20 -21h-162
q-12 0 -12 -12v-748q0 -20 -21 -20zM1124 0h-243q-21 0 -21 20v748q0 12 -12 12h-62q-20 0 -20 21v170q0 20 20 20h62q12 0 12 13v47q0 180 84.5 261t263.5 81h113q20 0 20 -21v-192q0 -21 -20 -21h-64q-67 0 -89.5 -21.5t-22.5 -84.5v-49q0 -13 12 -13h162q20 0 20 -20
v-170q0 -21 -20 -21h-162q-12 0 -12 -12v-748q0 -20 -21 -20z" />
    <glyph glyph-name="fi" unicode="fi" horiz-adv-x="1239" 
d="M430 0h-244q-20 0 -20 20v748q0 12 -12 12h-62q-20 0 -20 21v170q0 20 20 20h62q12 0 12 13v47q0 180 84.5 261t263.5 81h113q20 0 20 -21v-192q0 -21 -20 -21h-64q-67 0 -89.5 -21.5t-22.5 -84.5v-49q0 -13 12 -13h162q20 0 20 -20v-170q0 -21 -20 -21h-162
q-12 0 -12 -12v-748q0 -20 -21 -20zM1090 1149h-246q-21 0 -21 20v203q0 9 6 15t15 6h246q20 0 20 -21v-203q0 -20 -20 -20zM1090 0h-246q-21 0 -21 20v951q0 20 21 20h246q20 0 20 -20v-951q0 -20 -20 -20z" />
    <glyph glyph-name="fl" unicode="fl" horiz-adv-x="1316" 
d="M430 0h-244q-20 0 -20 20v748q0 12 -12 12h-62q-20 0 -20 21v170q0 20 20 20h62q12 0 12 13v47q0 180 84.5 261t263.5 81h113q20 0 20 -21v-192q0 -21 -20 -21h-64q-67 0 -89.5 -21.5t-22.5 -84.5v-49q0 -13 12 -13h162q20 0 20 -20v-170q0 -21 -20 -21h-162
q-12 0 -12 -12v-748q0 -20 -21 -20zM1235 -12h-109q-163 0 -235 75t-72 240v1069q0 9 6 15t15 6h245q9 0 15 -6t6 -15v-1046q0 -50 20.5 -72.5t65.5 -22.5h43q20 0 20 -20v-203q0 -20 -20 -20z" />
    <glyph glyph-name="f_f_i" unicode="ffi" horiz-adv-x="1933" 
d="M430 0h-244q-20 0 -20 20v748q0 12 -12 12h-62q-20 0 -20 21v170q0 20 20 20h62q12 0 12 13v47q0 180 84.5 261t263.5 81h113q20 0 20 -21v-192q0 -21 -20 -21h-64q-67 0 -89.5 -21.5t-22.5 -84.5v-49q0 -13 12 -13h162q20 0 20 -20v-170q0 -21 -20 -21h-162
q-12 0 -12 -12v-748q0 -20 -21 -20zM1124 0h-243q-21 0 -21 20v748q0 12 -12 12h-62q-20 0 -20 21v170q0 20 20 20h62q12 0 12 13v47q0 180 84.5 261t263.5 81h113q20 0 20 -21v-192q0 -21 -20 -21h-64q-67 0 -89.5 -21.5t-22.5 -84.5v-49q0 -13 12 -13h162q20 0 20 -20
v-170q0 -21 -20 -21h-162q-12 0 -12 -12v-748q0 -20 -21 -20zM1784 1149h-246q-20 0 -20 20v203q0 21 20 21h246q20 0 20 -21v-203q0 -20 -20 -20zM1784 0h-246q-20 0 -20 20v951q0 20 20 20h246q20 0 20 -20v-951q0 -20 -20 -20z" />
    <glyph glyph-name="f_f_l" unicode="ffl" horiz-adv-x="2011" 
d="M430 0h-244q-20 0 -20 20v748q0 12 -12 12h-62q-20 0 -20 21v170q0 20 20 20h62q12 0 12 13v47q0 180 84.5 261t263.5 81h113q20 0 20 -21v-192q0 -21 -20 -21h-64q-67 0 -89.5 -21.5t-22.5 -84.5v-49q0 -13 12 -13h162q20 0 20 -20v-170q0 -21 -20 -21h-162
q-12 0 -12 -12v-748q0 -20 -21 -20zM1124 0h-243q-21 0 -21 20v748q0 12 -12 12h-62q-20 0 -20 21v170q0 20 20 20h62q12 0 12 13v47q0 180 84.5 261t263.5 81h113q20 0 20 -21v-192q0 -21 -20 -21h-64q-67 0 -89.5 -21.5t-22.5 -84.5v-49q0 -13 12 -13h162q20 0 20 -20
v-170q0 -21 -20 -21h-162q-12 0 -12 -12v-748q0 -20 -21 -20zM1929 -12h-108q-163 0 -235.5 75t-72.5 240v1069q0 9 6 15t15 6h246q20 0 20 -21v-1046q0 -50 20.5 -72.5t65.5 -22.5h43q21 0 21 -20v-203q0 -20 -21 -20z" />
    <glyph glyph-name=".notdef" horiz-adv-x="1036" 
d="M0 20v1352q0 21 20 21h996q20 0 20 -21v-1352q0 -20 -20 -20h-996q-20 0 -20 20zM141 145q0 -12 13 -12h729q12 0 12 12v1102q0 13 -12 13h-729q-13 0 -13 -13v-1102zM428 498q-20 0 -20 20v49q0 61 38 111l95 123q47 61 47 106q0 37 -23 61.5t-61 24.5q-78 0 -98 -80
q-3 -21 -23 -18l-133 20q-9 0 -14 7t-3 16q19 99 91 157t188 58q115 0 187.5 -69t72.5 -171q0 -94 -65 -168l-93 -122q-26 -37 -26 -78v-27q0 -20 -21 -20h-139zM406 254v137q0 21 20 21h145q9 0 15 -6t6 -15v-137q0 -9 -6 -15t-15 -6h-145q-20 0 -20 21z" />
    <glyph glyph-name=".null" horiz-adv-x="1024" 
 />
    <glyph glyph-name=".null" horiz-adv-x="1024" 
 />
    <glyph glyph-name="nonmarkingreturn" horiz-adv-x="682" 
 />
    <glyph glyph-name="CR" unicode="&#xd;" horiz-adv-x="0" 
 />
    <glyph glyph-name="space" unicode=" " horiz-adv-x="483" 
 />
    <glyph glyph-name="exclam" unicode="!" horiz-adv-x="638" 
d="M236 408q-21 0 -21 20l-49 944q0 21 20 21h267q20 0 20 -21l-49 -944q0 -20 -21 -20h-167zM176 20v234q0 20 21 20h245q21 0 21 -20v-234q0 -20 -21 -20h-245q-21 0 -21 20z" />
    <glyph glyph-name="quotedbl" unicode="&#x22;" horiz-adv-x="765" 
d="M465 967q-21 0 -21 20v385q0 9 6 15t15 6h162q20 0 20 -21v-385q0 -20 -20 -20h-162zM139 967q-20 0 -20 20v385q0 21 20 21h162q9 0 15 -6t6 -15v-385q0 -20 -21 -20h-162z" />
    <glyph glyph-name="numbersign" unicode="#" horiz-adv-x="1122" 
d="M135 20l51 379h-129q-20 0 -20 21v162q0 20 20 20h156l29 209h-131q-21 0 -21 20v162q0 9 6 15t15 6h159l49 358q3 21 23 21h182q22 0 19 -21l-49 -358h213l49 358q4 21 22 21h183q21 0 18 -21l-49 -358h135q20 0 20 -21v-162q0 -20 -20 -20h-164l-29 -209h140
q20 0 20 -20v-162q0 -21 -20 -21h-166l-51 -379q-3 -20 -23 -20h-182q-22 0 -19 20l52 379h-213l-52 -379q-3 -20 -22 -20h-182q-22 0 -19 20zM436 602h213l29 209h-213z" />
    <glyph glyph-name="dollar" unicode="$" 
d="M111 129q-18 15 -5 31l140 172q13 17 26 4q115 -96 246 -109v351q-181 28 -283 134t-102 269q0 171 106.5 289.5t278.5 140.5v121q0 20 21 20h94q20 0 20 -20v-121q177 -14 326 -111q16 -13 4 -30l-119 -172q-12 -15 -28 -6q-92 57 -183 71v-329q191 -30 289 -135
t98 -273q0 -178 -103.5 -296t-283.5 -144v-125q0 -21 -20 -21h-94q-9 0 -15 6t-6 15v119q-232 11 -407 149zM518 860v293q-48 -19 -75 -58t-27 -91q0 -53 23 -88t79 -56zM653 242q105 42 105 170q0 98 -105 137v-307z" />
    <glyph glyph-name="percent" unicode="%" horiz-adv-x="1667" 
d="M324 -2l809 1397q11 20 32 20h172q9 0 11.5 -6.5t-2.5 -13.5l-809 -1397q-12 -21 -33 -21h-170q-9 0 -12 6.5t2 14.5zM406 676q-97 0 -167.5 45.5t-97.5 122.5q-11 32 -14.5 68.5t-3.5 129.5q0 94 3.5 130.5t14.5 68.5q27 77 97.5 122.5t167.5 45.5t167 -45.5t97 -122.5
q11 -32 14.5 -68.5t3.5 -130.5q0 -93 -3.5 -129.5t-14.5 -68.5q-27 -77 -97 -122.5t-167 -45.5zM406 838q56 0 71 47q8 21 8 157q0 137 -8 158q-15 47 -71 47q-57 0 -72 -47q-8 -21 -8 -158q0 -136 8 -157q15 -47 72 -47zM997 152q-11 32 -14.5 68t-3.5 128q0 94 3.5 130.5
t14.5 68.5q27 78 97 123t168 45q97 0 167 -45.5t97 -122.5q18 -62 18 -199q0 -134 -18 -196q-26 -79 -96.5 -124.5t-167.5 -45.5q-99 0 -168.5 45.5t-96.5 124.5zM1190 193q15 -50 72 -50q56 0 71 50q8 19 8 155q0 137 -8 158q-15 47 -71 47q-57 0 -72 -47q-8 -21 -8 -158
q0 -136 8 -155z" />
    <glyph glyph-name="ampersand" unicode="&#x26;" horiz-adv-x="1327" 
d="M111 352q0 115 58 212.5t200 209.5q-81 105 -115.5 172.5t-34.5 138.5q0 143 106 236.5t263 93.5q162 0 262 -94t100 -231q0 -95 -52 -173t-181 -178l182 -231l135 156q14 17 29 2l141 -119q15 -12 2 -29l-164 -194l37 -45q33 -43 80 -43h31q20 0 20 -21v-195
q0 -20 -20 -20h-86q-75 0 -121 23.5t-98 89.5l-17 18q-87 -83 -170 -118.5t-186 -35.5q-188 0 -294.5 103.5t-106.5 271.5zM571 924q74 58 100.5 93.5t26.5 74.5q0 47 -31 78.5t-77 31.5q-49 0 -79 -30t-30 -80q0 -32 18.5 -67t71.5 -101zM373 375q0 -71 42 -114.5
t117 -43.5q51 0 95 22t100 76l-213 275q-79 -63 -110 -113t-31 -102z" />
    <glyph glyph-name="quotesingle" unicode="'" horiz-adv-x="440" 
d="M139 967q-20 0 -20 20v385q0 21 20 21h162q9 0 15 -6t6 -15v-385q0 -20 -21 -20h-162z" />
    <glyph glyph-name="parenleft" unicode="(" horiz-adv-x="636" 
d="M369 -152q-132 182 -198.5 394.5t-66.5 429.5q0 216 67 429t198 394q15 21 32 21h148q9 0 12.5 -6t-0.5 -15q-89 -184 -136.5 -397.5t-47.5 -425.5q0 -211 48 -427t136 -397q4 -9 0.5 -14.5t-12.5 -5.5h-148q-18 0 -32 20z" />
    <glyph glyph-name="parenright" unicode=")" horiz-adv-x="636" 
d="M76 -152q88 181 136 397t48 427q0 212 -47.5 425.5t-136.5 397.5q-4 9 -0.5 15t12.5 6h148q17 0 32 -21q131 -180 197.5 -393.5t66.5 -429.5q0 -217 -66 -430t-198 -394q-14 -20 -32 -20h-148q-9 0 -12.5 5.5t0.5 14.5z" />
    <glyph glyph-name="asterisk" unicode="*" horiz-adv-x="751" 
d="M319 766q-20 0 -20 20l2 164l-141 -84q-8 -4 -16 -2t-13 10l-55 99q-10 17 8 28l141 78l-141 80q-8 5 -10 13t2 16l55 98q10 17 29 6l141 -84l-2 164q0 21 20 21h113q9 0 15 -6t6 -15l-4 -164l141 84q18 11 28 -6l56 -98q11 -19 -6 -29l-144 -80l144 -78q18 -11 8 -28
l-58 -99q-11 -18 -28 -8l-141 84l4 -164q0 -20 -21 -20h-113z" />
    <glyph glyph-name="plus" unicode="+" 
d="M444 121v311q0 12 -12 12h-307q-9 0 -15 6t-6 15v201q0 20 21 20h307q12 0 12 12v312q0 20 21 20h209q20 0 20 -20v-312q0 -12 13 -12h307q20 0 20 -20v-201q0 -21 -20 -21h-307q-13 0 -13 -12v-311q0 -21 -20 -21h-209q-9 0 -15 6t-6 15z" />
    <glyph glyph-name="comma" unicode="," horiz-adv-x="518" 
d="M123 -199v465q0 21 20 21h232q20 0 20 -21v-248q0 -23 -18 -41l-203 -184q-17 -14 -31 -14q-20 0 -20 22z" />
    <glyph glyph-name="hyphen" unicode="-" horiz-adv-x="802" 
d="M106 418q-20 0 -20 20v209q0 21 20 21h590q9 0 15 -6t6 -15v-209q0 -20 -21 -20h-590z" />
    <glyph glyph-name="period" unicode="." horiz-adv-x="530" 
d="M123 20v246q0 21 20 21h244q9 0 15 -6t6 -15v-246q0 -20 -21 -20h-244q-20 0 -20 20z" />
    <glyph glyph-name="slash" unicode="/" horiz-adv-x="892" 
d="M92 -2l445 1397q6 20 26 20h223q9 0 13.5 -5.5t1.5 -14.5l-447 -1397q-6 -21 -26 -21h-222q-9 0 -13 6t-1 15z" />
    <glyph glyph-name="zero" unicode="0" 
d="M150 262q-17 52 -24 135.5t-7 298.5t7 298.5t24 135.5q43 136 150 210.5t269 74.5t269.5 -74.5t150.5 -210.5q17 -52 24 -135.5t7 -298.5t-7 -298.5t-24 -135.5q-43 -136 -150.5 -210.5t-269.5 -74.5t-269 74.5t-150 210.5zM428 313q30 -94 141 -94q112 0 142 94
q10 30 13 97.5t3 285.5t-3 285.5t-13 97.5q-30 95 -142 95q-111 0 -141 -95q-10 -30 -13 -97.5t-3 -285.5t3 -285.5t13 -97.5z" />
    <glyph glyph-name="one" unicode="1" 
d="M496 20v1049h-4l-222 -151q-9 -6 -15.5 -3t-6.5 15v254q0 17 14 28l234 168q16 13 36 13h230q20 0 20 -21v-1352q0 -20 -20 -20h-246q-20 0 -20 20z" />
    <glyph glyph-name="two" unicode="2" 
d="M133 20v191q0 17 10 29l490 581q82 94 82 193q0 71 -41 115.5t-111 44.5q-71 0 -113 -42t-51 -122q0 -20 -22 -17l-225 37q-9 1 -14 8.5t-3 16.5q11 152 128 256t310 104q195 0 311.5 -112t116.5 -285q0 -178 -141 -338l-366 -432v-4h487q20 0 20 -21v-203q0 -20 -20 -20
h-827q-21 0 -21 20z" />
    <glyph glyph-name="three" unicode="3" 
d="M115 297q-3 21 16 27l225 43q18 3 25 -17q20 -59 66 -95t116 -36q78 0 125 50.5t47 129.5q0 93 -52 145t-142 52h-60q-20 0 -20 20v199q0 21 20 21h56q78 0 125 47.5t47 126.5q0 74 -42.5 119t-115.5 45q-125 0 -158 -130q-6 -17 -24 -14l-224 43q-19 3 -16 23
q26 142 141 230.5t295 88.5q200 0 315 -107t115 -278q0 -89 -40 -163.5t-115 -123.5v-4q73 -36 127.5 -123.5t54.5 -214.5q0 -189 -128.5 -306.5t-326.5 -117.5q-180 0 -301.5 85t-150.5 235z" />
    <glyph glyph-name="four" unicode="4" 
d="M104 203q-20 0 -20 20v209q0 17 4 25l418 919q8 17 29 17h260q21 0 14 -21l-418 -915v-6h256q12 0 12 12v301q0 20 21 20h238q20 0 20 -20v-301q0 -12 12 -12h92q9 0 15 -6t6 -15v-207q0 -20 -21 -20h-92q-12 0 -12 -13v-170q0 -20 -20 -20h-238q-21 0 -21 20v170
q0 13 -12 13h-543z" />
    <glyph glyph-name="five" unicode="5" 
d="M145 285q-2 8 3 14.5t14 7.5l221 43q19 3 25 -16q44 -115 161 -115q54 0 92.5 25t53.5 73q16 44 16 136q0 93 -16 137q-32 96 -146 96q-53 0 -88.5 -23t-52.5 -57q-9 -20 -27 -20h-219q-20 0 -20 20v766q0 21 20 21h779q20 0 20 -21v-203q0 -20 -20 -20h-535
q-12 0 -12 -12v-275h6q75 66 209 66q135 0 227.5 -60t130.5 -176q29 -92 29 -237q0 -119 -31 -217q-41 -125 -150.5 -193t-261.5 -68q-177 0 -293 85t-135 223z" />
    <glyph glyph-name="six" unicode="6" 
d="M102 416q0 158 103 344l338 618q7 15 24 15h260q25 0 15 -21l-295 -538l4 -5q30 13 86 13q169 0 284 -116t115 -304q0 -137 -62 -239t-167 -154t-238 -52q-204 0 -335.5 119t-131.5 320zM385 412q0 -86 50 -139.5t134 -53.5t134.5 53.5t50.5 139.5q0 87 -50.5 140.5
t-134.5 53.5t-134 -53.5t-50 -140.5z" />
    <glyph glyph-name="seven" unicode="7" 
d="M272 23l443 1114v6h-293q-12 0 -12 -13v-145q0 -20 -21 -20h-227q-21 0 -21 20v387q0 9 6 15t15 6h833q9 0 15 -6t6 -15v-213q0 -12 -4 -24l-443 -1117q-8 -18 -28 -18h-256q-9 0 -13 6t0 17z" />
    <glyph glyph-name="eight" unicode="8" 
d="M98 401q0 110 47 193.5t119 132.5v4q-55 40 -95 114t-40 165q0 81 29.5 154t84 129t139 89t187.5 33t188 -33t139.5 -89t84 -129t29.5 -154q0 -91 -40 -165t-96 -114v-4q72 -49 119 -132.5t47 -193.5q0 -190 -133 -307t-338 -117t-338 117t-133 307zM569 848q70 0 115 47
t45 115q0 69 -44.5 116.5t-115.5 47.5q-70 0 -114.5 -47.5t-44.5 -116.5q0 -68 44.5 -115t114.5 -47zM381 414q0 -87 52 -141t136 -54t136.5 54t52.5 141q0 85 -52.5 138.5t-136.5 53.5t-136 -53.5t-52 -138.5z" />
    <glyph glyph-name="nine" unicode="9" 
d="M297 20l295 539l-4 4q-28 -12 -86 -12q-110 0 -200.5 51t-145 147.5t-54.5 221.5q0 137 62 239t167 153.5t238 51.5q204 0 335.5 -118.5t131.5 -319.5q0 -160 -102 -344l-338 -619q-7 -14 -25 -14h-260q-24 0 -14 20zM569 786q84 0 134.5 54t50.5 141q0 86 -50.5 139.5
t-134.5 53.5t-134 -53.5t-50 -139.5q0 -87 50 -141t134 -54z" />
    <glyph glyph-name="colon" unicode=":" horiz-adv-x="552" 
d="M154 707q-21 0 -21 20v244q0 20 21 20h245q21 0 21 -20v-244q0 -20 -21 -20h-245zM133 20v246q0 9 6 15t15 6h245q9 0 15 -6t6 -15v-246q0 -20 -21 -20h-245q-21 0 -21 20z" />
    <glyph glyph-name="semicolon" unicode=";" horiz-adv-x="552" 
d="M154 707q-21 0 -21 20v244q0 20 21 20h245q21 0 21 -20v-244q0 -20 -21 -20h-245zM141 -199v465q0 9 6 15t15 6h231q9 0 15 -6t6 -15v-248q0 -24 -17 -41l-204 -184q-17 -14 -31 -14q-21 0 -21 22z" />
    <glyph glyph-name="less" unicode="&#x3c;" 
d="M125 451q-21 7 -21 28v172q0 22 21 29l889 348q20 7 20 -12v-223q0 -18 -20 -27l-543 -199v-4l543 -198q20 -9 20 -27v-223q0 -20 -20 -13z" />
    <glyph glyph-name="equal" unicode="=" 
d="M125 659q-9 0 -15 6t-6 15v201q0 20 21 20h889q20 0 20 -20v-201q0 -21 -20 -21h-889zM125 229q-9 0 -15 6t-6 15v201q0 20 21 20h889q20 0 20 -20v-201q0 -21 -20 -21h-889z" />
    <glyph glyph-name="greater" unicode="&#x3e;" 
d="M104 115v223q0 19 21 27l543 198v4l-543 199q-21 8 -21 27v223q0 19 21 12l889 -348q20 -7 20 -29v-172q0 -21 -20 -28l-889 -349q-21 -7 -21 13z" />
    <glyph glyph-name="question" unicode="?" horiz-adv-x="968" 
d="M348 408q-20 0 -20 20v86q0 57 13.5 94.5t45.5 77.5l143 186q78 93 78 164q0 60 -36.5 97.5t-98.5 37.5q-125 0 -154 -143q-5 -21 -26 -18l-221 32q-21 3 -17 25q24 160 136 254t290 94q181 0 296.5 -105t115.5 -263q0 -76 -26.5 -139t-82.5 -128l-137 -180
q-24 -29 -32.5 -54.5t-8.5 -68.5v-49q0 -20 -20 -20h-238zM324 20v234q0 20 20 20h246q20 0 20 -20v-234q0 -20 -20 -20h-246q-20 0 -20 20z" />
    <glyph glyph-name="at" unicode="@" horiz-adv-x="1863" 
d="M88 543q0 183 61.5 337.5t171 262t265.5 167.5t340 60t340.5 -60.5t265.5 -168t170 -260t61 -332.5q0 -213 -104 -326.5t-260 -113.5q-94 0 -161.5 35.5t-102.5 97.5h-2q-70 -131 -275 -131q-231 0 -293 194q-28 83 -28 238t28 235q31 97 101.5 147t175.5 50
q76 0 134.5 -30t86.5 -75h2v64q0 18 16 18h197q16 0 16 -18v-498q0 -64 30.5 -96.5t78.5 -32.5q133 0 133 240q0 282 -164.5 453t-445.5 171t-446 -171t-165 -457q0 -280 165 -450.5t446 -170.5q230 0 424 96q19 10 28 -8l74 -133q11 -18 -8 -27q-218 -129 -518 -129
q-245 0 -436 104t-296.5 291t-105.5 427zM782 406q35 -95 136 -95q105 0 135 95q12 35 12 137q0 103 -12 135q-30 96 -135 96q-101 0 -136 -96q-12 -40 -12 -135q0 -93 12 -137z" />
    <glyph glyph-name="A" unicode="A" horiz-adv-x="1318" 
d="M29 20l479 1352q7 21 27 21h258q19 0 26 -21l471 -1352q7 -20 -14 -20h-266q-21 0 -27 20l-80 244h-487l-78 -244q-6 -20 -27 -20h-268q-21 0 -14 20zM500 520h321l-157 488h-7z" />
    <glyph glyph-name="B" unicode="B" horiz-adv-x="1249" 
d="M133 20v1352q0 9 6 15t15 6h542q220 0 332.5 -99.5t112.5 -271.5q0 -207 -162 -297v-4q76 -29 131 -113.5t55 -201.5q0 -202 -126.5 -304t-356.5 -102h-528q-21 0 -21 20zM446 823h213q86 0 134.5 43.5t48.5 120.5q0 76 -48.5 119t-134.5 43h-213q-12 0 -12 -12v-301
q0 -13 12 -13zM434 256q0 -12 12 -12h230q91 0 139.5 45.5t48.5 128.5q0 81 -48.5 127.5t-139.5 46.5h-230q-12 0 -12 -12v-324z" />
    <glyph glyph-name="C" unicode="C" horiz-adv-x="1177" 
d="M135 319q-23 68 -31 142.5t-8 234.5t8 234.5t31 142.5q55 168 183 255t313 87q176 0 301 -80.5t184 -228.5q11 -18 -10 -25l-223 -100q-19 -10 -29 10q-68 158 -221 158q-159 0 -209 -154q-13 -41 -18 -99.5t-5 -199.5t5 -199.5t18 -99.5q49 -153 209 -153q153 0 221 157
q10 20 29 11l223 -101q20 -7 10 -24q-59 -148 -184.5 -229t-300.5 -81q-185 0 -313 87t-183 255z" />
    <glyph glyph-name="D" unicode="D" horiz-adv-x="1290" 
d="M133 20v1352q0 9 6 15t15 6h518q185 0 307.5 -79t173.5 -235q20 -63 28.5 -142t8.5 -241t-8.5 -241t-28.5 -142q-51 -155 -173.5 -234t-307.5 -79h-518q-21 0 -21 20zM434 281q0 -13 12 -13h158q107 0 169.5 35.5t88.5 118.5q23 67 23 274q0 208 -23 275q-26 83 -88 118
t-170 35h-158q-12 0 -12 -12v-831z" />
    <glyph glyph-name="E" unicode="E" horiz-adv-x="1157" 
d="M133 20v1352q0 9 6 15t15 6h893q20 0 20 -21v-219q0 -20 -20 -20h-601q-12 0 -12 -13v-276q0 -13 12 -13h500q21 0 21 -20v-217q0 -9 -6 -15t-15 -6h-500q-12 0 -12 -12v-289q0 -12 12 -12h601q20 0 20 -20v-220q0 -20 -20 -20h-893q-21 0 -21 20z" />
    <glyph glyph-name="F" unicode="F" horiz-adv-x="1140" 
d="M133 20v1352q0 9 6 15t15 6h893q20 0 20 -21v-219q0 -20 -20 -20h-601q-12 0 -12 -13v-293q0 -12 12 -12h500q21 0 21 -20v-217q0 -9 -6 -15t-15 -6h-500q-12 0 -12 -12v-525q0 -20 -20 -20h-260q-21 0 -21 20z" />
    <glyph glyph-name="G" unicode="G" horiz-adv-x="1286" 
d="M135 315q-23 72 -31 149t-8 232t8 232t31 149q53 166 187.5 252t324.5 86q187 0 315.5 -82t180.5 -215q11 -22 -8 -31l-220 -92q-21 -6 -28 11q-43 73 -99.5 108t-140.5 35q-173 0 -223 -156q-23 -70 -23 -297q0 -229 23 -299q49 -153 227 -153q80 0 141 37.5t82 105.5
q17 59 17 137q0 13 -12 13h-189q-20 0 -20 20v197q0 20 20 20h479q21 0 21 -20v-115q0 -207 -35 -313q-52 -166 -187 -257.5t-321 -91.5q-190 0 -324.5 86t-187.5 252z" />
    <glyph glyph-name="H" unicode="H" horiz-adv-x="1347" 
d="M133 20v1352q0 9 6 15t15 6h260q20 0 20 -21v-522q0 -12 12 -12h455q12 0 12 12v522q0 9 6 15t15 6h260q20 0 20 -21v-1352q0 -20 -20 -20h-260q-21 0 -21 20v537q0 12 -12 12h-455q-12 0 -12 -12v-537q0 -20 -20 -20h-260q-21 0 -21 20z" />
    <glyph glyph-name="I" unicode="I" horiz-adv-x="567" 
d="M133 20v1352q0 9 6 15t15 6h260q20 0 20 -21v-1352q0 -20 -20 -20h-260q-21 0 -21 20z" />
    <glyph glyph-name="J" unicode="J" horiz-adv-x="1067" 
d="M43 156q-10 16 2 28l191 146q14 10 28 -4q30 -35 74 -58.5t96 -23.5q99 0 152 61.5t53 179.5v887q0 21 20 21h261q20 0 20 -21v-872q0 -254 -133.5 -388.5t-374.5 -134.5q-125 0 -231.5 50.5t-157.5 128.5z" />
    <glyph glyph-name="K" unicode="K" horiz-adv-x="1320" 
d="M133 20v1352q0 9 6 15t15 6h260q20 0 20 -21v-602l463 604q14 19 35 19h297q9 0 12 -9t-4 -18l-422 -528l461 -813q6 -11 2.5 -18t-14.5 -7h-301q-21 0 -31 18l-316 586l-182 -229v-355q0 -20 -20 -20h-260q-21 0 -21 20z" />
    <glyph glyph-name="L" unicode="L" horiz-adv-x="1126" 
d="M133 20v1352q0 9 6 15t15 6h260q20 0 20 -21v-1091q0 -13 12 -13h615q20 0 20 -20v-228q0 -20 -20 -20h-907q-21 0 -21 20z" />
    <glyph glyph-name="M" unicode="M" horiz-adv-x="1562" 
d="M133 20v1352q0 9 6 15t15 6h243q24 0 33 -21l352 -794h9l346 794q9 21 32 21h240q9 0 15 -6t6 -15v-1352q0 -20 -21 -20h-231q-21 0 -21 20v785h-8l-258 -588q-12 -27 -39 -27h-141q-27 0 -39 27l-258 588h-8v-785q0 -20 -21 -20h-231q-21 0 -21 20z" />
    <glyph glyph-name="N" unicode="N" horiz-adv-x="1341" 
d="M133 20v1352q0 9 6 15t15 6h245q23 0 35 -21l492 -876h10v876q0 21 20 21h232q20 0 20 -21v-1352q0 -20 -20 -20h-244q-24 0 -35 20l-493 875h-10v-875q0 -20 -21 -20h-231q-21 0 -21 20z" />
    <glyph glyph-name="O" unicode="O" horiz-adv-x="1286" 
d="M643 -23q-187 0 -321 86.5t-187 251.5q-23 72 -31 149t-8 232t8 232t31 149q53 165 187 251.5t321 86.5t321 -86.5t187 -251.5q23 -72 31 -149t8 -232t-8 -232t-31 -149q-53 -165 -187 -251.5t-321 -86.5zM643 244q170 0 219 153q23 70 23 299t-23 299q-50 154 -219 154
t-219 -154q-23 -70 -23 -299t23 -299q49 -153 219 -153z" />
    <glyph glyph-name="P" unicode="P" horiz-adv-x="1239" 
d="M414 0h-260q-21 0 -21 20v1352q0 9 6 15t15 6h540q225 0 355.5 -123.5t130.5 -325.5q0 -199 -131.5 -322.5t-354.5 -123.5h-248q-12 0 -12 -13v-465q0 -20 -20 -20zM676 758q95 0 149 50.5t54 135.5q0 86 -54.5 137.5t-148.5 51.5h-230q-12 0 -12 -13v-350q0 -12 12 -12
h230z" />
    <glyph glyph-name="Q" unicode="Q" horiz-adv-x="1286" 
d="M1262 59l-164 -159q-16 -16 -31 0l-141 141q-128 -64 -283 -64q-187 0 -321 86.5t-187 251.5q-23 72 -31 149t-8 232t8 232t31 149q53 165 187 251.5t321 86.5t320.5 -86t187.5 -252q23 -72 31 -149t8 -232t-8 -232t-31 -149q-6 -19 -35 -84l146 -143q14 -14 0 -29z
M643 242q43 0 74 8l-88 88q-15 14 0 29l164 155q16 14 30 0l56 -55q8 63 8 229q0 231 -23 301q-24 73 -80 113.5t-141 40.5t-141 -40.5t-80 -113.5q-23 -70 -23 -301t23 -301q24 -73 80 -113t141 -40z" />
    <glyph glyph-name="R" unicode="R" horiz-adv-x="1277" 
d="M1194 0h-291q-22 0 -31 20l-239 510h-187q-12 0 -12 -12v-498q0 -20 -20 -20h-260q-21 0 -21 20v1352q0 9 6 15t15 6h555q213 0 343 -120t130 -312q0 -133 -66 -235t-182 -153l274 -548q5 -9 0.5 -17t-14.5 -8zM692 786q86 0 137.5 47.5t51.5 127.5q0 78 -51.5 125
t-137.5 47h-246q-12 0 -12 -13v-321q0 -13 12 -13h246z" />
    <glyph glyph-name="S" unicode="S" horiz-adv-x="1218" 
d="M602 -23q-157 0 -303.5 54.5t-232.5 136.5q-18 18 -3 35l156 178q13 16 31 2q178 -143 364 -143q107 0 167.5 45.5t60.5 120.5q0 64 -47.5 101t-167.5 54l-74 10q-440 61 -440 418q0 193 134 309.5t359 116.5q137 0 260.5 -38.5t212.5 -106.5q18 -12 4 -31l-125 -186
q-12 -15 -28 -6q-161 106 -324 106q-90 0 -138 -42t-48 -110q0 -62 50 -99t167 -54l74 -10q219 -30 328.5 -133t109.5 -289q0 -196 -142.5 -317.5t-404.5 -121.5z" />
    <glyph glyph-name="T" unicode="T" horiz-adv-x="1140" 
d="M700 0h-260q-20 0 -20 20v1092q0 12 -12 12h-353q-20 0 -20 21v227q0 21 20 21h1030q9 0 15 -6t6 -15v-227q0 -9 -6 -15t-15 -6h-352q-12 0 -12 -12v-1092q0 -20 -21 -20z" />
    <glyph glyph-name="U" unicode="U" horiz-adv-x="1320" 
d="M662 -23q-241 0 -388 140.5t-147 394.5v860q0 21 20 21h261q20 0 20 -21v-868q0 -123 63.5 -191.5t170.5 -68.5q106 0 168.5 68.5t62.5 191.5v868q0 21 20 21h261q20 0 20 -21v-860q0 -254 -146.5 -394.5t-385.5 -140.5z" />
    <glyph glyph-name="V" unicode="V" horiz-adv-x="1218" 
d="M729 0h-237q-20 0 -27 20l-442 1350q-3 10 2 16.5t16 6.5h266q21 0 27 -21l278 -913h6l271 913q6 21 26 21h265q9 0 14 -6.5t2 -16.5l-442 -1350q-7 -20 -25 -20z" />
    <glyph glyph-name="W" unicode="W" horiz-adv-x="1771" 
d="M1362 0h-205q-20 0 -27 20l-241 867h-4l-244 -867q-7 -20 -27 -20h-204q-18 0 -25 20l-360 1352q-3 21 16 21h264q21 0 25 -21l200 -874h5l237 874q7 21 27 21h178q17 0 24 -21l246 -874h4l193 874q3 21 24 21h263q19 0 16 -21l-358 -1352q-3 -20 -27 -20z" />
    <glyph glyph-name="X" unicode="X" horiz-adv-x="1218" 
d="M1180 0h-285q-24 0 -35 20l-248 424h-6l-250 -424q-11 -20 -34 -20h-283q-10 0 -14 8t2 17l415 694l-387 649q-5 9 -1 17t14 8h284q21 0 33 -21l221 -377h6l222 377q12 21 32 21h285q10 0 13.5 -8t-1.5 -17l-389 -649l418 -694q5 -9 1.5 -17t-13.5 -8z" />
    <glyph glyph-name="Y" unicode="Y" horiz-adv-x="1163" 
d="M711 0h-260q-21 0 -21 20v535l-412 817q-3 8 1 14.5t14 6.5h266q22 0 31 -21l252 -508h6l252 508q9 21 30 21h258q10 0 15 -6.5t0 -14.5l-412 -817v-535q0 -20 -20 -20z" />
    <glyph glyph-name="Z" unicode="Z" horiz-adv-x="1118" 
d="M1016 0h-914q-20 0 -20 20v226q0 11 6 20l600 854v4h-563q-9 0 -15 6t-6 15v227q0 9 6 15t15 6h891q20 0 20 -21v-225q0 -12 -6 -21l-602 -854v-4h588q20 0 20 -20v-228q0 -20 -20 -20z" />
    <glyph glyph-name="bracketleft" unicode="[" horiz-adv-x="618" 
d="M541 -172h-389q-21 0 -21 20v1647q0 9 6 15t15 6h389q20 0 20 -21v-172q0 -20 -20 -20h-144q-12 0 -12 -13v-1237q0 -12 12 -12h144q20 0 20 -21v-172q0 -20 -20 -20z" />
    <glyph glyph-name="backslash" unicode="\" horiz-adv-x="892" 
d="M786 -23h-223q-20 0 -26 21l-445 1397q-3 9 1 14.5t13 5.5h222q20 0 26 -20l447 -1397q3 -9 -1.5 -15t-13.5 -6z" />
    <glyph glyph-name="bracketright" unicode="]" horiz-adv-x="618" 
d="M467 -172h-389q-21 0 -21 20v172q0 9 6 15t15 6h143q12 0 12 12v1237q0 13 -12 13h-143q-21 0 -21 20v172q0 9 6 15t15 6h389q20 0 20 -21v-1647q0 -20 -20 -20z" />
    <glyph glyph-name="asciicircum" unicode="^" 
d="M1022 518h-223q-20 0 -29 21l-199 508h-4l-200 -508q-6 -21 -27 -21h-223q-9 0 -13.5 6t-1.5 15l351 833q11 21 28 21h176q19 0 29 -21l350 -833q3 -9 -1 -15t-13 -6z" />
    <glyph glyph-name="underscore" unicode="_" horiz-adv-x="1064" 
d="M1065 -311h-1065v180h1065v-180z" />
    <glyph glyph-name="grave" unicode="`" horiz-adv-x="929" 
d="M672 1128h-189q-23 0 -39 21l-202 266q-6 7 -2.5 14t12.5 7h237q25 0 37 -21l156 -266q10 -21 -10 -21z" />
    <glyph glyph-name="a" unicode="a" horiz-adv-x="1081" 
d="M938 0h-227q-21 0 -21 20v66h-2q-84 -109 -272 -109q-142 0 -236 77t-94 227q0 159 110 239t302 80h176q12 0 12 12v37q0 72 -44 103.5t-159 31.5q-136 0 -221 -63q-16 -13 -26 4l-93 162q-9 18 7 28q141 99 368 99q239 0 339.5 -85t100.5 -274v-635q0 -20 -20 -20z
M502 193q184 0 184 137v67q0 13 -12 13h-139q-91 0 -134 -27.5t-43 -85.5q0 -104 144 -104z" />
    <glyph glyph-name="b" unicode="b" horiz-adv-x="1128" 
d="M678 -23q-184 0 -260 115h-2v-72q0 -20 -21 -20h-245q-21 0 -21 20v1352q0 9 6 15t15 6h245q9 0 15 -6t6 -15v-473h2q76 115 260 115q126 0 212 -60.5t124 -177.5q35 -109 35 -280q0 -172 -35 -281q-38 -116 -124.5 -177t-211.5 -61zM586 219q118 0 153 107q19 62 19 170
t-19 170q-34 106 -153 106q-118 0 -152 -106q-18 -58 -18 -170t18 -170q35 -107 152 -107z" />
    <glyph glyph-name="c" unicode="c" horiz-adv-x="985" 
d="M539 -23q-159 0 -271.5 72.5t-156.5 208.5q-31 91 -31 238q0 146 31 237q44 136 156.5 208.5t271.5 72.5q123 0 220.5 -51t153.5 -136q10 -17 -4 -28l-178 -117q-18 -12 -31 4q-33 46 -68.5 66t-88.5 20q-120 0 -154 -106q-18 -53 -18 -170t18 -170q34 -107 154 -107
q53 0 88.5 20t68.5 66q13 16 31 4l178 -116q14 -12 4 -29q-56 -85 -153.5 -136t-220.5 -51z" />
    <glyph glyph-name="d" unicode="d" horiz-adv-x="1128" 
d="M979 0h-246q-20 0 -20 20v72h-2q-79 -115 -260 -115q-125 0 -211.5 61t-124.5 177q-35 109 -35 281q0 171 35 280q38 117 124 177.5t212 60.5q181 0 260 -115h2v473q0 21 20 21h246q20 0 20 -21v-1352q0 -20 -20 -20zM543 219q116 0 151 107q19 62 19 170t-19 170
q-34 106 -151 106q-120 0 -154 -106q-18 -58 -18 -170t18 -170q35 -107 154 -107z" />
    <glyph glyph-name="e" unicode="e" horiz-adv-x="1079" 
d="M553 -23q-168 0 -281.5 74.5t-156.5 208.5q-35 107 -35 236q0 136 33 237q43 133 155 207t271 74q163 0 274 -73.5t154 -205.5q32 -106 32 -305q0 -20 -22 -20h-600q-12 0 -12 -13q3 -31 12 -55q20 -64 73.5 -97.5t131.5 -33.5q132 0 227 88q18 14 29 0l135 -127
q17 -14 2 -29q-73 -78 -181 -122t-241 -44zM377 600h328q12 0 12 12q0 41 -10 74q-17 51 -61 80t-105 29t-105 -29t-61 -80q-10 -33 -10 -74q0 -12 12 -12z" />
    <glyph glyph-name="f" unicode="f" horiz-adv-x="694" 
d="M430 0h-244q-20 0 -20 20v748q0 12 -12 12h-62q-20 0 -20 21v170q0 20 20 20h62q12 0 12 13v47q0 180 84.5 261t263.5 81h113q20 0 20 -21v-192q0 -21 -20 -21h-64q-67 0 -89.5 -21.5t-22.5 -84.5v-49q0 -13 12 -13h162q20 0 20 -20v-170q0 -21 -20 -21h-162
q-12 0 -12 -12v-748q0 -20 -21 -20z" />
    <glyph glyph-name="g" unicode="g" horiz-adv-x="1112" 
d="M489 -391q-110 0 -215 42t-159 107q-13 16 2 31l145 148q16 15 31 0q96 -87 205 -87q102 0 150 55t48 165v84h-2q-71 -115 -254 -115q-124 0 -208.5 61t-122.5 179q-33 106 -33 247q0 145 33 248q38 118 122.5 179t208.5 61q183 0 254 -115h2v72q0 20 21 20h246
q20 0 20 -20v-865q0 -497 -494 -497zM530 281q113 0 148 106q18 56 18 139q0 84 -18 140q-35 106 -148 106q-109 0 -147 -106q-16 -59 -16 -140q0 -80 16 -139q38 -106 147 -106z" />
    <glyph glyph-name="h" unicode="h" horiz-adv-x="1132" 
d="M991 0h-246q-20 0 -20 20v570q0 84 -39.5 132t-114.5 48q-73 0 -114 -48.5t-41 -131.5v-570q0 -20 -21 -20h-245q-21 0 -21 20v1352q0 9 6 15t15 6h245q9 0 15 -6t6 -15v-471h2q37 50 102 81.5t154 31.5q161 0 249.5 -101t88.5 -268v-625q0 -20 -21 -20z" />
    <glyph glyph-name="i" unicode="i" horiz-adv-x="544" 
d="M395 1149h-245q-21 0 -21 20v203q0 9 6 15t15 6h245q9 0 15 -6t6 -15v-203q0 -20 -21 -20zM395 0h-245q-21 0 -21 20v951q0 20 21 20h245q21 0 21 -20v-951q0 -20 -21 -20z" />
    <glyph glyph-name="j" unicode="j" horiz-adv-x="544" 
d="M395 1149h-245q-21 0 -21 20v203q0 9 6 15t15 6h245q9 0 15 -6t6 -15v-203q0 -20 -21 -20zM45 -369h-68q-20 0 -20 21v201q0 20 20 20h41q61 0 86 24.5t25 90.5v983q0 20 21 20h245q21 0 21 -20v-981q0 -185 -93.5 -272t-277.5 -87z" />
    <glyph glyph-name="k" unicode="k" horiz-adv-x="1087" 
d="M1042 0h-272q-20 0 -31 20l-221 400l-102 -127v-273q0 -20 -21 -20h-245q-21 0 -21 20v1352q0 9 6 15t15 6h245q9 0 15 -6t6 -15v-751l284 350q17 20 39 20h262q9 0 12 -7t-3 -13l-303 -350l346 -601q5 -6 1.5 -13t-12.5 -7z" />
    <glyph glyph-name="l" unicode="l" horiz-adv-x="622" 
d="M541 -12h-109q-163 0 -235 75t-72 240v1069q0 21 20 21h246q9 0 15 -6t6 -15v-1046q0 -50 20.5 -72.5t65.5 -22.5h43q20 0 20 -20v-203q0 -20 -20 -20z" />
    <glyph glyph-name="m" unicode="m" horiz-adv-x="1728" 
d="M1587 0h-246q-20 0 -20 20v570q0 83 -40.5 131.5t-115.5 48.5q-73 0 -113 -48.5t-40 -131.5v-570q0 -20 -21 -20h-246q-20 0 -20 20v570q0 84 -39.5 132t-114.5 48q-73 0 -114 -48.5t-41 -131.5v-570q0 -20 -21 -20h-245q-21 0 -21 20v951q0 20 21 20h245q21 0 21 -20
v-70h2q37 50 102 81.5t154 31.5q179 0 266 -125h2q119 125 311 125q171 0 263 -100t92 -269v-625q0 -20 -21 -20z" />
    <glyph glyph-name="n" unicode="n" horiz-adv-x="1132" 
d="M991 0h-246q-20 0 -20 20v570q0 84 -39.5 132t-114.5 48q-73 0 -114 -48.5t-41 -131.5v-570q0 -20 -21 -20h-245q-21 0 -21 20v951q0 20 21 20h245q21 0 21 -20v-70h2q37 50 102 81.5t154 31.5q161 0 249.5 -101t88.5 -268v-625q0 -20 -21 -20z" />
    <glyph glyph-name="o" unicode="o" horiz-adv-x="1085" 
d="M543 -23q-159 0 -273.5 73t-156.5 206q-33 103 -33 240q0 136 33 239q42 133 156.5 206t273.5 73t273.5 -73t156.5 -206q33 -103 33 -239q0 -137 -33 -240q-42 -133 -156.5 -206t-273.5 -73zM543 219q118 0 153 107q19 61 19 170t-19 170q-35 106 -153 106
q-119 0 -154 -106q-18 -58 -18 -170t18 -170q35 -107 154 -107z" />
    <glyph glyph-name="p" unicode="p" horiz-adv-x="1128" 
d="M395 -369h-245q-9 0 -15 6t-6 15v1319q0 20 21 20h245q21 0 21 -20v-72h2q76 115 260 115q126 0 212 -60.5t124 -177.5q35 -109 35 -280q0 -172 -35 -281q-38 -116 -124.5 -177t-211.5 -61q-184 0 -260 115h-2v-440q0 -9 -6 -15t-15 -6zM586 219q118 0 153 107
q19 62 19 170t-19 170q-34 106 -153 106q-118 0 -152 -106q-18 -58 -18 -170t18 -170q35 -107 152 -107z" />
    <glyph glyph-name="q" unicode="q" horiz-adv-x="1128" 
d="M979 -369h-246q-20 0 -20 21v440h-2q-79 -115 -260 -115q-125 0 -211.5 61t-124.5 177q-35 109 -35 281q0 171 35 280q38 117 124 177.5t212 60.5q181 0 260 -115h2v72q0 20 20 20h246q20 0 20 -20v-1319q0 -21 -20 -21zM543 219q116 0 151 107q19 62 19 170t-19 170
q-34 106 -151 106q-120 0 -154 -106q-18 -58 -18 -170t18 -170q35 -107 154 -107z" />
    <glyph glyph-name="r" unicode="r" horiz-adv-x="872" 
d="M395 0h-245q-21 0 -21 20v951q0 20 21 20h245q21 0 21 -20v-84h2q75 127 258 127q104 0 174 -60q14 -11 6 -28l-115 -209q-10 -13 -28 -4q-73 48 -144 45q-153 -6 -153 -215v-523q0 -20 -21 -20z" />
    <glyph glyph-name="s" unicode="s" horiz-adv-x="1034" 
d="M518 -23q-273 0 -450 154q-14 15 0 29l133 149q12 12 28 0q66 -51 146 -79.5t157 -28.5q76 0 115 25.5t39 68.5q0 38 -29.5 58.5t-111.5 27.5l-111 12q-157 15 -240 92.5t-83 210.5q0 147 107.5 232.5t299.5 85.5q121 0 225 -33.5t177 -89.5q15 -15 2 -31l-115 -141
q-12 -14 -29 -4q-127 80 -268 80q-61 0 -93 -22t-32 -60q0 -36 28.5 -55.5t108.5 -26.5l109 -13q330 -33 330 -301q-2 -155 -118 -247.5t-325 -92.5z" />
    <glyph glyph-name="t" unicode="t" horiz-adv-x="677" 
d="M573 -12h-108q-170 0 -242.5 78t-72.5 251v451q0 12 -13 12h-61q-9 0 -15 6t-6 15v170q0 20 21 20h61q13 0 13 13v266q0 20 20 20h244q20 0 20 -20v-266q0 -13 12 -13h127q21 0 21 -20v-170q0 -9 -6 -15t-15 -6h-127q-12 0 -12 -12v-438q0 -55 20 -77t70 -22h49
q21 0 21 -20v-203q0 -20 -21 -20z" />
    <glyph glyph-name="u" unicode="u" horiz-adv-x="1124" 
d="M975 0h-246q-20 0 -20 20v72h-2q-86 -115 -254 -115q-160 0 -247 101.5t-87 267.5v625q0 20 20 20h246q21 0 21 -20v-570q0 -82 39 -131t112 -49q72 0 112 48.5t40 131.5v570q0 20 20 20h246q20 0 20 -20v-951q0 -20 -20 -20z" />
    <glyph glyph-name="v" unicode="v" horiz-adv-x="1040" 
d="M633 0h-225q-18 0 -25 20l-352 951q-7 20 16 20h258q21 0 27 -20l192 -588h4l185 588q6 20 26 20h254q11 0 15.5 -5.5t1.5 -14.5l-353 -951q-7 -20 -24 -20z" />
    <glyph glyph-name="w" unicode="w" horiz-adv-x="1562" 
d="M1184 0h-205q-18 0 -25 20l-170 576h-4l-174 -576q-7 -20 -24 -20h-203q-18 0 -25 20l-317 951q-3 9 1 14.5t13 5.5h252q23 0 29 -20l164 -590h4l170 590q6 20 28 20h172q21 0 27 -20l174 -590h4l156 590q6 20 26 20h252q11 0 15.5 -5.5t1.5 -14.5l-318 -951
q-7 -20 -24 -20z" />
    <glyph glyph-name="x" unicode="x" horiz-adv-x="1054" 
d="M1001 0h-266q-18 0 -30 18l-179 271h-2l-176 -271q-15 -18 -33 -18h-264q-11 0 -15 6t1 14l334 494l-310 457q-5 7 -1 13.5t16 6.5h266q22 0 35 -18l149 -234h2l152 234q15 18 33 18h264q13 0 17 -6.5t-1 -13.5l-309 -457l334 -494q5 -8 0.5 -14t-17.5 -6z" />
    <glyph glyph-name="y" unicode="y" horiz-adv-x="1038" 
d="M260 -369h-70q-20 0 -20 21v201q0 20 20 20h43q54 0 85.5 23.5t50.5 78.5l26 74l-368 922q-3 9 2 14.5t14 5.5h262q18 0 25 -20l198 -574h4l185 574q7 20 24 20h254q11 0 15.5 -5.5t1.5 -14.5l-402 -1055q-62 -163 -138.5 -224t-211.5 -61z" />
    <glyph glyph-name="z" unicode="z" horiz-adv-x="1003" 
d="M889 0h-774q-21 0 -21 20v185q0 11 6 20l471 527v4h-430q-20 0 -20 20v195q0 20 20 20h748q20 0 20 -20v-195q0 -11 -6 -20l-467 -516v-4h453q20 0 20 -21v-195q0 -20 -20 -20z" />
    <glyph glyph-name="braceleft" unicode="{" horiz-adv-x="731" 
d="M653 -172h-137q-126 0 -192 64.5t-66 187.5v313q0 85 -34 125.5t-107 40.5q-9 0 -15 6t-6 15v192q0 9 6 15t15 6q73 0 107 40t34 125v306q0 123 66 187.5t192 64.5h137q9 0 15 -6t6 -15v-172q0 -20 -21 -20h-57q-86 0 -86 -89v-280q0 -114 -33.5 -171t-114.5 -85v-4
q80 -28 114 -86t34 -172v-287q0 -88 86 -88h57q9 0 15 -6t6 -15v-172q0 -20 -21 -20z" />
    <glyph glyph-name="bar" unicode="|" horiz-adv-x="686" 
d="M444 -172h-202q-21 0 -21 20v1647q0 9 6 15t15 6h202q9 0 15 -6t6 -15v-1647q0 -20 -21 -20z" />
    <glyph glyph-name="braceright" unicode="}" horiz-adv-x="731" 
d="M215 -172h-137q-21 0 -21 20v172q0 9 6 15t15 6h57q86 0 86 88v287q0 114 34 172t114 86v4q-81 28 -114.5 85t-33.5 171v280q0 89 -86 89h-57q-21 0 -21 20v172q0 9 6 15t15 6h137q126 0 192 -64.5t66 -187.5v-306q0 -85 34 -125t107 -40q9 0 15 -6t6 -15v-192
q0 -9 -6 -15t-15 -6q-73 0 -107 -40.5t-34 -125.5v-313q0 -123 -66 -187.5t-192 -64.5z" />
    <glyph glyph-name="asciitilde" unicode="~" 
d="M1044 606q-44 -98 -121.5 -156.5t-172.5 -58.5q-62 0 -109.5 17.5t-105.5 54.5q-79 51 -134 51q-43 0 -73.5 -23t-59.5 -77q-10 -17 -30 -4l-138 84q-14 9 -6 28q44 98 122 156.5t173 58.5q62 0 110 -17t105 -54q43 -28 71.5 -40t61.5 -12q43 0 73.5 23.5t59.5 77.5
q11 18 31 4l137 -84q15 -8 6 -29z" />
    <glyph glyph-name="uni00A0" unicode="&#xa0;" horiz-adv-x="483" 
 />
    <glyph glyph-name="exclamdown" unicode="&#xa1;" horiz-adv-x="638" 
d="M403 584q9 0 15 -6t6 -15l49 -944q0 -20 -20 -20h-267q-20 0 -20 20l49 944q0 9 6 15t15 6h167zM463 971v-234q0 -20 -21 -20h-245q-21 0 -21 20v234q0 20 21 20h245q21 0 21 -20z" />
    <glyph glyph-name="cent" unicode="&#xa2;" 
d="M674 1171v-159q107 -12 190 -62t131 -123q11 -18 -4 -28l-178 -117q-18 -15 -31 4q-25 34 -49.5 53.5t-58.5 26.5v-541q60 13 108 82q13 16 31 2l178 -116q18 -9 4 -27q-47 -76 -129.5 -125t-191.5 -59v-162q0 -9 -6 -15t-15 -6h-92q-20 0 -20 21v162q-138 14 -232.5 84
t-132.5 192q-31 91 -31 238q0 146 31 237q39 122 133 193t232 86v159q0 21 20 21h92q9 0 15 -6t6 -15zM436 496q0 -115 19 -168q22 -76 86 -97v529q-65 -24 -86 -94q-19 -56 -19 -170z" />
    <glyph glyph-name="sterling" unicode="&#xa3;" 
d="M985 0h-797q-20 0 -20 20v199q0 15 10 25q37 36 53.5 71t16.5 105v119q0 12 -12 12h-84q-21 0 -21 20v162q0 9 6 15t15 6h84q12 0 12 12v250q0 190 103.5 294.5t285.5 104.5q151 0 248 -77t121 -203q3 -19 -19 -23l-223 -49q-20 0 -23 18q-8 41 -34 67t-68 26
q-50 0 -76 -33.5t-26 -91.5v-283q0 -12 12 -12h248q20 0 20 -21v-162q0 -20 -20 -20h-248q-12 0 -12 -12v-88q0 -137 -54 -203v-4h502q9 0 15 -6t6 -15v-203q0 -20 -21 -20z" />
    <glyph glyph-name="currency" unicode="&#xa4;" 
d="M1065 274l-141 -141q-6 -6 -14.5 -6t-14.5 6l-123 123q-91 -51 -203 -51q-113 0 -204 51l-121 -121q-6 -6 -14.5 -6t-14.5 6l-139 141q-14 14 0 29l121 121q-47 86 -47 199q0 105 49 198l-123 123q-13 13 0 29l139 141q15 14 29 0l121 -123q94 51 204 51q112 0 203 -51
l123 123q15 14 29 0l139 -141q15 -15 0 -29l-123 -123q51 -91 51 -198q0 -109 -49 -199l123 -123q6 -6 6 -14.5t-6 -14.5zM569 416q88 0 145.5 59.5t57.5 149.5t-57.5 149.5t-145.5 59.5q-87 0 -143.5 -59.5t-56.5 -149.5t56.5 -149.5t143.5 -59.5z" />
    <glyph glyph-name="yen" unicode="&#xa5;" 
d="M692 0h-246q-20 0 -20 20v236q0 12 -12 12h-238q-20 0 -20 21v127q0 20 20 20h238q12 0 12 13v69q0 12 -12 12h-238q-20 0 -20 21v127q0 20 20 20h189v4l-304 670q-3 8 1.5 14.5t13.5 6.5h262q18 0 29 -21l204 -528h7l200 528q7 21 29 21h256q9 0 13 -6.5t1 -14.5
l-303 -670v-4h189q20 0 20 -20v-127q0 -21 -20 -21h-238q-12 0 -12 -12v-69q0 -13 12 -13h238q20 0 20 -20v-127q0 -21 -20 -21h-238q-12 0 -12 -12v-236q0 -20 -21 -20z" />
    <glyph glyph-name="brokenbar" unicode="&#xa6;" horiz-adv-x="686" 
d="M444 795h-202q-21 0 -21 20v680q0 9 6 15t15 6h202q9 0 15 -6t6 -15v-680q0 -20 -21 -20zM444 -172h-202q-21 0 -21 20v689q0 20 21 20h202q21 0 21 -20v-689q0 -20 -21 -20z" />
    <glyph glyph-name="section" unicode="&#xa7;" horiz-adv-x="1142" 
d="M565 -391q-176 0 -274 81.5t-111 209.5q-4 19 13 22l213 37q17 3 20 -14q14 -119 133 -119q63 0 98 31.5t35 85.5q0 68 -48.5 108t-174.5 72q-319 82 -319 391q0 104 48.5 186t131.5 127v2q-69 45 -100 107t-31 149q0 137 105.5 233.5t273.5 96.5q174 0 272 -86.5
t106 -208.5q3 -17 -14 -20l-209 -37q-7 -1 -13.5 4t-6.5 12q-8 54 -40.5 86.5t-88.5 32.5q-58 0 -91.5 -31t-33.5 -84q0 -66 48 -104.5t167 -69.5q319 -85 319 -391q0 -103 -51.5 -188t-128.5 -125v-2q74 -45 105.5 -109t31.5 -162q0 -138 -106 -230.5t-279 -92.5zM571 344
q74 0 118 45.5t44 126.5t-44 126.5t-118 45.5t-117.5 -45.5t-43.5 -126.5t43.5 -126.5t117.5 -45.5z" />
    <glyph glyph-name="dieresis" unicode="&#xa8;" horiz-adv-x="929" 
d="M766 1149h-191q-20 0 -20 20v203q0 21 20 21h191q20 0 20 -21v-203q0 -20 -20 -20zM354 1149h-188q-21 0 -21 20v203q0 9 6 15t15 6h188q9 0 15 -6t6 -15v-203q0 -20 -21 -20z" />
    <glyph glyph-name="copyright" unicode="&#xa9;" horiz-adv-x="1660" 
d="M829 -23q-201 0 -365.5 93.5t-258.5 258.5t-94 367q0 201 94 366t258.5 259t365.5 94q151 0 285 -55.5t229.5 -150.5t151 -228.5t55.5 -284.5t-55.5 -284.5t-151 -229t-229.5 -150.5t-285 -55zM829 141q236 0 392.5 158t156.5 397t-156.5 397t-392.5 158
q-235 0 -390.5 -158t-155.5 -397t155.5 -397t390.5 -158zM850 295q-128 0 -218 57t-126 168q-21 68 -21 176q0 106 21 178q36 109 126.5 167.5t217.5 58.5q95 0 172.5 -39t120.5 -103q12 -16 -6 -28l-133 -86q-6 -6 -14 -4t-13 8q-51 65 -123 65q-48 0 -83 -24t-48 -68
q-12 -35 -12 -125t12 -125q13 -42 48 -66t83 -24q71 0 123 64q4 7 12.5 9t14.5 -3l133 -88q19 -10 6 -27q-42 -64 -119.5 -102.5t-173.5 -38.5z" />
    <glyph glyph-name="ordfeminine" unicode="&#xaa;" horiz-adv-x="729" 
d="M627 803h-158q-20 0 -20 20v27h-3q-54 -57 -167 -57q-89 0 -149 45t-60 133q0 96 68.5 146t195.5 50h100q12 0 12 13v12q0 29 -26.5 43t-91.5 14q-73 0 -135 -32q-19 -11 -29 6l-62 104q-10 17 9 29q89 53 241 53q159 0 227 -50.5t68 -164.5v-371q0 -20 -20 -20zM338 938
q108 0 108 72v16q0 12 -12 12h-86q-82 0 -82 -51q0 -49 72 -49z" />
    <glyph glyph-name="guillemotleft" unicode="&#xab;" horiz-adv-x="1153" 
d="M1008 78l-451 448q-6 6 -6 14.5t6 14.5l451 449q6 6 13 3t7 -12v-239q0 -21 -20 -41l-168 -166q-8 -9 0 -17l168 -165q20 -20 20 -41v-240q0 -9 -7 -11.5t-13 3.5zM508 78l-451 448q-6 6 -6 14.5t6 14.5l451 449q6 6 13 3t7 -12v-239q0 -21 -20 -41l-168 -166
q-8 -9 0 -17l168 -165q20 -20 20 -41v-240q0 -9 -7 -11.5t-13 3.5z" />
    <glyph glyph-name="logicalnot" unicode="&#xac;" 
d="M1014 172h-209q-9 0 -15 6t-6 15v239q0 12 -12 12h-647q-9 0 -15 6t-6 15v201q0 20 21 20h889q20 0 20 -20v-473q0 -21 -20 -21z" />
    <glyph glyph-name="uni00AD" unicode="&#xad;" horiz-adv-x="802" 
d="M696 418h-590q-20 0 -20 20v209q0 21 20 21h590q9 0 15 -6t6 -15v-209q0 -20 -21 -20z" />
    <glyph glyph-name="registered" unicode="&#xae;" horiz-adv-x="901" 
d="M451 616q-167 0 -280.5 113.5t-113.5 280.5q0 166 113.5 278.5t280.5 112.5t280 -112.5t113 -278.5q0 -167 -113 -280.5t-280 -113.5zM451 698q132 0 218.5 88t86.5 224q0 135 -86.5 222t-218.5 87t-219 -87t-87 -222q0 -136 87 -224t219 -88zM383 795h-86q-14 0 -14 14
v405q0 15 14 15h180q78 0 121 -36.5t43 -102.5q0 -87 -80 -123l82 -158q7 -14 -10 -14h-92q-15 0 -21 14l-69 143h-45q-9 0 -9 -10v-133q0 -14 -14 -14zM471 1044q57 0 57 46q0 45 -57 45h-65q-9 0 -9 -9v-73q0 -9 9 -9h65z" />
    <glyph glyph-name="macron" unicode="&#xaf;" horiz-adv-x="929" 
d="M754 1178h-580q-20 0 -20 20v154q0 20 20 20h580q20 0 20 -20v-154q0 -20 -20 -20z" />
    <glyph glyph-name="degree" unicode="&#xb0;" horiz-adv-x="897" 
d="M449 793q-135 0 -224.5 89.5t-89.5 223.5t89.5 222.5t224.5 88.5q134 0 223.5 -89t89.5 -222q0 -134 -90 -223.5t-223 -89.5zM449 956q62 0 101.5 42.5t39.5 107.5t-39 106t-102 41t-102.5 -41t-39.5 -106t39.5 -107.5t102.5 -42.5z" />
    <glyph glyph-name="plusminus" unicode="&#xb1;" 
d="M674 348h-209q-9 0 -15 6t-6 15v309q0 12 -12 12h-307q-9 0 -15 6t-6 15v200q0 9 6 15t15 6h307q12 0 12 12v309q0 9 6 15t15 6h209q20 0 20 -21v-309q0 -12 13 -12h307q20 0 20 -21v-200q0 -21 -20 -21h-307q-13 0 -13 -12v-309q0 -21 -20 -21zM1014 0h-889
q-21 0 -21 20v201q0 9 6 15t15 6h889q20 0 20 -21v-201q0 -20 -20 -20z" />
    <glyph glyph-name="twosuperior" unicode="&#xb2;" horiz-adv-x="733" 
d="M633 881h-535q-20 0 -20 20v135q0 22 16 35l295 301q51 55 51 103q0 34 -19.5 54.5t-55.5 20.5q-72 0 -84 -77q-3 -22 -23 -19l-162 27q-19 3 -16 22q7 88 84.5 157t208.5 69q124 0 202 -69.5t78 -182.5q0 -116 -100 -211l-197 -201v-2h277q20 0 20 -21v-141
q0 -20 -20 -20z" />
    <glyph glyph-name="threesuperior" unicode="&#xb3;" horiz-adv-x="733" 
d="M371 864q-119 0 -200 51t-101 148q-4 21 14 24l158 31q18 3 26 -14q28 -62 94 -62q41 0 66 24t25 62q0 42 -27 65.5t-76 23.5h-35q-20 0 -20 20v135q0 21 20 21h29q42 0 66 19.5t24 57.5t-21 59t-59 21q-59 0 -82 -51q-7 -17 -26 -14l-154 28q-17 3 -14 23
q20 86 93.5 139.5t190.5 53.5q134 0 209.5 -65.5t75.5 -172.5q0 -102 -86 -168v-2q42 -20 73.5 -70.5t31.5 -122.5q0 -120 -80.5 -192t-214.5 -72z" />
    <glyph glyph-name="acute" unicode="&#xb4;" horiz-adv-x="929" 
d="M444 1128h-186q-9 0 -12.5 6t0.5 15l157 266q12 21 37 21h236q9 0 12.5 -7t-2.5 -14l-203 -266q-16 -21 -39 -21z" />
    <glyph glyph-name="mu" unicode="&#xb5;" horiz-adv-x="1232" 
d="M778 125q-44 -79 -101.5 -109t-150.5 -30q-29 0 -61 8.5t-49 21.5h-2v-364q0 -9 -6 -15t-15 -6h-246q-20 0 -20 21v1319q0 20 20 20h246q21 0 21 -20v-568q0 -85 38.5 -132.5t112.5 -47.5q77 0 122.5 52t45.5 147v549q0 20 21 20h245q21 0 21 -20v-670q0 -38 12.5 -54
t46.5 -16q21 0 21 -20v-193q0 -30 -23 -30h-35q-68 0 -114.5 9.5t-74.5 30t-43 41.5t-30 56h-2z" />
    <glyph glyph-name="paragraph" unicode="&#xb6;" horiz-adv-x="1345" 
d="M1165 -369h-196q-9 0 -15 6t-6 15v1515q0 13 -12 13h-141q-13 0 -13 -13v-1515q0 -21 -20 -21h-197q-20 0 -20 21v835q-186 12 -303 138t-117 315q0 197 129.5 325t351.5 128h559q9 0 15 -6t6 -15v-1720q0 -9 -6 -15t-15 -6z" />
    <glyph glyph-name="periodcentered" unicode="&#xb7;" horiz-adv-x="530" 
d="M387 399h-244q-20 0 -20 21v244q0 20 20 20h244q21 0 21 -20v-244q0 -9 -6 -15t-15 -6z" />
    <glyph glyph-name="cedilla" unicode="&#xb8;" horiz-adv-x="929" 
d="M510 -328h-199q-9 0 -13 6t-1 15l125 307q9 20 29 20h172q9 0 13 -5.5t1 -14.5l-94 -307q-6 -21 -33 -21z" />
    <glyph glyph-name="onesuperior" unicode="&#xb9;" horiz-adv-x="733" 
d="M506 881h-176q-21 0 -21 20v578h-4l-131 -82q-7 -4 -13.5 0.5t-6.5 13.5v172q0 21 18 31l127 84q20 14 35 14h172q20 0 20 -20v-791q0 -20 -20 -20z" />
    <glyph glyph-name="ordmasculine" unicode="&#xba;" horiz-adv-x="761" 
d="M381 786q-232 0 -291 181q-18 53 -18 131t18 131q59 180 291 180t291 -180q18 -52 18 -131q0 -78 -18 -131q-59 -181 -291 -181zM381 958q66 0 86 58q10 27 10 82t-10 82q-20 57 -86 57t-86 -57q-10 -27 -10 -82t10 -82q20 -58 86 -58z" />
    <glyph glyph-name="guillemotright" unicode="&#xbb;" horiz-adv-x="1153" 
d="M645 78q-6 -6 -13 -3.5t-7 11.5v240q0 21 20 41l168 165q9 8 0 17l-168 166q-20 20 -20 41v239q0 9 7 12t13 -3l451 -449q14 -15 0 -29zM145 78q-6 -6 -13 -3.5t-7 11.5v240q0 21 20 41l168 165q9 8 0 17l-168 166q-20 20 -20 41v239q0 9 7 12t13 -3l453 -449
q14 -15 0 -29z" />
    <glyph glyph-name="onequarter" unicode="&#xbc;" horiz-adv-x="1787" 
d="M530 561h-176q-20 0 -20 21v577h-4l-131 -82q-7 -4 -14 1t-7 14v172q0 19 19 30l127 84q21 15 34 15h172q9 0 15 -6t6 -15v-790q0 -9 -6 -15t-15 -6zM1526 0h-162q-21 0 -21 20v82q0 13 -12 13h-336q-20 0 -20 20v141q0 15 10 35l236 500q10 20 28 20h187q9 0 12.5 -5.5
t-0.5 -14.5l-240 -514v-2h123q12 0 12 12v142q0 20 21 20h162q20 0 20 -20v-142q0 -12 13 -12h30q9 0 15 -6t6 -15v-139q0 -20 -21 -20h-30q-13 0 -13 -13v-82q0 -20 -20 -20zM539 -23h-172q-9 0 -12.5 6.5t1.5 14.5l809 1397q11 20 33 20h172q9 0 12 -6.5t-2 -13.5
l-809 -1397q-12 -21 -32 -21z" />
    <glyph glyph-name="onehalf" unicode="&#xbd;" horiz-adv-x="1857" 
d="M530 561h-176q-20 0 -20 21v577h-4l-131 -82q-7 -4 -14 1t-7 14v172q0 19 19 30l127 84q21 15 34 15h172q9 0 15 -6t6 -15v-790q0 -9 -6 -15t-15 -6zM1657 0h-535q-20 0 -20 20v136q0 21 16 34l295 302q51 55 51 102q0 35 -19.5 55.5t-55.5 20.5q-72 0 -84 -78
q-3 -22 -23 -19l-162 27q-19 3 -16 23q7 87 84.5 156t208.5 69q124 0 202 -69.5t78 -182.5q0 -116 -100 -211l-197 -201v-2h277q20 0 20 -20v-142q0 -20 -20 -20zM539 -23h-172q-9 0 -12.5 6.5t1.5 14.5l809 1397q11 20 33 20h172q9 0 12 -6.5t-2 -13.5l-809 -1397
q-12 -21 -32 -21z" />
    <glyph glyph-name="threequarters" unicode="&#xbe;" horiz-adv-x="1927" 
d="M1663 0h-162q-20 0 -20 20v82q0 13 -13 13h-335q-21 0 -21 20v141q0 15 10 35l236 500q10 20 28 20h187q9 0 12.5 -5.5t-0.5 -14.5l-239 -514v-2h122q13 0 13 12v142q0 20 20 20h162q20 0 20 -20v-142q0 -12 13 -12h30q9 0 15 -6t6 -15v-139q0 -20 -21 -20h-30
q-13 0 -13 -13v-82q0 -20 -20 -20zM481 545q-119 0 -200 50.5t-101 147.5q-4 22 15 25l157 31q18 3 27 -15q28 -61 94 -61q41 0 65.5 23.5t24.5 62.5q0 42 -26.5 65t-75.5 23h-35q-20 0 -20 21v135q0 20 20 20h29q42 0 66 20t24 58t-21 59t-59 21q-59 0 -82 -51
q-8 -18 -27 -15l-153 29q-18 3 -15 23q20 86 94 139t191 53q134 0 209.5 -65.5t75.5 -172.5q0 -101 -86 -167v-3q42 -20 73 -70t31 -122q0 -120 -80.5 -192t-214.5 -72zM680 -23h-172q-9 0 -12 6.5t2 14.5l809 1397q11 20 32 20h172q9 0 12.5 -6.5t-1.5 -13.5l-809 -1397
q-12 -21 -33 -21z" />
    <glyph glyph-name="questiondown" unicode="&#xbf;" horiz-adv-x="968" 
d="M625 584q20 0 20 -21v-86q0 -57 -13.5 -94.5t-45.5 -77.5l-144 -186q-77 -92 -77 -164q0 -60 36.5 -97.5t98.5 -37.5q124 0 153 143q6 22 27 19l221 -33q21 -3 17 -25q-24 -160 -136 -254t-290 -94q-181 0 -296.5 105.5t-115.5 263.5q0 76 26 138.5t82 127.5l138 180
q24 29 32.5 54.5t8.5 68.5v49q0 21 20 21h238zM649 971v-234q0 -20 -20 -20h-246q-21 0 -21 20v234q0 20 21 20h246q20 0 20 -20z" />
    <glyph glyph-name="Agrave" unicode="&#xc0;" horiz-adv-x="1318" 
d="M29 20l479 1352q7 21 27 21h258q19 0 26 -21l471 -1352q7 -20 -14 -20h-266q-21 0 -27 20l-80 244h-487l-78 -244q-6 -20 -27 -20h-268q-21 0 -14 20zM500 520h321l-157 488h-7zM758 1544h-191q-20 0 -39 19l-252 237q-7 8 -3 14.5t14 6.5h245q22 0 39 -21l195 -235
q6 -7 3.5 -14t-11.5 -7z" />
    <glyph glyph-name="Aacute" unicode="&#xc1;" horiz-adv-x="1318" 
d="M29 20l479 1352q7 21 27 21h258q19 0 26 -21l471 -1352q7 -20 -14 -20h-266q-21 0 -27 20l-80 244h-487l-78 -244q-6 -20 -27 -20h-268q-21 0 -14 20zM500 520h321l-157 488h-7zM756 1544h-191q-9 0 -11.5 7t3.5 14l195 235q18 21 39 21h245q10 0 14 -6.5t-3 -14.5
l-252 -237q-19 -19 -39 -19z" />
    <glyph glyph-name="Acircumflex" unicode="&#xc2;" horiz-adv-x="1318" 
d="M29 20l479 1352q7 21 27 21h258q19 0 26 -21l471 -1352q7 -20 -14 -20h-266q-21 0 -27 20l-80 244h-487l-78 -244q-6 -20 -27 -20h-268q-21 0 -14 20zM500 520h321l-157 488h-7zM977 1530h-164q-25 0 -45 20l-109 111h-4l-106 -111q-20 -20 -45 -20h-164q-9 0 -11.5 6
t3.5 14l211 269q14 20 39 20h153q23 0 37 -20l213 -269q6 -8 3.5 -14t-11.5 -6z" />
    <glyph glyph-name="Atilde" unicode="&#xc3;" horiz-adv-x="1318" 
d="M29 20l479 1352q7 21 27 21h258q19 0 26 -21l471 -1352q7 -20 -14 -20h-266q-21 0 -27 20l-80 244h-487l-78 -244q-6 -20 -27 -20h-268q-21 0 -14 20zM500 520h321l-157 488h-7zM788 1532q-69 0 -153 43q-63 37 -119 37q-40 0 -72 -16t-73 -48q-7 -6 -13 -4t-6 8v148
q0 23 17 43q72 72 157 72q70 0 154 -43q66 -37 119 -37q40 0 72 15.5t73 47.5q8 6 14.5 4t6.5 -8v-147q0 -24 -19 -43q-69 -72 -158 -72z" />
    <glyph glyph-name="Adieresis" unicode="&#xc4;" horiz-adv-x="1318" 
d="M29 20l479 1352q7 21 27 21h258q19 0 26 -21l471 -1352q7 -20 -14 -20h-266q-21 0 -27 20l-80 244h-487l-78 -244q-6 -20 -27 -20h-268q-21 0 -14 20zM500 520h321l-157 488h-7zM958 1556h-184q-20 0 -20 21v201q0 20 20 20h184q21 0 21 -20v-201q0 -9 -6 -15t-15 -6z
M543 1556h-185q-20 0 -20 21v201q0 20 20 20h185q20 0 20 -20v-201q0 -21 -20 -21z" />
    <glyph glyph-name="Aring" unicode="&#xc5;" horiz-adv-x="1318" 
d="M29 20l479 1352q7 21 27 21h258q19 0 26 -21l471 -1352q7 -20 -14 -20h-266q-21 0 -27 20l-80 244h-487l-78 -244q-6 -20 -27 -20h-268q-21 0 -14 20zM500 520h321l-157 488h-7zM659 1458q-94 0 -156.5 62.5t-62.5 156.5t62.5 155.5t156.5 61.5t157 -62t63 -155
q0 -94 -63 -156.5t-157 -62.5zM659 1579q40 0 67.5 28t27.5 70q0 41 -27.5 70t-67.5 29q-41 0 -68.5 -28.5t-27.5 -70.5q0 -43 27.5 -70.5t68.5 -27.5z" />
    <glyph glyph-name="AE" unicode="&#xc6;" horiz-adv-x="1902" 
d="M1792 0h-893q-20 0 -20 20v232q0 12 -13 12h-393l-113 -244q-9 -20 -28 -20h-289q-9 0 -12.5 5.5t0.5 14.5l649 1352q10 21 29 21h1083q20 0 20 -21v-219q0 -20 -20 -20h-600q-12 0 -12 -13v-276q0 -13 12 -13h500q20 0 20 -20v-217q0 -21 -20 -21h-500q-12 0 -12 -12
v-289q0 -12 12 -12h600q20 0 20 -20v-220q0 -20 -20 -20zM872 1133l-282 -613h276q13 0 13 12v601h-7z" />
    <glyph glyph-name="Ccedilla" unicode="&#xc7;" horiz-adv-x="1177" 
d="M610 -328h-198q-9 0 -13.5 6t-1.5 15l119 295q-147 27 -240.5 107t-140.5 224q-23 68 -31 142.5t-8 234.5t8 234.5t31 142.5q55 168 183 255t313 87q176 0 301 -80.5t184 -228.5q11 -18 -10 -25l-223 -100q-19 -10 -29 10q-68 158 -221 158q-159 0 -209 -154
q-13 -41 -18 -99.5t-5 -199.5t5 -199.5t18 -99.5q49 -153 209 -153q153 0 221 157q10 20 29 11l223 -101q20 -7 10 -24q-50 -123 -147.5 -200.5t-235.5 -100.5l-90 -293q-6 -21 -33 -21z" />
    <glyph glyph-name="Egrave" unicode="&#xc8;" horiz-adv-x="1157" 
d="M737 1544h-190q-20 0 -39 19l-252 237q-7 8 -3 14.5t13 6.5h246q22 0 39 -21l194 -235q6 -7 3.5 -14t-11.5 -7zM133 20v1352q0 9 6 15t15 6h893q20 0 20 -21v-219q0 -20 -20 -20h-601q-12 0 -12 -13v-276q0 -13 12 -13h500q21 0 21 -20v-217q0 -9 -6 -15t-15 -6h-500
q-12 0 -12 -12v-289q0 -12 12 -12h601q20 0 20 -20v-220q0 -20 -20 -20h-893q-21 0 -21 20z" />
    <glyph glyph-name="Eacute" unicode="&#xc9;" horiz-adv-x="1157" 
d="M629 1544h-191q-9 0 -11.5 7t3.5 14l195 235q17 21 39 21h245q10 0 14 -6.5t-3 -14.5l-252 -237q-19 -19 -39 -19zM133 20v1352q0 9 6 15t15 6h893q20 0 20 -21v-219q0 -20 -20 -20h-601q-12 0 -12 -13v-276q0 -13 12 -13h500q21 0 21 -20v-217q0 -9 -6 -15t-15 -6h-500
q-12 0 -12 -12v-289q0 -12 12 -12h601q20 0 20 -20v-220q0 -20 -20 -20h-893q-21 0 -21 20z" />
    <glyph glyph-name="Ecircumflex" unicode="&#xca;" horiz-adv-x="1157" 
d="M133 20v1352q0 9 6 15t15 6h893q20 0 20 -21v-219q0 -20 -20 -20h-601q-12 0 -12 -13v-276q0 -13 12 -13h500q21 0 21 -20v-217q0 -9 -6 -15t-15 -6h-500q-12 0 -12 -12v-289q0 -12 12 -12h601q20 0 20 -20v-220q0 -20 -20 -20h-893q-21 0 -21 20zM920 1530h-164
q-25 0 -45 20l-109 111h-4l-106 -111q-20 -20 -46 -20h-163q-9 0 -12 6t3 14l211 269q14 20 39 20h154q23 0 37 -20l213 -269q6 -8 3.5 -14t-11.5 -6z" />
    <glyph glyph-name="Edieresis" unicode="&#xcb;" horiz-adv-x="1157" 
d="M899 1556h-184q-9 0 -15 6t-6 15v201q0 20 21 20h184q21 0 21 -20v-201q0 -9 -6 -15t-15 -6zM483 1556h-184q-20 0 -20 21v201q0 20 20 20h184q21 0 21 -20v-201q0 -9 -6 -15t-15 -6zM133 20v1352q0 9 6 15t15 6h893q20 0 20 -21v-219q0 -20 -20 -20h-601q-12 0 -12 -13
v-276q0 -13 12 -13h500q21 0 21 -20v-217q0 -9 -6 -15t-15 -6h-500q-12 0 -12 -12v-289q0 -12 12 -12h601q20 0 20 -20v-220q0 -20 -20 -20h-893q-21 0 -21 20z" />
    <glyph glyph-name="Igrave" unicode="&#xcc;" horiz-adv-x="567" 
d="M133 20v1352q0 9 6 15t15 6h260q20 0 20 -21v-1352q0 -20 -20 -20h-260q-21 0 -21 20zM391 1544h-190q-20 0 -39 19l-252 237q-7 8 -3 14.5t13 6.5h246q22 0 39 -21l194 -235q6 -7 3.5 -14t-11.5 -7z" />
    <glyph glyph-name="Iacute" unicode="&#xcd;" horiz-adv-x="567" 
d="M133 20v1352q0 9 6 15t15 6h260q20 0 20 -21v-1352q0 -20 -20 -20h-260q-21 0 -21 20zM375 1544h-191q-9 0 -11.5 7t3.5 14l195 235q18 21 39 21h245q10 0 14 -6.5t-3 -14.5l-252 -237q-19 -19 -39 -19z" />
    <glyph glyph-name="Icircumflex" unicode="&#xce;" horiz-adv-x="567" 
d="M133 20v1352q0 9 6 15t15 6h260q20 0 20 -21v-1352q0 -20 -20 -20h-260q-21 0 -21 20zM602 1530h-164q-25 0 -45 20l-108 111h-4l-107 -111q-20 -20 -45 -20h-164q-9 0 -11.5 6t3.5 14l211 269q14 20 39 20h153q23 0 37 -20l213 -269q6 -8 3.5 -14t-11.5 -6z" />
    <glyph glyph-name="Idieresis" unicode="&#xcf;" horiz-adv-x="567" 
d="M133 20v1352q0 9 6 15t15 6h260q20 0 20 -21v-1352q0 -20 -20 -20h-260q-21 0 -21 20zM584 1556h-185q-20 0 -20 21v201q0 20 20 20h185q20 0 20 -20v-201q0 -21 -20 -21zM168 1556h-184q-9 0 -15 6t-6 15v201q0 20 21 20h184q20 0 20 -20v-201q0 -21 -20 -21z" />
    <glyph glyph-name="Eth" unicode="&#xd0;" horiz-adv-x="1286" 
d="M672 0h-518q-21 0 -21 20v560q0 12 -12 12h-51q-21 0 -21 20v181q0 20 21 20h51q12 0 12 12v547q0 9 6 15t15 6h518q185 0 307.5 -79t173.5 -235q20 -63 28.5 -142t8.5 -241t-8.5 -241t-28.5 -142q-51 -155 -173.5 -234t-307.5 -79zM604 268q107 0 169.5 35.5t88.5 118.5
q23 67 23 274q0 208 -23 275q-26 83 -88 118t-170 35h-158q-12 0 -12 -12v-287q0 -12 12 -12h170q21 0 21 -20v-181q0 -20 -21 -20h-170q-12 0 -12 -12v-299q0 -13 12 -13h158z" />
    <glyph glyph-name="Ntilde" unicode="&#xd1;" horiz-adv-x="1341" 
d="M801 1532q-70 0 -154 43q-63 37 -119 37q-40 0 -72 -16t-73 -48q-7 -6 -12.5 -4t-5.5 8v148q0 24 16 43q72 72 158 72q69 0 153 -43q66 -37 119 -37q40 0 72 15.5t73 47.5q8 6 14.5 4t6.5 -8v-147q0 -24 -19 -43q-69 -72 -157 -72zM133 20v1352q0 9 6 15t15 6h245
q23 0 35 -21l492 -876h10v876q0 21 20 21h232q20 0 20 -21v-1352q0 -20 -20 -20h-244q-24 0 -35 20l-493 875h-10v-875q0 -20 -21 -20h-231q-21 0 -21 20z" />
    <glyph glyph-name="Ograve" unicode="&#xd2;" horiz-adv-x="1286" 
d="M770 1544h-190q-20 0 -39 19l-252 237q-7 8 -3 14.5t13 6.5h246q21 0 39 -21l194 -235q6 -7 3.5 -14t-11.5 -7zM643 -23q-187 0 -321 86.5t-187 251.5q-23 72 -31 149t-8 232t8 232t31 149q53 165 187 251.5t321 86.5t321 -86.5t187 -251.5q23 -72 31 -149t8 -232
t-8 -232t-31 -149q-53 -165 -187 -251.5t-321 -86.5zM643 244q170 0 219 153q23 70 23 299t-23 299q-50 154 -219 154t-219 -154q-23 -70 -23 -299t23 -299q49 -153 219 -153z" />
    <glyph glyph-name="Oacute" unicode="&#xd3;" horiz-adv-x="1286" 
d="M705 1544h-191q-9 0 -11.5 7t3.5 14l194 235q18 21 39 21h246q9 0 13 -6.5t-3 -14.5l-252 -237q-19 -19 -38 -19zM643 -23q-187 0 -321 86.5t-187 251.5q-23 72 -31 149t-8 232t8 232t31 149q53 165 187 251.5t321 86.5t321 -86.5t187 -251.5q23 -72 31 -149t8 -232
t-8 -232t-31 -149q-53 -165 -187 -251.5t-321 -86.5zM643 244q170 0 219 153q23 70 23 299t-23 299q-50 154 -219 154t-219 -154q-23 -70 -23 -299t23 -299q49 -153 219 -153z" />
    <glyph glyph-name="Ocircumflex" unicode="&#xd4;" horiz-adv-x="1286" 
d="M643 -23q-187 0 -321 86.5t-187 251.5q-23 72 -31 149t-8 232t8 232t31 149q53 165 187 251.5t321 86.5t321 -86.5t187 -251.5q23 -72 31 -149t8 -232t-8 -232t-31 -149q-53 -165 -187 -251.5t-321 -86.5zM643 244q170 0 219 153q23 70 23 299t-23 299q-50 154 -219 154
t-219 -154q-23 -70 -23 -299t23 -299q49 -153 219 -153zM961 1530h-164q-25 0 -45 20l-109 111h-4l-107 -111q-20 -20 -45 -20h-163q-9 0 -12 6t3 14l211 269q14 20 39 20h154q23 0 37 -20l213 -269q6 -8 3.5 -14t-11.5 -6z" />
    <glyph glyph-name="Otilde" unicode="&#xd5;" horiz-adv-x="1286" 
d="M772 1532q-70 0 -154 43q-63 37 -118 37q-40 0 -72.5 -16t-73.5 -48q-8 -6 -13 -4t-5 8v148q0 24 16 43q72 72 158 72q70 0 154 -43q66 -37 118 -37q40 0 73 16t73 47q8 6 14 4t6 -8v-147q0 -25 -18 -43q-69 -72 -158 -72zM643 -23q-187 0 -321 86.5t-187 251.5
q-23 72 -31 149t-8 232t8 232t31 149q53 165 187 251.5t321 86.5t321 -86.5t187 -251.5q23 -72 31 -149t8 -232t-8 -232t-31 -149q-53 -165 -187 -251.5t-321 -86.5zM643 244q170 0 219 153q23 70 23 299t-23 299q-50 154 -219 154t-219 -154q-23 -70 -23 -299t23 -299
q49 -153 219 -153z" />
    <glyph glyph-name="Odieresis" unicode="&#xd6;" horiz-adv-x="1286" 
d="M942 1556h-184q-9 0 -15 6t-6 15v201q0 20 21 20h184q21 0 21 -20v-201q0 -9 -6 -15t-15 -6zM526 1556h-184q-20 0 -20 21v201q0 20 20 20h184q21 0 21 -20v-201q0 -9 -6 -15t-15 -6zM643 -23q-187 0 -321 86.5t-187 251.5q-23 72 -31 149t-8 232t8 232t31 149
q53 165 187 251.5t321 86.5t321 -86.5t187 -251.5q23 -72 31 -149t8 -232t-8 -232t-31 -149q-53 -165 -187 -251.5t-321 -86.5zM643 244q170 0 219 153q23 70 23 299t-23 299q-50 154 -219 154t-219 -154q-23 -70 -23 -299t23 -299q49 -153 219 -153z" />
    <glyph glyph-name="multiply" unicode="&#xd7;" 
d="M983 289l-137 -137q-6 -8 -14.5 -8t-14.5 8l-239 237q-8 9 -17 0l-242 -237q-14 -17 -28 0l-137 137q-14 14 0 28l239 240q8 8 0 16l-239 240q-14 15 0 29l139 139q6 6 14.5 6t14.5 -6l239 -240q9 -9 19 0l237 240q6 6 14.5 6t14.5 -6l137 -137q13 -16 0 -29l-238 -240
q-9 -9 0 -18l238 -240q14 -14 0 -28z" />
    <glyph glyph-name="Oslash" unicode="&#xd8;" horiz-adv-x="1286" 
d="M246 -61h-144q-9 0 -12 6.5t2 13.5l125 199q-57 74 -82 157q-23 72 -31 149t-8 232t8 232t31 149q53 165 187 251.5t321 86.5q177 0 305 -78l62 99q11 18 30 18h144q9 0 12 -6t-2 -14l-125 -201q50 -61 82 -156q23 -72 31 -149t8 -232t-8 -232t-31 -149
q-53 -165 -187 -251.5t-321 -86.5q-180 0 -305 76l-62 -96q-11 -18 -30 -18zM397 696q0 -157 11 -243l387 649q-62 49 -152 49q-84 0 -141 -41t-82 -115q-23 -76 -23 -299zM643 242q84 0 141 40.5t82 114.5q23 76 23 299q0 162 -10 240l-387 -647q59 -47 151 -47z" />
    <glyph glyph-name="Ugrave" unicode="&#xd9;" horiz-adv-x="1320" 
d="M784 1544h-190q-20 0 -39 19l-252 237q-7 8 -3 14.5t13 6.5h246q21 0 39 -21l195 -235q6 -7 3 -14t-12 -7zM662 -23q-241 0 -388 140.5t-147 394.5v860q0 21 20 21h261q20 0 20 -21v-868q0 -123 63.5 -191.5t170.5 -68.5q106 0 168.5 68.5t62.5 191.5v868q0 21 20 21h261
q20 0 20 -21v-860q0 -254 -146.5 -394.5t-385.5 -140.5z" />
    <glyph glyph-name="Uacute" unicode="&#xda;" horiz-adv-x="1320" 
d="M731 1544h-190q-9 0 -12 7t3 14l195 235q17 21 39 21h246q9 0 13 -6.5t-3 -14.5l-252 -237q-19 -19 -39 -19zM662 -23q-241 0 -388 140.5t-147 394.5v860q0 21 20 21h261q20 0 20 -21v-868q0 -123 63.5 -191.5t170.5 -68.5q106 0 168.5 68.5t62.5 191.5v868q0 21 20 21
h261q20 0 20 -21v-860q0 -254 -146.5 -394.5t-385.5 -140.5z" />
    <glyph glyph-name="Ucircumflex" unicode="&#xdb;" horiz-adv-x="1320" 
d="M662 -23q-241 0 -388 140.5t-147 394.5v860q0 21 20 21h261q20 0 20 -21v-868q0 -123 63.5 -191.5t170.5 -68.5q106 0 168.5 68.5t62.5 191.5v868q0 21 20 21h261q20 0 20 -21v-860q0 -254 -146.5 -394.5t-385.5 -140.5zM977 1530h-164q-25 0 -45 20l-109 111h-4
l-106 -111q-20 -20 -45 -20h-164q-9 0 -11.5 6t3.5 14l211 269q14 20 39 20h153q23 0 37 -20l213 -269q6 -8 3.5 -14t-11.5 -6z" />
    <glyph glyph-name="Udieresis" unicode="&#xdc;" horiz-adv-x="1320" 
d="M961 1556h-185q-20 0 -20 21v201q0 20 20 20h185q20 0 20 -20v-201q0 -21 -20 -21zM545 1556h-185q-20 0 -20 21v201q0 20 20 20h185q20 0 20 -20v-201q0 -21 -20 -21zM662 -23q-241 0 -388 140.5t-147 394.5v860q0 21 20 21h261q20 0 20 -21v-868q0 -123 63.5 -191.5
t170.5 -68.5q106 0 168.5 68.5t62.5 191.5v868q0 21 20 21h261q20 0 20 -21v-860q0 -254 -146.5 -394.5t-385.5 -140.5z" />
    <glyph glyph-name="Yacute" unicode="&#xdd;" horiz-adv-x="1163" 
d="M711 0h-260q-21 0 -21 20v535l-412 817q-3 8 1 14.5t14 6.5h266q22 0 31 -21l252 -508h6l252 508q9 21 30 21h258q10 0 15 -6.5t0 -14.5l-412 -817v-535q0 -20 -20 -20zM666 1544h-191q-9 0 -11.5 7t3.5 14l195 235q18 21 38 21h246q9 0 13 -6.5t-3 -14.5l-251 -237
q-19 -19 -39 -19z" />
    <glyph glyph-name="Thorn" unicode="&#xde;" horiz-adv-x="1239" 
d="M414 0h-260q-21 0 -21 20v1352q0 9 6 15t15 6h260q20 0 20 -21v-188q0 -13 12 -13h248q225 0 355.5 -123t130.5 -325q0 -200 -131.5 -323.5t-354.5 -123.5h-248q-12 0 -12 -12v-244q0 -20 -20 -20zM676 537q95 0 149 50.5t54 135.5q0 86 -54.5 137t-148.5 51h-230
q-12 0 -12 -12v-350q0 -12 12 -12h230z" />
    <glyph glyph-name="germandbls" unicode="&#xdf;" horiz-adv-x="1150" 
d="M657 -8h-71q-21 0 -21 20v195q0 20 21 20h51q55 0 85.5 18t45.5 62q8 24 8 156q0 133 -10 164q-27 90 -150 90h-28q-21 0 -21 20v193q0 20 21 20h49q121 0 121 113q0 117 -162 117q-95 0 -137.5 -43.5t-42.5 -137.5v-979q0 -20 -21 -20h-245q-21 0 -21 20v973
q0 422 463 422q216 0 333 -89.5t117 -252.5q0 -149 -114 -229v-4q83 -47 110 -138q25 -80 25 -241q0 -113 -6 -167t-21 -99q-35 -107 -127 -155t-252 -48z" />
    <glyph glyph-name="agrave" unicode="&#xe0;" horiz-adv-x="1081" 
d="M938 0h-227q-21 0 -21 20v66h-2q-84 -109 -272 -109q-142 0 -236 77t-94 227q0 159 110 239t302 80h176q12 0 12 12v37q0 72 -44 103.5t-159 31.5q-136 0 -221 -63q-16 -13 -26 4l-93 162q-9 18 7 28q141 99 368 99q239 0 339.5 -85t100.5 -274v-635q0 -20 -20 -20z
M502 193q184 0 184 137v67q0 13 -12 13h-139q-91 0 -134 -27.5t-43 -85.5q0 -104 144 -104zM700 1128h-188q-23 0 -39 21l-203 266q-6 7 -2 14t13 7h237q25 0 37 -21l156 -266q4 -9 1 -15t-12 -6z" />
    <glyph glyph-name="aacute" unicode="&#xe1;" horiz-adv-x="1081" 
d="M938 0h-227q-21 0 -21 20v66h-2q-84 -109 -272 -109q-142 0 -236 77t-94 227q0 159 110 239t302 80h176q12 0 12 12v37q0 72 -44 103.5t-159 31.5q-136 0 -221 -63q-16 -13 -26 4l-93 162q-9 18 7 28q141 99 368 99q239 0 339.5 -85t100.5 -274v-635q0 -20 -20 -20z
M502 193q184 0 184 137v67q0 13 -12 13h-139q-91 0 -134 -27.5t-43 -85.5q0 -104 144 -104zM610 1128h-186q-9 0 -12.5 6t0.5 15l157 266q12 21 37 21h236q9 0 12.5 -7t-2.5 -14l-203 -266q-16 -21 -39 -21z" />
    <glyph glyph-name="acircumflex" unicode="&#xe2;" horiz-adv-x="1081" 
d="M938 0h-227q-21 0 -21 20v66h-2q-84 -109 -272 -109q-142 0 -236 77t-94 227q0 159 110 239t302 80h176q12 0 12 12v37q0 72 -44 103.5t-159 31.5q-136 0 -221 -63q-16 -13 -26 4l-93 162q-9 18 7 28q141 99 368 99q239 0 339.5 -85t100.5 -274v-635q0 -20 -20 -20z
M502 193q184 0 184 137v67q0 13 -12 13h-139q-91 0 -134 -27.5t-43 -85.5q0 -104 144 -104zM856 1126h-164q-24 0 -45 21l-106 110h-4l-109 -110q-21 -21 -45 -21h-162q-9 0 -12.5 7t2.5 14l213 268q15 21 37 21h153q24 0 39 -21l211 -268q6 -7 3.5 -14t-11.5 -7z" />
    <glyph glyph-name="atilde" unicode="&#xe3;" horiz-adv-x="1081" 
d="M938 0h-227q-21 0 -21 20v66h-2q-84 -109 -272 -109q-142 0 -236 77t-94 227q0 159 110 239t302 80h176q12 0 12 12v37q0 72 -44 103.5t-159 31.5q-136 0 -221 -63q-16 -13 -26 4l-93 162q-9 18 7 28q141 99 368 99q239 0 339.5 -85t100.5 -274v-635q0 -20 -20 -20z
M502 193q184 0 184 137v67q0 13 -12 13h-139q-91 0 -134 -27.5t-43 -85.5q0 -104 144 -104zM670 1130q-30 0 -58.5 7t-46.5 15t-49 24q-70 36 -119 36q-41 0 -73 -16t-72 -49q-8 -6 -13.5 -4t-5.5 10v147q0 21 17 41q74 74 158 74q43 0 75 -11t78 -34q76 -37 119 -37
q40 0 72.5 16.5t72.5 49.5q7 6 14 4t7 -10v-148q0 -22 -19 -41q-71 -74 -157 -74z" />
    <glyph glyph-name="adieresis" unicode="&#xe4;" horiz-adv-x="1081" 
d="M938 0h-227q-21 0 -21 20v66h-2q-84 -109 -272 -109q-142 0 -236 77t-94 227q0 159 110 239t302 80h176q12 0 12 12v37q0 72 -44 103.5t-159 31.5q-136 0 -221 -63q-16 -13 -26 4l-93 162q-9 18 7 28q141 99 368 99q239 0 339.5 -85t100.5 -274v-635q0 -20 -20 -20z
M502 193q184 0 184 137v67q0 13 -12 13h-139q-91 0 -134 -27.5t-43 -85.5q0 -104 144 -104zM840 1149h-191q-20 0 -20 20v203q0 21 20 21h191q20 0 20 -21v-203q0 -20 -20 -20zM428 1149h-188q-21 0 -21 20v203q0 9 6 15t15 6h188q9 0 15 -6t6 -15v-203q0 -20 -21 -20z" />
    <glyph glyph-name="aring" unicode="&#xe5;" horiz-adv-x="1081" 
d="M938 0h-227q-21 0 -21 20v66h-2q-84 -109 -272 -109q-142 0 -236 77t-94 227q0 159 110 239t302 80h176q12 0 12 12v37q0 72 -44 103.5t-159 31.5q-136 0 -221 -63q-16 -13 -26 4l-93 162q-9 18 7 28q141 99 368 99q239 0 339.5 -85t100.5 -274v-635q0 -20 -20 -20z
M502 193q184 0 184 137v67q0 13 -12 13h-139q-91 0 -134 -27.5t-43 -85.5q0 -104 144 -104zM545 1073q-94 0 -156.5 61.5t-62.5 155.5q0 95 62.5 157t156.5 62t156.5 -62t62.5 -157q0 -94 -62.5 -155.5t-156.5 -61.5zM545 1192q40 0 67 28.5t27 69.5q0 43 -27 72t-67 29
q-41 0 -68.5 -29t-27.5 -72q0 -41 27.5 -69.5t68.5 -28.5z" />
    <glyph glyph-name="ae" unicode="&#xe6;" horiz-adv-x="1671" 
d="M1147 -23q-110 0 -198 39t-142 107h-2q-95 -146 -371 -146q-158 0 -253 77t-95 227q0 159 110 239t302 80h176q12 0 12 12v39q0 71 -44 102t-159 31q-136 0 -221 -63q-16 -13 -26 4l-93 162q-9 18 7 28q141 99 368 99q229 0 332 -92h4q105 92 276 92q163 0 274.5 -73.5
t154.5 -205.5q18 -51 25 -116.5t7 -188.5q0 -20 -22 -20h-600q-13 0 -13 -13q0 -20 13 -55q44 -131 207 -131q130 0 225 88q16 13 29 0l135 -127q17 -14 2 -29q-73 -78 -181 -122t-239 -44zM1296 600q13 0 13 12q0 37 -11 74q-17 51 -60.5 80t-104.5 29q-63 0 -105.5 -29
t-60.5 -80q-11 -34 -11 -74q0 -12 13 -12h327zM502 193q184 0 184 137v67q0 13 -12 13h-139q-91 0 -134 -27.5t-43 -85.5q0 -104 144 -104z" />
    <glyph glyph-name="ccedilla" unicode="&#xe7;" horiz-adv-x="985" 
d="M508 -328h-199q-9 0 -13 6t-1 15l119 295q-118 30 -193.5 95t-109.5 175q-31 91 -31 238q0 146 31 237q44 136 156.5 208.5t271.5 72.5q123 0 220.5 -51t153.5 -136q10 -17 -4 -28l-178 -117q-18 -12 -31 4q-33 46 -68.5 66t-88.5 20q-120 0 -154 -106q-18 -53 -18 -170
t18 -170q34 -107 154 -107q53 0 88.5 20t68.5 66q13 16 31 4l178 -116q14 -12 4 -29q-44 -67 -119 -115t-163 -63l-90 -293q-6 -21 -33 -21z" />
    <glyph glyph-name="egrave" unicode="&#xe8;" horiz-adv-x="1079" 
d="M553 -23q-168 0 -281.5 74.5t-156.5 208.5q-35 107 -35 236q0 136 33 237q43 133 155 207t271 74q163 0 274 -73.5t154 -205.5q32 -106 32 -305q0 -20 -22 -20h-600q-12 0 -12 -13q3 -31 12 -55q20 -64 73.5 -97.5t131.5 -33.5q132 0 227 88q18 14 29 0l135 -127
q17 -14 2 -29q-73 -78 -181 -122t-241 -44zM377 600h328q12 0 12 12q0 41 -10 74q-17 51 -61 80t-105 29t-105 -29t-61 -80q-10 -33 -10 -74q0 -12 12 -12zM672 1128h-189q-23 0 -39 21l-202 266q-6 7 -2.5 14t12.5 7h237q25 0 37 -21l156 -266q10 -21 -10 -21z" />
    <glyph glyph-name="eacute" unicode="&#xe9;" horiz-adv-x="1079" 
d="M604 1128h-186q-9 0 -12.5 6t0.5 15l157 266q12 21 37 21h236q9 0 12.5 -7t-2.5 -14l-203 -266q-16 -21 -39 -21zM553 -23q-168 0 -281.5 74.5t-156.5 208.5q-35 107 -35 236q0 136 33 237q43 133 155 207t271 74q163 0 274 -73.5t154 -205.5q32 -106 32 -305
q0 -20 -22 -20h-600q-12 0 -12 -13q3 -31 12 -55q20 -64 73.5 -97.5t131.5 -33.5q132 0 227 88q18 14 29 0l135 -127q17 -14 2 -29q-73 -78 -181 -122t-241 -44zM377 600h328q12 0 12 12q0 41 -10 74q-17 51 -61 80t-105 29t-105 -29t-61 -80q-10 -33 -10 -74q0 -12 12 -12z
" />
    <glyph glyph-name="ecircumflex" unicode="&#xea;" horiz-adv-x="1079" 
d="M856 1126h-164q-24 0 -45 21l-106 110h-4l-109 -110q-21 -21 -45 -21h-162q-9 0 -12.5 7t2.5 14l213 268q15 21 37 21h153q24 0 39 -21l211 -268q6 -7 3.5 -14t-11.5 -7zM553 -23q-168 0 -281.5 74.5t-156.5 208.5q-35 107 -35 236q0 136 33 237q43 133 155 207t271 74
q163 0 274 -73.5t154 -205.5q32 -106 32 -305q0 -20 -22 -20h-600q-12 0 -12 -13q3 -31 12 -55q20 -64 73.5 -97.5t131.5 -33.5q132 0 227 88q18 14 29 0l135 -127q17 -14 2 -29q-73 -78 -181 -122t-241 -44zM377 600h328q12 0 12 12q0 41 -10 74q-17 51 -61 80t-105 29
t-105 -29t-61 -80q-10 -33 -10 -74q0 -12 12 -12z" />
    <glyph glyph-name="edieresis" unicode="&#xeb;" horiz-adv-x="1079" 
d="M838 1149h-191q-20 0 -20 20v203q0 21 20 21h191q20 0 20 -21v-203q0 -20 -20 -20zM426 1149h-188q-21 0 -21 20v203q0 9 6 15t15 6h188q20 0 20 -21v-203q0 -20 -20 -20zM553 -23q-168 0 -281.5 74.5t-156.5 208.5q-35 107 -35 236q0 136 33 237q43 133 155 207t271 74
q163 0 274 -73.5t154 -205.5q32 -106 32 -305q0 -20 -22 -20h-600q-12 0 -12 -13q3 -31 12 -55q20 -64 73.5 -97.5t131.5 -33.5q132 0 227 88q18 14 29 0l135 -127q17 -14 2 -29q-73 -78 -181 -122t-241 -44zM377 600h328q12 0 12 12q0 41 -10 74q-17 51 -61 80t-105 29
t-105 -29t-61 -80q-10 -33 -10 -74q0 -12 12 -12z" />
    <glyph glyph-name="igrave" unicode="&#xec;" horiz-adv-x="544" 
d="M395 0h-245q-21 0 -21 20v951q0 20 21 20h245q21 0 21 -20v-951q0 -20 -21 -20zM375 1128h-189q-23 0 -39 21l-202 266q-6 7 -2.5 14t12.5 7h238q24 0 36 -21l156 -266q5 -9 2 -15t-12 -6z" />
    <glyph glyph-name="iacute" unicode="&#xed;" horiz-adv-x="544" 
d="M358 1128h-186q-9 0 -12.5 6t0.5 15l157 266q12 21 37 21h236q9 0 12.5 -7t-2.5 -14l-203 -266q-16 -21 -39 -21zM395 0h-245q-21 0 -21 20v951q0 20 21 20h245q21 0 21 -20v-951q0 -20 -21 -20z" />
    <glyph glyph-name="icircumflex" unicode="&#xee;" horiz-adv-x="544" 
d="M590 1126h-164q-24 0 -45 21l-107 110h-4l-108 -110q-21 -21 -45 -21h-162q-9 0 -12.5 7t2.5 14l213 268q15 21 37 21h153q24 0 39 -21l211 -268q6 -7 3.5 -14t-11.5 -7zM395 0h-245q-21 0 -21 20v951q0 20 21 20h245q21 0 21 -20v-951q0 -20 -21 -20z" />
    <glyph glyph-name="idieresis" unicode="&#xef;" horiz-adv-x="544" 
d="M573 1149h-190q-21 0 -21 20v203q0 9 6 15t15 6h190q9 0 15 -6t6 -15v-203q0 -20 -21 -20zM162 1149h-189q-20 0 -20 20v203q0 21 20 21h189q20 0 20 -21v-203q0 -20 -20 -20zM395 0h-245q-21 0 -21 20v951q0 20 21 20h245q21 0 21 -20v-951q0 -20 -21 -20z" />
    <glyph glyph-name="eth" unicode="&#xf0;" horiz-adv-x="1085" 
d="M848 1167l-121 -37l41 -57q127 -176 182.5 -309.5t55.5 -282.5q0 -130 -29 -219q-44 -135 -158 -210t-274 -75q-165 0 -277 73t-155 204q-31 98 -31 201q0 114 29 209q38 121 130.5 189.5t217.5 68.5q77 0 131 -33h4l-121 166l-192 -58q-19 -4 -25 15l-41 133
q-7 20 14 26l131 39l-116 162q-5 8 -1 14.5t13 6.5h252q24 0 39 -21l63 -88l185 55q20 7 26 -12l41 -133q7 -21 -14 -27zM545 213q59 0 102 29t60 84q20 56 20 137q0 69 -20 137q-36 115 -162 115q-62 0 -104.5 -30t-59.5 -85q-21 -72 -21 -137q0 -79 21 -137q17 -55 60 -84
t104 -29z" />
    <glyph glyph-name="ntilde" unicode="&#xf1;" horiz-adv-x="1132" 
d="M991 0h-246q-20 0 -20 20v570q0 84 -39.5 132t-114.5 48q-73 0 -114 -48.5t-41 -131.5v-570q0 -20 -21 -20h-245q-21 0 -21 20v951q0 20 21 20h245q21 0 21 -20v-70h2q37 50 102 81.5t154 31.5q161 0 249.5 -101t88.5 -268v-625q0 -20 -21 -20zM694 1130q-30 0 -58.5 7
t-45.5 15t-49 24q-70 36 -119 36q-67 0 -146 -65q-8 -6 -13 -4t-5 10v147q0 22 16 41q74 74 158 74q66 0 154 -45q76 -37 119 -37q40 0 72.5 16.5t72.5 49.5q8 6 14 4t6 -10v-148q0 -23 -18 -41q-71 -74 -158 -74z" />
    <glyph glyph-name="ograve" unicode="&#xf2;" horiz-adv-x="1085" 
d="M543 -23q-159 0 -273.5 73t-156.5 206q-33 103 -33 240q0 136 33 239q42 133 156.5 206t273.5 73t273.5 -73t156.5 -206q33 -103 33 -239q0 -137 -33 -240q-42 -133 -156.5 -206t-273.5 -73zM543 219q118 0 153 107q19 61 19 170t-19 170q-35 106 -153 106
q-119 0 -154 -106q-18 -58 -18 -170t18 -170q35 -107 154 -107zM664 1128h-189q-23 0 -39 21l-203 266q-6 7 -2 14t13 7h237q25 0 37 -21l156 -266q10 -21 -10 -21z" />
    <glyph glyph-name="oacute" unicode="&#xf3;" horiz-adv-x="1085" 
d="M614 1128h-186q-9 0 -12.5 6t0.5 15l157 266q12 21 37 21h236q9 0 12.5 -7t-2.5 -14l-203 -266q-16 -21 -39 -21zM543 -23q-159 0 -273.5 73t-156.5 206q-33 103 -33 240q0 136 33 239q42 133 156.5 206t273.5 73t273.5 -73t156.5 -206q33 -103 33 -239q0 -137 -33 -240
q-42 -133 -156.5 -206t-273.5 -73zM543 219q118 0 153 107q19 61 19 170t-19 170q-35 106 -153 106q-119 0 -154 -106q-18 -58 -18 -170t18 -170q35 -107 154 -107z" />
    <glyph glyph-name="ocircumflex" unicode="&#xf4;" horiz-adv-x="1085" 
d="M860 1126h-164q-24 0 -45 21l-106 110h-4l-109 -110q-21 -21 -45 -21h-162q-9 0 -12.5 7t2.5 14l213 268q15 21 37 21h153q24 0 39 -21l211 -268q6 -7 3.5 -14t-11.5 -7zM543 -23q-159 0 -273.5 73t-156.5 206q-33 103 -33 240q0 136 33 239q42 133 156.5 206t273.5 73
t273.5 -73t156.5 -206q33 -103 33 -239q0 -137 -33 -240q-42 -133 -156.5 -206t-273.5 -73zM543 219q118 0 153 107q19 61 19 170t-19 170q-35 106 -153 106q-119 0 -154 -106q-18 -58 -18 -170t18 -170q35 -107 154 -107z" />
    <glyph glyph-name="otilde" unicode="&#xf5;" horiz-adv-x="1085" 
d="M543 -23q-159 0 -273.5 73t-156.5 206q-33 103 -33 240q0 136 33 239q42 133 156.5 206t273.5 73t273.5 -73t156.5 -206q33 -103 33 -239q0 -137 -33 -240q-42 -133 -156.5 -206t-273.5 -73zM543 219q118 0 153 107q19 61 19 170t-19 170q-35 106 -153 106
q-119 0 -154 -106q-18 -58 -18 -170t18 -170q35 -107 154 -107zM672 1130q-30 0 -58.5 7t-46.5 15t-49 24q-70 36 -119 36q-41 0 -73 -16t-72 -49q-8 -6 -13 -4t-5 10v147q0 22 16 41q74 74 158 74q43 0 75 -11t78 -34q76 -37 119 -37q40 0 72.5 16.5t72.5 49.5q7 6 14 4
t7 -10v-148q0 -22 -19 -41q-71 -74 -157 -74z" />
    <glyph glyph-name="odieresis" unicode="&#xf6;" horiz-adv-x="1085" 
d="M842 1149h-191q-20 0 -20 20v203q0 21 20 21h191q20 0 20 -21v-203q0 -20 -20 -20zM430 1149h-188q-21 0 -21 20v203q0 9 6 15t15 6h188q9 0 15 -6t6 -15v-203q0 -20 -21 -20zM543 -23q-159 0 -273.5 73t-156.5 206q-33 103 -33 240q0 136 33 239q42 133 156.5 206
t273.5 73t273.5 -73t156.5 -206q33 -103 33 -239q0 -137 -33 -240q-42 -133 -156.5 -206t-273.5 -73zM543 219q118 0 153 107q19 61 19 170t-19 170q-35 106 -153 106q-119 0 -154 -106q-18 -58 -18 -170t18 -170q35 -107 154 -107z" />
    <glyph glyph-name="divide" unicode="&#xf7;" 
d="M569 793q-65 0 -110 44.5t-45 110.5q0 65 45.5 110.5t109.5 45.5q65 0 110.5 -46t45.5 -110q0 -66 -45.5 -110.5t-110.5 -44.5zM1014 444h-889q-9 0 -15 6t-6 15v201q0 20 21 20h889q20 0 20 -20v-201q0 -21 -20 -21zM569 27q-65 0 -110 45.5t-45 109.5q0 66 45 111
t110 45t110.5 -45t45.5 -111q0 -64 -45.5 -109.5t-110.5 -45.5z" />
    <glyph glyph-name="oslash" unicode="&#xf8;" horiz-adv-x="1085" 
d="M543 -23q-144 0 -252 60l-58 -78q-14 -20 -38 -20h-105q-9 0 -11.5 6.5t3.5 13.5l111 154q-57 63 -80 143q-33 103 -33 240q0 136 33 239q42 133 156.5 206t273.5 73q146 0 252 -62l59 80q15 21 39 21h102q9 0 12.5 -6.5t-1.5 -14.5l-115 -155q54 -57 82 -142
q33 -103 33 -239q0 -137 -33 -240q-42 -133 -156.5 -206t-273.5 -73zM367 496q0 -91 8 -138l268 387q-47 29 -100 29q-58 0 -99.5 -27t-58.5 -79q-18 -58 -18 -172zM543 217q58 0 99 27.5t58 79.5q19 61 19 172q0 86 -8 133l-267 -385q40 -27 99 -27z" />
    <glyph glyph-name="ugrave" unicode="&#xf9;" horiz-adv-x="1124" 
d="M975 0h-246q-20 0 -20 20v72h-2q-86 -115 -254 -115q-160 0 -247 101.5t-87 267.5v625q0 20 20 20h246q21 0 21 -20v-570q0 -82 39 -131t112 -49q72 0 112 48.5t40 131.5v570q0 20 20 20h246q20 0 20 -20v-951q0 -20 -20 -20zM680 1128h-188q-23 0 -39 21l-203 266
q-6 7 -2.5 14t12.5 7h238q25 0 37 -21l155 -266q10 -21 -10 -21z" />
    <glyph glyph-name="uacute" unicode="&#xfa;" horiz-adv-x="1124" 
d="M633 1128h-187q-9 0 -12.5 6t0.5 15l158 266q12 21 37 21h235q9 0 12.5 -7t-2.5 -14l-202 -266q-16 -21 -39 -21zM975 0h-246q-20 0 -20 20v72h-2q-86 -115 -254 -115q-160 0 -247 101.5t-87 267.5v625q0 20 20 20h246q21 0 21 -20v-570q0 -82 39 -131t112 -49
q72 0 112 48.5t40 131.5v570q0 20 20 20h246q20 0 20 -20v-951q0 -20 -20 -20z" />
    <glyph glyph-name="ucircumflex" unicode="&#xfb;" horiz-adv-x="1124" 
d="M879 1126h-164q-24 0 -45 21l-107 110h-4l-108 -110q-21 -21 -45 -21h-162q-9 0 -13 7t2 14l213 268q15 21 37 21h154q24 0 39 -21l211 -268q6 -7 3.5 -14t-11.5 -7zM975 0h-246q-20 0 -20 20v72h-2q-86 -115 -254 -115q-160 0 -247 101.5t-87 267.5v625q0 20 20 20h246
q21 0 21 -20v-570q0 -82 39 -131t112 -49q72 0 112 48.5t40 131.5v570q0 20 20 20h246q20 0 20 -20v-951q0 -20 -20 -20z" />
    <glyph glyph-name="udieresis" unicode="&#xfc;" horiz-adv-x="1124" 
d="M862 1149h-190q-21 0 -21 20v203q0 9 6 15t15 6h190q9 0 15 -6t6 -15v-203q0 -20 -21 -20zM451 1149h-189q-20 0 -20 20v203q0 21 20 21h189q20 0 20 -21v-203q0 -20 -20 -20zM975 0h-246q-20 0 -20 20v72h-2q-86 -115 -254 -115q-160 0 -247 101.5t-87 267.5v625
q0 20 20 20h246q21 0 21 -20v-570q0 -82 39 -131t112 -49q72 0 112 48.5t40 131.5v570q0 20 20 20h246q20 0 20 -20v-951q0 -20 -20 -20z" />
    <glyph glyph-name="yacute" unicode="&#xfd;" horiz-adv-x="1038" 
d="M260 -369h-70q-20 0 -20 21v201q0 20 20 20h43q54 0 85.5 23.5t50.5 78.5l26 74l-368 922q-3 9 2 14.5t14 5.5h262q18 0 25 -20l198 -574h4l185 574q7 20 24 20h254q11 0 15.5 -5.5t1.5 -14.5l-402 -1055q-62 -163 -138.5 -224t-211.5 -61zM602 1128h-186q-9 0 -13 6
t0 15l158 266q12 21 37 21h236q9 0 12.5 -7t-2.5 -14l-203 -266q-16 -21 -39 -21z" />
    <glyph glyph-name="thorn" unicode="&#xfe;" horiz-adv-x="1128" 
d="M395 -369h-245q-9 0 -15 6t-6 15v1720q0 9 6 15t15 6h245q9 0 15 -6t6 -15v-473h2q76 115 260 115q126 0 212 -60.5t124 -177.5q35 -109 35 -280q0 -172 -35 -281q-38 -116 -124.5 -177t-211.5 -61q-184 0 -260 115h-2v-440q0 -9 -6 -15t-15 -6zM586 219q118 0 153 107
q19 62 19 170t-19 170q-34 106 -153 106q-118 0 -152 -106q-18 -58 -18 -170t18 -170q35 -107 152 -107z" />
    <glyph glyph-name="ydieresis" unicode="&#xff;" horiz-adv-x="1038" 
d="M260 -369h-70q-20 0 -20 21v201q0 20 20 20h43q54 0 85.5 23.5t50.5 78.5l26 74l-368 922q-3 9 2 14.5t14 5.5h262q18 0 25 -20l198 -574h4l185 574q7 20 24 20h254q11 0 15.5 -5.5t1.5 -14.5l-402 -1055q-62 -163 -138.5 -224t-211.5 -61zM823 1149h-190q-21 0 -21 20
v203q0 9 6 15t15 6h190q9 0 15 -6t6 -15v-203q0 -20 -21 -20zM412 1149h-189q-20 0 -20 20v203q0 21 20 21h189q20 0 20 -21v-203q0 -20 -20 -20z" />
    <glyph glyph-name="Amacron" unicode="&#x100;" horiz-adv-x="1318" 
d="M29 20l479 1352q7 21 27 21h258q19 0 26 -21l471 -1352q7 -20 -14 -20h-266q-21 0 -27 20l-80 244h-487l-78 -244q-6 -20 -27 -20h-268q-21 0 -14 20zM500 520h321l-157 488h-7zM948 1579h-579q-21 0 -21 20v156q0 9 6 15t15 6h579q9 0 15 -6t6 -15v-156q0 -20 -21 -20z
" />
    <glyph glyph-name="amacron" unicode="&#x101;" horiz-adv-x="1081" 
d="M938 0h-227q-21 0 -21 20v66h-2q-84 -109 -272 -109q-142 0 -236 77t-94 227q0 159 110 239t302 80h176q12 0 12 12v37q0 72 -44 103.5t-159 31.5q-136 0 -221 -63q-16 -13 -26 4l-93 162q-9 18 7 28q141 99 368 99q239 0 339.5 -85t100.5 -274v-635q0 -20 -20 -20z
M502 193q184 0 184 137v67q0 13 -12 13h-139q-91 0 -134 -27.5t-43 -85.5q0 -104 144 -104zM827 1178h-579q-21 0 -21 20v154q0 20 21 20h579q21 0 21 -20v-154q0 -20 -21 -20z" />
    <glyph glyph-name="Abreve" unicode="&#x102;" horiz-adv-x="1318" 
d="M29 20l479 1352q7 21 27 21h258q19 0 26 -21l471 -1352q7 -20 -14 -20h-266q-21 0 -27 20l-80 244h-487l-78 -244q-6 -20 -27 -20h-268q-21 0 -14 20zM500 520h321l-157 488h-7zM659 1524q-136 0 -222 75.5t-91 192.5q0 23 21 23h118q21 0 27 -23q35 -86 147 -86
q116 0 146 86q9 23 29 23h116q10 0 16.5 -7t6.5 -16q-6 -117 -92.5 -192.5t-221.5 -75.5z" />
    <glyph glyph-name="abreve" unicode="&#x103;" horiz-adv-x="1081" 
d="M938 0h-227q-21 0 -21 20v66h-2q-84 -109 -272 -109q-142 0 -236 77t-94 227q0 159 110 239t302 80h176q12 0 12 12v37q0 72 -44 103.5t-159 31.5q-136 0 -221 -63q-16 -13 -26 4l-93 162q-9 18 7 28q141 99 368 99q239 0 339.5 -85t100.5 -274v-635q0 -20 -20 -20z
M502 193q184 0 184 137v67q0 13 -12 13h-139q-91 0 -134 -27.5t-43 -85.5q0 -104 144 -104zM539 1118q-136 0 -222.5 75.5t-91.5 192.5q0 21 21 21h119q20 0 26 -21q34 -88 148 -88q115 0 145 88q9 21 29 21h116q23 0 23 -21q-6 -117 -92 -192.5t-221 -75.5z" />
    <glyph glyph-name="Aogonek" unicode="&#x104;" horiz-adv-x="1318" 
d="M1094 -391q-96 0 -153.5 50.5t-57.5 137.5q0 113 127 203q-20 0 -27 20l-80 244h-485l-80 -244q-6 -20 -25 -20h-268q-9 0 -14 5.5t-2 14.5l479 1352q7 21 27 21h258q20 0 26 -21l471 -1352q5 -13 -12 -22q-96 -48 -137 -84t-41 -68q0 -43 43 -43q17 0 51 17q18 9 27 -8
l63 -121q10 -17 -8 -29q-77 -53 -182 -53zM657 1008l-157 -488h321l-157 488h-7z" />
    <glyph glyph-name="aogonek" unicode="&#x105;" horiz-adv-x="1081" 
d="M690 20v66h-2q-84 -109 -272 -109q-142 0 -236 77t-94 227q0 159 110 239t302 80h176q12 0 12 12v37q0 72 -44 103.5t-159 31.5q-136 0 -221 -63q-16 -13 -26 4l-93 162q-9 18 7 28q141 99 368 99q239 0 339.5 -85t100.5 -274v-635q0 -14 -12 -20q-102 -50 -141 -85.5
t-39 -68.5q0 -43 43 -43q17 0 51 17q18 9 27 -8l63 -121q9 -15 -8 -29q-79 -53 -182 -53q-96 0 -153.5 50.5t-57.5 137.5q0 128 145 211q-4 4 -4 12zM502 193q184 0 184 137v67q0 13 -12 13h-139q-91 0 -134 -27.5t-43 -85.5q0 -104 144 -104z" />
    <glyph glyph-name="Cacute" unicode="&#x106;" horiz-adv-x="1177" 
d="M135 319q-23 68 -31 142.5t-8 234.5t8 234.5t31 142.5q55 168 183 255t313 87q176 0 301 -80.5t184 -228.5q11 -18 -10 -25l-223 -100q-19 -10 -29 10q-68 158 -221 158q-159 0 -209 -154q-13 -41 -18 -99.5t-5 -199.5t5 -199.5t18 -99.5q49 -153 209 -153q153 0 221 157
q10 20 29 11l223 -101q20 -7 10 -24q-59 -148 -184.5 -229t-300.5 -81q-185 0 -313 87t-183 255zM676 1544h-191q-9 0 -11.5 7t3.5 14l195 235q18 21 39 21h245q10 0 14 -6.5t-3 -14.5l-252 -237q-19 -19 -39 -19z" />
    <glyph glyph-name="cacute" unicode="&#x107;" horiz-adv-x="985" 
d="M582 1128h-187q-9 0 -12.5 6t0.5 15l158 266q12 21 37 21h235q9 0 12.5 -7t-2.5 -14l-202 -266q-16 -21 -39 -21zM539 -23q-159 0 -271.5 72.5t-156.5 208.5q-31 91 -31 238q0 146 31 237q44 136 156.5 208.5t271.5 72.5q123 0 220.5 -51t153.5 -136q10 -17 -4 -28
l-178 -117q-18 -12 -31 4q-33 46 -68.5 66t-88.5 20q-120 0 -154 -106q-18 -53 -18 -170t18 -170q34 -107 154 -107q53 0 88.5 20t68.5 66q13 16 31 4l178 -116q14 -12 4 -29q-56 -85 -153.5 -136t-220.5 -51z" />
    <glyph glyph-name="Ccircumflex" unicode="&#x108;" horiz-adv-x="1177" 
d="M135 319q-23 68 -31 142.5t-8 234.5t8 234.5t31 142.5q55 168 183 255t313 87q176 0 301 -80.5t184 -228.5q11 -18 -10 -25l-223 -100q-19 -10 -29 10q-68 158 -221 158q-159 0 -209 -154q-13 -41 -18 -99.5t-5 -199.5t5 -199.5t18 -99.5q49 -153 209 -153q153 0 221 157
q10 20 29 11l223 -101q20 -7 10 -24q-59 -148 -184.5 -229t-300.5 -81q-185 0 -313 87t-183 255zM946 1530h-164q-25 0 -45 20l-108 111h-4l-107 -111q-20 -20 -45 -20h-164q-9 0 -11.5 6t3.5 14l211 269q14 20 39 20h154q22 0 36 -20l213 -269q6 -8 3.5 -14t-11.5 -6z" />
    <glyph glyph-name="ccircumflex" unicode="&#x109;" horiz-adv-x="985" 
d="M848 1126h-164q-24 0 -45 21l-107 110h-4l-108 -110q-21 -21 -45 -21h-162q-9 0 -12.5 7t2.5 14l213 268q15 21 37 21h153q24 0 39 -21l211 -268q6 -7 3.5 -14t-11.5 -7zM539 -23q-159 0 -271.5 72.5t-156.5 208.5q-31 91 -31 238q0 146 31 237q44 136 156.5 208.5
t271.5 72.5q123 0 220.5 -51t153.5 -136q10 -17 -4 -28l-178 -117q-18 -12 -31 4q-33 46 -68.5 66t-88.5 20q-120 0 -154 -106q-18 -53 -18 -170t18 -170q34 -107 154 -107q53 0 88.5 20t68.5 66q13 16 31 4l178 -116q14 -12 4 -29q-56 -85 -153.5 -136t-220.5 -51z" />
    <glyph glyph-name="Cdotaccent" unicode="&#x10a;" horiz-adv-x="1177" 
d="M741 1556h-235q-9 0 -15 6t-6 15v201q0 20 21 20h235q21 0 21 -20v-201q0 -9 -6 -15t-15 -6zM135 319q-23 68 -31 142.5t-8 234.5t8 234.5t31 142.5q55 168 183 255t313 87q176 0 301 -80.5t184 -228.5q11 -18 -10 -25l-223 -100q-19 -10 -29 10q-68 158 -221 158
q-159 0 -209 -154q-13 -41 -18 -99.5t-5 -199.5t5 -199.5t18 -99.5q49 -153 209 -153q153 0 221 157q10 20 29 11l223 -101q20 -7 10 -24q-59 -148 -184.5 -229t-300.5 -81q-185 0 -313 87t-183 255z" />
    <glyph glyph-name="cdotaccent" unicode="&#x10b;" horiz-adv-x="985" 
d="M539 -23q-159 0 -271.5 72.5t-156.5 208.5q-31 91 -31 238q0 146 31 237q44 136 156.5 208.5t271.5 72.5q123 0 220.5 -51t153.5 -136q10 -17 -4 -28l-178 -117q-18 -12 -31 4q-33 46 -68.5 66t-88.5 20q-120 0 -154 -106q-18 -53 -18 -170t18 -170q34 -107 154 -107
q53 0 88.5 20t68.5 66q13 16 31 4l178 -116q14 -12 4 -29q-56 -85 -153.5 -136t-220.5 -51zM649 1149h-235q-21 0 -21 20v203q0 9 6 15t15 6h235q9 0 15 -6t6 -15v-203q0 -20 -21 -20z" />
    <glyph glyph-name="Ccaron" unicode="&#x10c;" horiz-adv-x="1177" 
d="M135 319q-23 68 -31 142.5t-8 234.5t8 234.5t31 142.5q55 168 183 255t313 87q176 0 301 -80.5t184 -228.5q11 -18 -10 -25l-223 -100q-19 -10 -29 10q-68 158 -221 158q-159 0 -209 -154q-13 -41 -18 -99.5t-5 -199.5t5 -199.5t18 -99.5q49 -153 209 -153q153 0 221 157
q10 20 29 11l223 -101q20 -7 10 -24q-59 -148 -184.5 -229t-300.5 -81q-185 0 -313 87t-183 255zM702 1524h-153q-25 0 -39 20l-211 266q-6 8 -3.5 14.5t11.5 6.5h164q24 0 45 -21l107 -110h4l108 110q21 21 45 21h164q9 0 11.5 -6.5t-3.5 -14.5l-213 -266q-14 -20 -37 -20z
" />
    <glyph glyph-name="ccaron" unicode="&#x10d;" horiz-adv-x="985" 
d="M608 1120h-153q-22 0 -37 21l-213 268q-6 7 -2.5 14t12.5 7h162q24 0 45 -21l108 -111h5l106 111q21 21 45 21h164q9 0 11.5 -7t-3.5 -14l-211 -268q-15 -21 -39 -21zM539 -23q-159 0 -271.5 72.5t-156.5 208.5q-31 91 -31 238q0 146 31 237q44 136 156.5 208.5
t271.5 72.5q123 0 220.5 -51t153.5 -136q10 -17 -4 -28l-178 -117q-18 -12 -31 4q-33 46 -68.5 66t-88.5 20q-120 0 -154 -106q-18 -53 -18 -170t18 -170q34 -107 154 -107q53 0 88.5 20t68.5 66q13 16 31 4l178 -116q14 -12 4 -29q-56 -85 -153.5 -136t-220.5 -51z" />
    <glyph glyph-name="Dcaron" unicode="&#x10e;" horiz-adv-x="1286" 
d="M682 1524h-154q-25 0 -39 20l-210 266q-6 8 -3.5 14.5t11.5 6.5h164q24 0 45 -21l106 -110h4l109 110q21 21 45 21h164q9 0 11.5 -6.5t-3.5 -14.5l-213 -266q-14 -20 -37 -20zM133 20v1352q0 9 6 15t15 6h518q185 0 307.5 -79t173.5 -235q20 -63 28.5 -142t8.5 -241
t-8.5 -241t-28.5 -142q-51 -155 -173.5 -234t-307.5 -79h-518q-21 0 -21 20zM434 281q0 -13 12 -13h158q107 0 169.5 35.5t88.5 118.5q23 67 23 274q0 208 -23 275q-26 83 -88 118t-170 35h-158q-12 0 -12 -12v-831z" />
    <glyph glyph-name="dcaron" unicode="&#x10f;" horiz-adv-x="1153" 
d="M1090 999q-10 0 -16.5 7t-6.5 16v350q0 21 20 21h197q9 0 15 -6t6 -15v-172q0 -26 -17 -41l-168 -145q-15 -15 -30 -15zM979 0h-246q-20 0 -20 20v72h-2q-79 -115 -260 -115q-125 0 -211.5 61t-124.5 177q-35 109 -35 281q0 171 35 280q38 117 124 177.5t212 60.5
q181 0 260 -115h2v473q0 21 20 21h246q20 0 20 -21v-1352q0 -20 -20 -20zM543 219q116 0 151 107q19 62 19 170t-19 170q-34 106 -151 106q-120 0 -154 -106q-18 -58 -18 -170t18 -170q35 -107 154 -107z" />
    <glyph glyph-name="Dcroat" unicode="&#x110;" horiz-adv-x="1286" 
d="M672 0h-518q-21 0 -21 20v560q0 12 -12 12h-51q-21 0 -21 20v181q0 20 21 20h51q12 0 12 12v547q0 9 6 15t15 6h518q185 0 307.5 -79t173.5 -235q20 -63 28.5 -142t8.5 -241t-8.5 -241t-28.5 -142q-51 -155 -173.5 -234t-307.5 -79zM604 268q107 0 169.5 35.5t88.5 118.5
q23 67 23 274q0 208 -23 275q-26 83 -88 118t-170 35h-158q-12 0 -12 -12v-287q0 -12 12 -12h170q21 0 21 -20v-181q0 -20 -21 -20h-170q-12 0 -12 -12v-299q0 -13 12 -13h158z" />
    <glyph glyph-name="dcroat" unicode="&#x111;" horiz-adv-x="1128" 
d="M979 0h-246q-20 0 -20 20v72h-2q-79 -115 -260 -115q-125 0 -211.5 61t-124.5 177q-35 109 -35 281q0 171 35 280q38 117 124 177.5t212 60.5q181 0 260 -115h2v199q0 12 -13 12h-211q-20 0 -20 20v158q0 21 20 21h211q13 0 13 12v51q0 21 20 21h246q20 0 20 -21v-51
q0 -12 13 -12h39q20 0 20 -21v-158q0 -20 -20 -20h-39q-13 0 -13 -12v-1078q0 -20 -20 -20zM543 219q116 0 151 107q19 62 19 170t-19 170q-34 106 -151 106q-120 0 -154 -106q-18 -58 -18 -170t18 -170q35 -107 154 -107z" />
    <glyph glyph-name="Emacron" unicode="&#x112;" horiz-adv-x="1157" 
d="M885 1579h-580q-20 0 -20 20v156q0 21 20 21h580q20 0 20 -21v-156q0 -20 -20 -20zM133 20v1352q0 9 6 15t15 6h893q20 0 20 -21v-219q0 -20 -20 -20h-601q-12 0 -12 -13v-276q0 -13 12 -13h500q21 0 21 -20v-217q0 -9 -6 -15t-15 -6h-500q-12 0 -12 -12v-289
q0 -12 12 -12h601q20 0 20 -20v-220q0 -20 -20 -20h-893q-21 0 -21 20z" />
    <glyph glyph-name="emacron" unicode="&#x113;" horiz-adv-x="1079" 
d="M553 -23q-168 0 -281.5 74.5t-156.5 208.5q-35 107 -35 236q0 136 33 237q43 133 155 207t271 74q163 0 274 -73.5t154 -205.5q32 -106 32 -305q0 -20 -22 -20h-600q-12 0 -12 -13q3 -31 12 -55q20 -64 73.5 -97.5t131.5 -33.5q132 0 227 88q18 14 29 0l135 -127
q17 -14 2 -29q-73 -78 -181 -122t-241 -44zM377 600h328q12 0 12 12q0 41 -10 74q-17 51 -61 80t-105 29t-105 -29t-61 -80q-10 -33 -10 -74q0 -12 12 -12zM827 1178h-579q-21 0 -21 20v154q0 20 21 20h579q21 0 21 -20v-154q0 -20 -21 -20z" />
    <glyph glyph-name="Ebreve" unicode="&#x114;" horiz-adv-x="1157" 
d="M594 1524q-136 0 -222 75.5t-91 192.5q0 23 20 23h119q20 0 26 -23q35 -86 148 -86q115 0 145 86q9 23 29 23h117q10 0 16 -7t6 -16q-6 -117 -92 -192.5t-221 -75.5zM133 20v1352q0 9 6 15t15 6h893q20 0 20 -21v-219q0 -20 -20 -20h-601q-12 0 -12 -13v-276
q0 -13 12 -13h500q21 0 21 -20v-217q0 -9 -6 -15t-15 -6h-500q-12 0 -12 -12v-289q0 -12 12 -12h601q20 0 20 -20v-220q0 -20 -20 -20h-893q-21 0 -21 20z" />
    <glyph glyph-name="ebreve" unicode="&#x115;" horiz-adv-x="1079" 
d="M553 -23q-168 0 -281.5 74.5t-156.5 208.5q-35 107 -35 236q0 136 33 237q43 133 155 207t271 74q163 0 274 -73.5t154 -205.5q32 -106 32 -305q0 -20 -22 -20h-600q-12 0 -12 -13q3 -31 12 -55q20 -64 73.5 -97.5t131.5 -33.5q132 0 227 88q18 14 29 0l135 -127
q17 -14 2 -29q-73 -78 -181 -122t-241 -44zM377 600h328q12 0 12 12q0 41 -10 74q-17 51 -61 80t-105 29t-105 -29t-61 -80q-10 -33 -10 -74q0 -12 12 -12zM539 1118q-136 0 -222.5 75.5t-91.5 192.5q0 21 21 21h119q20 0 26 -21q34 -88 148 -88q115 0 145 88q9 21 29 21
h116q23 0 23 -21q-6 -117 -92 -192.5t-221 -75.5z" />
    <glyph glyph-name="Edotaccent" unicode="&#x116;" horiz-adv-x="1157" 
d="M711 1556h-236q-20 0 -20 21v201q0 20 20 20h236q20 0 20 -20v-201q0 -21 -20 -21zM133 20v1352q0 9 6 15t15 6h893q20 0 20 -21v-219q0 -20 -20 -20h-601q-12 0 -12 -13v-276q0 -13 12 -13h500q21 0 21 -20v-217q0 -9 -6 -15t-15 -6h-500q-12 0 -12 -12v-289
q0 -12 12 -12h601q20 0 20 -20v-220q0 -20 -20 -20h-893q-21 0 -21 20z" />
    <glyph glyph-name="edotaccent" unicode="&#x117;" horiz-adv-x="1079" 
d="M553 -23q-168 0 -281.5 74.5t-156.5 208.5q-35 107 -35 236q0 136 33 237q43 133 155 207t271 74q163 0 274 -73.5t154 -205.5q32 -106 32 -305q0 -20 -22 -20h-600q-12 0 -12 -13q3 -31 12 -55q20 -64 73.5 -97.5t131.5 -33.5q132 0 227 88q18 14 29 0l135 -127
q17 -14 2 -29q-73 -78 -181 -122t-241 -44zM377 600h328q12 0 12 12q0 41 -10 74q-17 51 -61 80t-105 29t-105 -29t-61 -80q-10 -33 -10 -74q0 -12 12 -12zM655 1149h-235q-21 0 -21 20v203q0 9 6 15t15 6h235q9 0 15 -6t6 -15v-203q0 -20 -21 -20z" />
    <glyph glyph-name="Eogonek" unicode="&#x118;" horiz-adv-x="1157" 
d="M848 -391q-96 0 -153.5 50.5t-57.5 137.5q0 115 121 203h-604q-21 0 -21 20v1352q0 9 6 15t15 6h893q20 0 20 -21v-219q0 -20 -20 -20h-601q-12 0 -12 -13v-276q0 -13 12 -13h500q21 0 21 -20v-217q0 -9 -6 -15t-15 -6h-500q-12 0 -12 -12v-289q0 -12 12 -12h601
q20 0 20 -20v-220q0 -20 -20 -20h-21q-94 -49 -133 -85.5t-39 -68.5q0 -43 43 -43q17 0 51 17q18 11 27 -8l63 -121q10 -16 -8 -27q-75 -55 -182 -55z" />
    <glyph glyph-name="eogonek" unicode="&#x119;" horiz-adv-x="1079" 
d="M705 -391q-96 0 -153.5 50.5t-57.5 137.5q0 90 75 180h-26q-163 1 -274 75.5t-154 207.5q-35 107 -35 236q0 136 33 237q43 133 155 207t271 74q163 0 274 -73.5t154 -205.5q32 -106 32 -305q0 -20 -22 -20h-600q-12 0 -12 -13q3 -31 12 -55q20 -64 73.5 -97.5
t131.5 -33.5q132 0 227 88q18 14 29 0l135 -127q17 -14 2 -29q-40 -43 -92 -77q-106 -91 -139 -138.5t-33 -81.5q0 -43 43 -43q18 0 49 17q18 9 26 -8l66 -121q9 -15 -8 -29q-79 -53 -182 -53zM705 600q12 0 12 12q0 41 -10 74q-17 51 -61 80t-105 29t-105 -29t-61 -80
q-10 -33 -10 -74q0 -12 12 -12h328z" />
    <glyph glyph-name="Ecaron" unicode="&#x11a;" horiz-adv-x="1157" 
d="M674 1524h-154q-25 0 -39 20l-211 266q-6 8 -3 14.5t12 6.5h163q24 0 45 -21l107 -110h4l109 110q21 21 45 21h163q9 0 12 -6.5t-3 -14.5l-213 -266q-14 -20 -37 -20zM133 20v1352q0 9 6 15t15 6h893q20 0 20 -21v-219q0 -20 -20 -20h-601q-12 0 -12 -13v-276
q0 -13 12 -13h500q21 0 21 -20v-217q0 -9 -6 -15t-15 -6h-500q-12 0 -12 -12v-289q0 -12 12 -12h601q20 0 20 -20v-220q0 -20 -20 -20h-893q-21 0 -21 20z" />
    <glyph glyph-name="ecaron" unicode="&#x11b;" horiz-adv-x="1079" 
d="M614 1120h-153q-22 0 -37 21l-213 268q-6 7 -2.5 14t12.5 7h162q24 0 45 -21l109 -111h4l106 111q21 21 45 21h164q9 0 11.5 -7t-3.5 -14l-211 -268q-15 -21 -39 -21zM553 -23q-168 0 -281.5 74.5t-156.5 208.5q-35 107 -35 236q0 136 33 237q43 133 155 207t271 74
q163 0 274 -73.5t154 -205.5q32 -106 32 -305q0 -20 -22 -20h-600q-12 0 -12 -13q3 -31 12 -55q20 -64 73.5 -97.5t131.5 -33.5q132 0 227 88q18 14 29 0l135 -127q17 -14 2 -29q-73 -78 -181 -122t-241 -44zM377 600h328q12 0 12 12q0 41 -10 74q-17 51 -61 80t-105 29
t-105 -29t-61 -80q-10 -33 -10 -74q0 -12 12 -12z" />
    <glyph glyph-name="Gcircumflex" unicode="&#x11c;" horiz-adv-x="1286" 
d="M135 315q-23 72 -31 149t-8 232t8 232t31 149q53 166 187.5 252t324.5 86q187 0 315.5 -82t180.5 -215q11 -22 -8 -31l-220 -92q-21 -6 -28 11q-43 73 -99.5 108t-140.5 35q-173 0 -223 -156q-23 -70 -23 -297q0 -229 23 -299q49 -153 227 -153q80 0 141 37.5t82 105.5
q17 59 17 137q0 13 -12 13h-189q-20 0 -20 20v197q0 20 20 20h479q21 0 21 -20v-115q0 -207 -35 -313q-52 -166 -187 -257.5t-321 -91.5q-190 0 -324.5 86t-187.5 252zM961 1530h-164q-25 0 -45 20l-109 111h-4l-107 -111q-20 -20 -45 -20h-163q-9 0 -12 6t3 14l211 269
q14 20 39 20h154q23 0 37 -20l213 -269q6 -8 3.5 -14t-11.5 -6z" />
    <glyph glyph-name="gcircumflex" unicode="&#x11d;" horiz-adv-x="1112" 
d="M856 1126h-164q-24 0 -45 21l-106 110h-4l-109 -110q-21 -21 -45 -21h-162q-9 0 -12.5 7t2.5 14l213 268q15 21 37 21h153q24 0 39 -21l211 -268q6 -7 3.5 -14t-11.5 -7zM489 -391q-110 0 -215 42t-159 107q-13 16 2 31l145 148q16 15 31 0q96 -87 205 -87q102 0 150 55
t48 165v84h-2q-71 -115 -254 -115q-124 0 -208.5 61t-122.5 179q-33 106 -33 247q0 145 33 248q38 118 122.5 179t208.5 61q183 0 254 -115h2v72q0 20 21 20h246q20 0 20 -20v-865q0 -497 -494 -497zM530 281q113 0 148 106q18 56 18 139q0 84 -18 140q-35 106 -148 106
q-109 0 -147 -106q-16 -59 -16 -140q0 -80 16 -139q38 -106 147 -106z" />
    <glyph glyph-name="Gbreve" unicode="&#x11e;" horiz-adv-x="1286" 
d="M643 1524q-136 0 -222 75.5t-91 192.5q0 23 20 23h119q21 0 27 -23q35 -86 147 -86q115 0 145 86q9 23 29 23h117q10 0 16 -7t6 -16q-6 -117 -92 -192.5t-221 -75.5zM135 315q-23 72 -31 149t-8 232t8 232t31 149q53 166 187.5 252t324.5 86q187 0 315.5 -82t180.5 -215
q11 -22 -8 -31l-220 -92q-21 -6 -28 11q-43 73 -99.5 108t-140.5 35q-173 0 -223 -156q-23 -70 -23 -297q0 -229 23 -299q49 -153 227 -153q80 0 141 37.5t82 105.5q17 59 17 137q0 13 -12 13h-189q-20 0 -20 20v197q0 20 20 20h479q21 0 21 -20v-115q0 -207 -35 -313
q-52 -166 -187 -257.5t-321 -91.5q-190 0 -324.5 86t-187.5 252z" />
    <glyph glyph-name="gbreve" unicode="&#x11f;" horiz-adv-x="1112" 
d="M489 -391q-110 0 -215 42t-159 107q-13 16 2 31l145 148q16 15 31 0q96 -87 205 -87q102 0 150 55t48 165v84h-2q-71 -115 -254 -115q-124 0 -208.5 61t-122.5 179q-33 106 -33 247q0 145 33 248q38 118 122.5 179t208.5 61q183 0 254 -115h2v72q0 20 21 20h246
q20 0 20 -20v-865q0 -497 -494 -497zM530 281q113 0 148 106q18 56 18 139q0 84 -18 140q-35 106 -148 106q-109 0 -147 -106q-16 -59 -16 -140q0 -80 16 -139q38 -106 147 -106zM539 1118q-136 0 -222.5 75.5t-91.5 192.5q0 21 21 21h119q20 0 26 -21q34 -88 148 -88
q115 0 145 88q9 21 29 21h116q23 0 23 -21q-6 -117 -92 -192.5t-221 -75.5z" />
    <glyph glyph-name="Gdotaccent" unicode="&#x120;" horiz-adv-x="1286" 
d="M760 1556h-236q-20 0 -20 21v201q0 20 20 20h236q20 0 20 -20v-201q0 -21 -20 -21zM135 315q-23 72 -31 149t-8 232t8 232t31 149q53 166 187.5 252t324.5 86q187 0 315.5 -82t180.5 -215q11 -22 -8 -31l-220 -92q-21 -6 -28 11q-43 73 -99.5 108t-140.5 35
q-173 0 -223 -156q-23 -70 -23 -297q0 -229 23 -299q49 -153 227 -153q80 0 141 37.5t82 105.5q17 59 17 137q0 13 -12 13h-189q-20 0 -20 20v197q0 20 20 20h479q21 0 21 -20v-115q0 -207 -35 -313q-52 -166 -187 -257.5t-321 -91.5q-190 0 -324.5 86t-187.5 252z" />
    <glyph glyph-name="gdotaccent" unicode="&#x121;" horiz-adv-x="1112" 
d="M489 -391q-110 0 -215 42t-159 107q-13 16 2 31l145 148q16 15 31 0q96 -87 205 -87q102 0 150 55t48 165v84h-2q-71 -115 -254 -115q-124 0 -208.5 61t-122.5 179q-33 106 -33 247q0 145 33 248q38 118 122.5 179t208.5 61q183 0 254 -115h2v72q0 20 21 20h246
q20 0 20 -20v-865q0 -497 -494 -497zM530 281q113 0 148 106q18 56 18 139q0 84 -18 140q-35 106 -148 106q-109 0 -147 -106q-16 -59 -16 -140q0 -80 16 -139q38 -106 147 -106zM655 1149h-235q-21 0 -21 20v203q0 9 6 15t15 6h235q9 0 15 -6t6 -15v-203q0 -20 -21 -20z
" />
    <glyph glyph-name="Gcommaaccent" unicode="&#x122;" horiz-adv-x="1286" 
d="M539 -487q-23 0 -23 24v340q0 9 6 15t15 6h208q9 0 15 -6t6 -15v-162q0 -27 -16 -41l-179 -145q-19 -16 -32 -16zM135 315q-23 72 -31 149t-8 232t8 232t31 149q53 166 187.5 252t324.5 86q187 0 315.5 -82t180.5 -215q11 -22 -8 -31l-220 -92q-21 -6 -28 11
q-43 73 -99.5 108t-140.5 35q-173 0 -223 -156q-23 -70 -23 -297q0 -229 23 -299q49 -153 227 -153q80 0 141 37.5t82 105.5q17 59 17 137q0 13 -12 13h-189q-20 0 -20 20v197q0 20 20 20h479q21 0 21 -20v-115q0 -207 -35 -313q-52 -166 -187 -257.5t-321 -91.5
q-190 0 -324.5 86t-187.5 252z" />
    <glyph glyph-name="gcommaaccent" unicode="&#x123;" horiz-adv-x="1112" 
d="M643 1149h-209q-20 0 -20 20v162q0 25 16 41l178 148q17 14 33 14q10 0 16.5 -7t6.5 -18v-340q0 -20 -21 -20zM489 -391q-110 0 -215 42t-159 107q-13 16 2 31l145 148q16 15 31 0q96 -87 205 -87q102 0 150 55t48 165v84h-2q-71 -115 -254 -115q-124 0 -208.5 61
t-122.5 179q-33 106 -33 247q0 145 33 248q38 118 122.5 179t208.5 61q183 0 254 -115h2v72q0 20 21 20h246q20 0 20 -20v-865q0 -497 -494 -497zM530 281q113 0 148 106q18 56 18 139q0 84 -18 140q-35 106 -148 106q-109 0 -147 -106q-16 -59 -16 -140q0 -80 16 -139
q38 -106 147 -106z" />
    <glyph glyph-name="Hcircumflex" unicode="&#x124;" horiz-adv-x="1347" 
d="M133 20v1352q0 9 6 15t15 6h260q20 0 20 -21v-522q0 -12 12 -12h455q12 0 12 12v522q0 9 6 15t15 6h260q20 0 20 -21v-1352q0 -20 -20 -20h-260q-21 0 -21 20v537q0 12 -12 12h-455q-12 0 -12 -12v-537q0 -20 -20 -20h-260q-21 0 -21 20zM991 1530h-164q-25 0 -45 20
l-108 111h-4l-107 -111q-20 -20 -45 -20h-164q-9 0 -11.5 6t3.5 14l211 269q14 20 39 20h154q22 0 36 -20l213 -269q6 -8 3.5 -14t-11.5 -6z" />
    <glyph glyph-name="hcircumflex" unicode="&#x125;" horiz-adv-x="1132" 
d="M991 0h-246q-20 0 -20 20v570q0 84 -39.5 132t-114.5 48q-73 0 -114 -48.5t-41 -131.5v-570q0 -20 -21 -20h-245q-21 0 -21 20v1352q0 9 6 15t15 6h245q9 0 15 -6t6 -15v-471h2q37 50 102 81.5t154 31.5q161 0 249.5 -101t88.5 -268v-625q0 -20 -21 -20zM895 1530h-164
q-25 0 -45 20l-108 111h-5l-106 -111q-20 -20 -45 -20h-164q-9 0 -11.5 6t3.5 14l211 269q14 20 39 20h153q23 0 37 -20l213 -269q6 -8 3.5 -14t-11.5 -6z" />
    <glyph glyph-name="Hbar" unicode="&#x126;" horiz-adv-x="1347" 
d="M1194 0h-260q-21 0 -21 20v537q0 12 -12 12h-455q-12 0 -12 -12v-537q0 -20 -20 -20h-260q-21 0 -21 20v984q0 12 -12 12h-66q-20 0 -20 20v152q0 20 20 20h66q12 0 12 13v151q0 9 6 15t15 6h260q20 0 20 -21v-151q0 -13 12 -13h455q12 0 12 13v151q0 9 6 15t15 6h260
q20 0 20 -21v-151q0 -13 13 -13h65q21 0 21 -20v-152q0 -20 -21 -20h-65q-13 0 -13 -12v-984q0 -20 -20 -20zM901 838q12 0 12 12v154q0 12 -12 12h-455q-12 0 -12 -12v-154q0 -12 12 -12h455z" />
    <glyph glyph-name="hbar" unicode="&#x127;" horiz-adv-x="1132" 
d="M991 0h-246q-20 0 -20 20v570q0 84 -39.5 132t-114.5 48q-73 0 -114 -48.5t-41 -131.5v-570q0 -20 -21 -20h-245q-21 0 -21 20v1078q0 12 -12 12h-39q-21 0 -21 20v158q0 9 6 15t15 6h39q12 0 12 12v51q0 9 6 15t15 6h245q9 0 15 -6t6 -15v-51q0 -12 12 -12h211
q20 0 20 -21v-158q0 -20 -20 -20h-211q-12 0 -12 -12v-197h2q37 50 102 81.5t154 31.5q161 0 249.5 -101t88.5 -268v-625q0 -20 -21 -20z" />
    <glyph glyph-name="Itilde" unicode="&#x128;" horiz-adv-x="567" 
d="M133 20v1352q0 9 6 15t15 6h260q20 0 20 -21v-1352q0 -20 -20 -20h-260q-21 0 -21 20zM414 1532q-70 0 -154 43q-63 37 -119 37q-40 0 -72 -16t-73 -48q-8 -6 -13.5 -4t-5.5 8v148q0 23 17 43q72 72 158 72q69 0 153 -43q66 -37 119 -37q40 0 72 15.5t73 47.5q7 6 14 4
t7 -8v-147q0 -24 -19 -43q-69 -72 -157 -72z" />
    <glyph glyph-name="itilde" unicode="&#x129;" horiz-adv-x="544" 
d="M395 0h-245q-21 0 -21 20v951q0 20 21 20h245q21 0 21 -20v-951q0 -20 -21 -20zM403 1130q-30 0 -58.5 7t-45.5 15t-49 24q-70 36 -119 36q-41 0 -73 -16t-72 -49q-8 -6 -13.5 -4t-5.5 10v147q0 21 17 41q74 74 157 74q66 0 154 -45q76 -37 119 -37q40 0 72.5 16.5
t72.5 49.5q7 6 14 4t7 -10v-148q0 -22 -19 -41q-71 -74 -158 -74z" />
    <glyph glyph-name="Imacron" unicode="&#x12a;" horiz-adv-x="567" 
d="M133 20v1352q0 9 6 15t15 6h260q20 0 20 -21v-1352q0 -20 -20 -20h-260q-21 0 -21 20zM573 1579h-579q-21 0 -21 20v156q0 9 6 15t15 6h579q9 0 15 -6t6 -15v-156q0 -20 -21 -20z" />
    <glyph glyph-name="imacron" unicode="&#x12b;" horiz-adv-x="544" 
d="M395 0h-245q-21 0 -21 20v951q0 20 21 20h245q21 0 21 -20v-951q0 -20 -21 -20zM563 1178h-579q-21 0 -21 20v154q0 20 21 20h579q21 0 21 -20v-154q0 -20 -21 -20z" />
    <glyph glyph-name="Ibreve" unicode="&#x12c;" horiz-adv-x="567" 
d="M133 20v1352q0 9 6 15t15 6h260q20 0 20 -21v-1352q0 -20 -20 -20h-260q-21 0 -21 20zM283 1524q-136 0 -222.5 75.5t-91.5 192.5q0 23 21 23h119q20 0 26 -23q35 -86 148 -86q115 0 145 86q9 23 29 23h116q10 0 16.5 -7t6.5 -16q-6 -117 -92 -192.5t-221 -75.5z" />
    <glyph glyph-name="ibreve" unicode="&#x12d;" horiz-adv-x="544" 
d="M395 0h-245q-21 0 -21 20v951q0 20 21 20h245q21 0 21 -20v-951q0 -20 -21 -20zM272 1118q-136 0 -222 75.5t-91 192.5q0 21 21 21h118q21 0 27 -21q34 -88 147 -88q116 0 146 88q9 21 28 21h117q23 0 23 -21q-6 -117 -92.5 -192.5t-221.5 -75.5z" />
    <glyph glyph-name="Iogonek" unicode="&#x12e;" horiz-adv-x="567" 
d="M264 -391q-96 0 -153.5 50.5t-57.5 137.5q0 59 28 106.5t81 96.5h-8q-21 0 -21 20v1352q0 9 6 15t15 6h260q20 0 20 -21v-1352q0 -13 -12 -20q-90 -58 -121 -90.5t-31 -63.5q0 -43 43 -43q21 0 52 17q18 9 26 -8l64 -121q9 -15 -9 -29q-79 -53 -182 -53z" />
    <glyph glyph-name="iogonek" unicode="&#x12f;" horiz-adv-x="544" 
d="M395 1149h-245q-21 0 -21 20v203q0 9 6 15t15 6h245q9 0 15 -6t6 -15v-203q0 -20 -21 -20zM254 -391q-96 0 -153.5 50.5t-57.5 137.5q0 113 102 205h-2q-14 3 -14 18v951q0 20 21 20h245q21 0 21 -20v-951q0 -14 -15 -22q-82 -53 -111.5 -88t-29.5 -64q0 -43 43 -43
q20 0 51 17q18 11 27 -8l63 -121q9 -15 -8 -29q-79 -53 -182 -53z" />
    <glyph glyph-name="Idotaccent" unicode="&#x130;" horiz-adv-x="567" 
d="M133 20v1352q0 9 6 15t15 6h260q20 0 20 -21v-1352q0 -20 -20 -20h-260q-21 0 -21 20zM401 1556h-235q-9 0 -15 6t-6 15v201q0 20 21 20h235q21 0 21 -20v-201q0 -9 -6 -15t-15 -6z" />
    <glyph glyph-name="dotlessi" unicode="&#x131;" horiz-adv-x="544" 
d="M395 0h-245q-21 0 -21 20v951q0 20 21 20h245q21 0 21 -20v-951q0 -20 -21 -20z" />
    <glyph glyph-name="Jcircumflex" unicode="&#x134;" horiz-adv-x="1067" 
d="M43 156q-10 16 2 28l191 146q14 10 28 -4q30 -35 74 -58.5t96 -23.5q99 0 152 61.5t53 179.5v887q0 21 20 21h261q20 0 20 -21v-872q0 -254 -133.5 -388.5t-374.5 -134.5q-125 0 -231.5 50.5t-157.5 128.5zM1102 1530h-164q-25 0 -45 20l-109 111h-4l-106 -111
q-20 -20 -45 -20h-164q-9 0 -11.5 6t3.5 14l211 269q14 20 39 20h153q23 0 37 -20l213 -269q6 -8 3.5 -14t-11.5 -6z" />
    <glyph glyph-name="jcircumflex" unicode="&#x135;" horiz-adv-x="559" 
d="M51 -369h-67q-9 0 -15 6t-6 15v201q0 20 21 20h41q61 0 85.5 24.5t24.5 90.5v983q0 20 21 20h245q21 0 21 -20v-981q0 -185 -93.5 -272t-277.5 -87zM596 1126h-164q-24 0 -45 21l-106 110h-5l-108 -110q-21 -21 -45 -21h-162q-9 0 -12.5 7t2.5 14l213 268q15 21 37 21
h153q24 0 39 -21l211 -268q6 -7 3.5 -14t-11.5 -7z" />
    <glyph glyph-name="Kcommaaccent" unicode="&#x136;" horiz-adv-x="1320" 
d="M561 -487q-22 0 -22 24v340q0 21 20 21h209q20 0 20 -21v-162q0 -27 -16 -41l-178 -145q-19 -16 -33 -16zM133 20v1352q0 9 6 15t15 6h260q20 0 20 -21v-602l463 604q14 19 35 19h297q9 0 12 -9t-4 -18l-422 -528l461 -813q6 -11 2.5 -18t-14.5 -7h-301q-21 0 -31 18
l-316 586l-182 -229v-355q0 -20 -20 -20h-260q-21 0 -21 20z" />
    <glyph glyph-name="kcommaaccent" unicode="&#x137;" horiz-adv-x="1087" 
d="M451 -487q-23 0 -23 24v340q0 9 6 15t15 6h208q9 0 15 -6t6 -15v-162q0 -27 -16 -41l-179 -145q-19 -16 -32 -16zM1042 0h-272q-20 0 -31 20l-221 400l-102 -127v-273q0 -20 -21 -20h-245q-21 0 -21 20v1352q0 9 6 15t15 6h245q9 0 15 -6t6 -15v-751l284 350q17 20 39 20
h262q9 0 12 -7t-3 -13l-303 -350l346 -601q5 -6 1.5 -13t-12.5 -7z" />
    <glyph glyph-name="kgreenlandic" unicode="&#x138;" horiz-adv-x="1087" 
d="M1042 0h-272q-20 0 -31 20l-221 400l-102 -127v-273q0 -20 -21 -20h-245q-21 0 -21 20v951q0 20 21 20h245q21 0 21 -20v-350l284 350q17 20 39 20h262q9 0 12 -7t-3 -13l-303 -350l346 -601q5 -6 1.5 -13t-12.5 -7z" />
    <glyph glyph-name="Lacute" unicode="&#x139;" horiz-adv-x="1126" 
d="M391 1544h-190q-9 0 -11.5 7t3.5 14l194 235q18 21 39 21h246q9 0 13 -6.5t-3 -14.5l-252 -237q-19 -19 -39 -19zM133 20v1352q0 9 6 15t15 6h260q20 0 20 -21v-1091q0 -13 12 -13h615q20 0 20 -20v-228q0 -20 -20 -20h-907q-21 0 -21 20z" />
    <glyph glyph-name="lacute" unicode="&#x13a;" horiz-adv-x="622" 
d="M369 1544h-191q-9 0 -11.5 7t3.5 14l195 235q17 21 38 21h246q9 0 13 -6.5t-3 -14.5l-251 -237q-19 -19 -39 -19zM541 -12h-109q-163 0 -235 75t-72 240v1069q0 21 20 21h246q9 0 15 -6t6 -15v-1046q0 -50 20.5 -72.5t65.5 -22.5h43q20 0 20 -20v-203q0 -20 -20 -20z" />
    <glyph glyph-name="Lcommaaccent" unicode="&#x13b;" horiz-adv-x="1126" 
d="M487 -487q-22 0 -22 24v340q0 21 20 21h209q9 0 15 -6t6 -15v-162q0 -26 -17 -41l-178 -145q-19 -16 -33 -16zM133 20v1352q0 9 6 15t15 6h260q20 0 20 -21v-1091q0 -13 12 -13h615q20 0 20 -20v-228q0 -20 -20 -20h-907q-21 0 -21 20z" />
    <glyph glyph-name="lcommaaccent" unicode="&#x13c;" horiz-adv-x="622" 
d="M250 -487q-23 0 -23 24v340q0 9 6 15t15 6h209q20 0 20 -21v-162q0 -27 -16 -41l-178 -145q-19 -16 -33 -16zM541 -12h-109q-163 0 -235 75t-72 240v1069q0 21 20 21h246q9 0 15 -6t6 -15v-1046q0 -50 20.5 -72.5t65.5 -22.5h43q20 0 20 -20v-203q0 -20 -20 -20z" />
    <glyph glyph-name="Lcaron" unicode="&#x13d;" horiz-adv-x="1126" 
d="M573 999q-10 0 -16 7t-6 16v350q0 21 20 21h197q20 0 20 -21v-172q0 -27 -16 -41l-168 -145q-15 -15 -31 -15zM133 20v1352q0 9 6 15t15 6h260q20 0 20 -21v-1091q0 -13 12 -13h615q20 0 20 -20v-228q0 -20 -20 -20h-907q-21 0 -21 20z" />
    <glyph glyph-name="lcaron" unicode="&#x13e;" horiz-adv-x="624" 
d="M504 999q-10 0 -16.5 7t-6.5 16v350q0 9 6 15t15 6h196q9 0 15 -6t6 -15v-172q0 -26 -17 -41l-167 -145q-15 -15 -31 -15zM541 -12h-109q-163 0 -235 75t-72 240v1069q0 21 20 21h246q9 0 15 -6t6 -15v-1046q0 -50 20.5 -72.5t65.5 -22.5h43q20 0 20 -20v-203
q0 -20 -20 -20z" />
    <glyph glyph-name="Ldot" unicode="&#x13f;" horiz-adv-x="1126" 
d="M133 20v1352q0 9 6 15t15 6h260q20 0 20 -21v-1091q0 -13 12 -13h615q20 0 20 -20v-228q0 -20 -20 -20h-907q-21 0 -21 20zM969 541h-244q-20 0 -20 20v244q0 20 20 20h244q20 0 20 -20v-244q0 -20 -20 -20z" />
    <glyph glyph-name="ldot" unicode="&#x140;" horiz-adv-x="792" 
d="M541 -12h-109q-163 0 -235 75t-72 240v1069q0 21 20 21h246q9 0 15 -6t6 -15v-1046q0 -50 20.5 -72.5t65.5 -22.5h43q20 0 20 -20v-203q0 -20 -20 -20zM788 557h-243q-9 0 -15 6t-6 15v243q0 9 6 15t15 6h243q9 0 15 -6t6 -15v-243q0 -9 -6 -15t-15 -6z" />
    <glyph glyph-name="Lslash" unicode="&#x141;" horiz-adv-x="1126" 
d="M1061 0h-907q-21 0 -21 20v496l-94 -47q-9 -4 -15 -0.5t-6 12.5v193q0 18 21 28l94 48v622q0 9 6 15t15 6h260q20 0 20 -21v-483l260 133q9 4 15 0.5t6 -12.5v-193q0 -19 -21 -29l-260 -133v-374q0 -13 12 -13h615q20 0 20 -20v-228q0 -20 -20 -20z" />
    <glyph glyph-name="lslash" unicode="&#x142;" horiz-adv-x="624" 
d="M541 741l-129 -65v-350q0 -50 20.5 -72.5t65.5 -22.5h43q20 0 20 -20v-203q0 -20 -20 -20h-109q-163 0 -235 75t-72 240v242l-66 -33q-9 -4 -14.5 -0.5t-5.5 12.5v183q0 20 20 30l66 33v602q0 21 20 21h246q9 0 15 -6t6 -15v-471l129 66q9 4 14.5 0t5.5 -13v-182
q0 -21 -20 -31z" />
    <glyph glyph-name="Nacute" unicode="&#x143;" horiz-adv-x="1341" 
d="M702 1544h-190q-9 0 -11.5 7t3.5 14l194 235q18 21 39 21h246q9 0 13 -6.5t-3 -14.5l-252 -237q-19 -19 -39 -19zM133 20v1352q0 9 6 15t15 6h245q23 0 35 -21l492 -876h10v876q0 21 20 21h232q20 0 20 -21v-1352q0 -20 -20 -20h-244q-24 0 -35 20l-493 875h-10v-875
q0 -20 -21 -20h-231q-21 0 -21 20z" />
    <glyph glyph-name="nacute" unicode="&#x144;" horiz-adv-x="1132" 
d="M598 1128h-186q-9 0 -13 6t0 15l158 266q12 21 37 21h235q9 0 13 -7t-2 -14l-203 -266q-16 -21 -39 -21zM991 0h-246q-20 0 -20 20v570q0 84 -39.5 132t-114.5 48q-73 0 -114 -48.5t-41 -131.5v-570q0 -20 -21 -20h-245q-21 0 -21 20v951q0 20 21 20h245q21 0 21 -20v-70
h2q37 50 102 81.5t154 31.5q161 0 249.5 -101t88.5 -268v-625q0 -20 -21 -20z" />
    <glyph glyph-name="Ncommaaccent" unicode="&#x145;" horiz-adv-x="1341" 
d="M567 -487q-22 0 -22 24v340q0 21 20 21h209q9 0 15 -6t6 -15v-162q0 -26 -17 -41l-178 -145q-19 -16 -33 -16zM133 20v1352q0 9 6 15t15 6h245q23 0 35 -21l492 -876h10v876q0 21 20 21h232q20 0 20 -21v-1352q0 -20 -20 -20h-244q-24 0 -35 20l-493 875h-10v-875
q0 -20 -21 -20h-231q-21 0 -21 20z" />
    <glyph glyph-name="ncommaaccent" unicode="&#x146;" horiz-adv-x="1132" 
d="M465 -487q-23 0 -23 24v340q0 9 6 15t15 6h209q20 0 20 -21v-162q0 -27 -16 -41l-178 -145q-19 -16 -33 -16zM991 0h-246q-20 0 -20 20v570q0 84 -39.5 132t-114.5 48q-73 0 -114 -48.5t-41 -131.5v-570q0 -20 -21 -20h-245q-21 0 -21 20v951q0 20 21 20h245q21 0 21 -20
v-70h2q37 50 102 81.5t154 31.5q161 0 249.5 -101t88.5 -268v-625q0 -20 -21 -20z" />
    <glyph glyph-name="Ncaron" unicode="&#x147;" horiz-adv-x="1341" 
d="M739 1524h-153q-25 0 -39 20l-211 266q-6 8 -3.5 14.5t11.5 6.5h164q24 0 45 -21l106 -110h5l108 110q21 21 45 21h164q9 0 11.5 -6.5t-3.5 -14.5l-213 -266q-14 -20 -37 -20zM133 20v1352q0 9 6 15t15 6h245q23 0 35 -21l492 -876h10v876q0 21 20 21h232q20 0 20 -21
v-1352q0 -20 -20 -20h-244q-24 0 -35 20l-493 875h-10v-875q0 -20 -21 -20h-231q-21 0 -21 20z" />
    <glyph glyph-name="ncaron" unicode="&#x148;" horiz-adv-x="1132" 
d="M641 1120h-154q-21 0 -36 21l-213 268q-6 7 -2.5 14t12.5 7h162q24 0 45 -21l108 -111h4l107 111q21 21 45 21h164q9 0 11.5 -7t-3.5 -14l-211 -268q-15 -21 -39 -21zM991 0h-246q-20 0 -20 20v570q0 84 -39.5 132t-114.5 48q-73 0 -114 -48.5t-41 -131.5v-570
q0 -20 -21 -20h-245q-21 0 -21 20v951q0 20 21 20h245q21 0 21 -20v-70h2q37 50 102 81.5t154 31.5q161 0 249.5 -101t88.5 -268v-625q0 -20 -21 -20z" />
    <glyph glyph-name="Eng" unicode="&#x14a;" horiz-adv-x="1341" 
d="M797 -377h-68q-20 0 -20 21v219q0 20 20 20h39q144 0 152 115v6l-504 891h-10v-875q0 -20 -21 -20h-231q-21 0 -21 20v1352q0 9 6 15t15 6h245q25 0 35 -21l492 -876h10v876q0 21 20 21h232q20 0 20 -21v-1333q0 -213 -103.5 -314.5t-307.5 -101.5z" />
    <glyph glyph-name="eng" unicode="&#x14b;" horiz-adv-x="1132" 
d="M645 -369h-67q-9 0 -15 6t-6 15v201q0 20 21 20h38q60 0 84.5 24t24.5 89v604q0 84 -39.5 132t-114.5 48q-73 0 -114 -48.5t-41 -131.5v-570q0 -20 -21 -20h-245q-21 0 -21 20v951q0 20 21 20h245q21 0 21 -20v-70h2q87 113 256 113q161 0 249.5 -101t88.5 -268v-655
q0 -186 -92 -272.5t-275 -86.5z" />
    <glyph glyph-name="Omacron" unicode="&#x14c;" horiz-adv-x="1286" 
d="M932 1579h-580q-20 0 -20 20v156q0 21 20 21h580q20 0 20 -21v-156q0 -20 -20 -20zM643 -23q-187 0 -321 86.5t-187 251.5q-23 72 -31 149t-8 232t8 232t31 149q53 165 187 251.5t321 86.5t321 -86.5t187 -251.5q23 -72 31 -149t8 -232t-8 -232t-31 -149
q-53 -165 -187 -251.5t-321 -86.5zM643 244q170 0 219 153q23 70 23 299t-23 299q-50 154 -219 154t-219 -154q-23 -70 -23 -299t23 -299q49 -153 219 -153z" />
    <glyph glyph-name="omacron" unicode="&#x14d;" horiz-adv-x="1085" 
d="M831 1178h-579q-21 0 -21 20v154q0 20 21 20h579q21 0 21 -20v-154q0 -20 -21 -20zM543 -23q-159 0 -273.5 73t-156.5 206q-33 103 -33 240q0 136 33 239q42 133 156.5 206t273.5 73t273.5 -73t156.5 -206q33 -103 33 -239q0 -137 -33 -240q-42 -133 -156.5 -206
t-273.5 -73zM543 219q118 0 153 107q19 61 19 170t-19 170q-35 106 -153 106q-119 0 -154 -106q-18 -58 -18 -170t18 -170q35 -107 154 -107z" />
    <glyph glyph-name="Obreve" unicode="&#x14e;" horiz-adv-x="1286" 
d="M643 1524q-136 0 -222 75.5t-91 192.5q0 23 20 23h119q21 0 27 -23q35 -86 147 -86q115 0 145 86q9 23 29 23h117q10 0 16 -7t6 -16q-6 -117 -92 -192.5t-221 -75.5zM643 -23q-187 0 -321 86.5t-187 251.5q-23 72 -31 149t-8 232t8 232t31 149q53 165 187 251.5t321 86.5
t321 -86.5t187 -251.5q23 -72 31 -149t8 -232t-8 -232t-31 -149q-53 -165 -187 -251.5t-321 -86.5zM643 244q170 0 219 153q23 70 23 299t-23 299q-50 154 -219 154t-219 -154q-23 -70 -23 -299t23 -299q49 -153 219 -153z" />
    <glyph glyph-name="obreve" unicode="&#x14f;" horiz-adv-x="1085" 
d="M543 -23q-159 0 -273.5 73t-156.5 206q-33 103 -33 240q0 136 33 239q42 133 156.5 206t273.5 73t273.5 -73t156.5 -206q33 -103 33 -239q0 -137 -33 -240q-42 -133 -156.5 -206t-273.5 -73zM543 219q118 0 153 107q19 61 19 170t-19 170q-35 106 -153 106
q-119 0 -154 -106q-18 -58 -18 -170t18 -170q35 -107 154 -107zM543 1118q-136 0 -222.5 75.5t-91.5 192.5q0 21 21 21h119q20 0 26 -21q34 -88 148 -88q115 0 145 88q9 21 29 21h117q22 0 22 -21q-6 -117 -92 -192.5t-221 -75.5z" />
    <glyph glyph-name="Ohungarumlaut" unicode="&#x150;" horiz-adv-x="1286" 
d="M643 -23q-187 0 -321 86.5t-187 251.5q-23 72 -31 149t-8 232t8 232t31 149q53 165 187 251.5t321 86.5t321 -86.5t187 -251.5q23 -72 31 -149t8 -232t-8 -232t-31 -149q-53 -165 -187 -251.5t-321 -86.5zM643 244q170 0 219 153q23 70 23 299t-23 299q-50 154 -219 154
t-219 -154q-23 -70 -23 -299t23 -299q49 -153 219 -153zM877 1548h-166q-9 0 -12.5 7t1.5 14l142 229q12 21 35 21h198q9 0 11.5 -6.5t-3.5 -14.5l-168 -229q-16 -21 -38 -21zM524 1548h-166q-9 0 -12 7t2 14l144 229q12 21 34 21h199q9 0 11.5 -6.5t-3.5 -14.5l-170 -229
q-13 -21 -39 -21z" />
    <glyph glyph-name="ohungarumlaut" unicode="&#x151;" horiz-adv-x="1085" 
d="M793 1124h-168q-9 0 -13 6t0 15l138 268q10 21 32 21h199q9 0 12 -7t-2 -14l-164 -268q-12 -21 -34 -21zM440 1124h-166q-9 0 -12.5 6t0.5 15l137 268q11 21 33 21h199q9 0 12 -7t-2 -14l-164 -268q-15 -21 -37 -21zM543 -23q-159 0 -273.5 73t-156.5 206
q-33 103 -33 240q0 136 33 239q42 133 156.5 206t273.5 73t273.5 -73t156.5 -206q33 -103 33 -239q0 -137 -33 -240q-42 -133 -156.5 -206t-273.5 -73zM543 219q118 0 153 107q19 61 19 170t-19 170q-35 106 -153 106q-119 0 -154 -106q-18 -58 -18 -170t18 -170
q35 -107 154 -107z" />
    <glyph glyph-name="OE" unicode="&#x152;" horiz-adv-x="1908" 
d="M1798 0h-893q-20 0 -20 20v46h-4q-100 -89 -263 -89q-180 0 -305 85t-178 251q-22 71 -30.5 149.5t-8.5 233.5t8.5 233.5t30.5 149.5q53 166 178 251t305 85q164 0 263 -88h4v45q0 21 20 21h893q9 0 15 -6t6 -15v-219q0 -20 -21 -20h-600q-12 0 -12 -13v-276
q0 -13 12 -13h500q20 0 20 -20v-217q0 -21 -20 -21h-500q-12 0 -12 -12v-289q0 -12 12 -12h600q21 0 21 -20v-220q0 -20 -21 -20zM643 244q170 0 219 153q23 70 23 299t-23 299q-50 154 -219 154t-219 -154q-23 -70 -23 -299t23 -299q49 -153 219 -153z" />
    <glyph glyph-name="oe" unicode="&#x153;" horiz-adv-x="1712" 
d="M1186 -23q-207 0 -322 121h-4q-118 -121 -317 -121q-159 0 -273.5 73t-156.5 208q-33 100 -33 238q0 136 33 239q42 133 156.5 206t273.5 73q200 0 315 -115h4q106 115 309 115q163 0 274 -73.5t154 -205.5q31 -102 31 -305q0 -20 -20 -20h-600q-13 0 -13 -13
q3 -35 11 -55q44 -131 206 -131q135 0 226 88q18 12 30 0l136 -127q16 -13 0 -29q-73 -78 -181 -122t-239 -44zM1335 600q13 0 13 12q0 46 -11 74q-15 51 -58.5 80t-104.5 29q-62 0 -106.5 -29t-59.5 -80q-11 -37 -11 -74q0 -12 13 -12h325zM543 219q118 0 153 109
q19 58 19 168q0 109 -19 170q-35 106 -153 106q-119 0 -154 -106q-18 -58 -18 -170q0 -113 18 -168q35 -109 154 -109z" />
    <glyph glyph-name="Racute" unicode="&#x154;" horiz-adv-x="1277" 
d="M1194 0h-291q-22 0 -31 20l-239 510h-187q-12 0 -12 -12v-498q0 -20 -20 -20h-260q-21 0 -21 20v1352q0 9 6 15t15 6h555q213 0 343 -120t130 -312q0 -133 -66 -235t-182 -153l274 -548q5 -9 0.5 -17t-14.5 -8zM692 786q86 0 137.5 47.5t51.5 127.5q0 78 -51.5 125
t-137.5 47h-246q-12 0 -12 -13v-321q0 -13 12 -13h246zM637 1544h-191q-9 0 -11.5 7t3.5 14l195 235q17 21 39 21h246q9 0 13 -6.5t-3 -14.5l-252 -237q-19 -19 -39 -19z" />
    <glyph glyph-name="racute" unicode="&#x155;" horiz-adv-x="872" 
d="M508 1128h-186q-9 0 -13 6t0 15l158 266q12 21 37 21h235q9 0 13 -7t-2 -14l-203 -266q-16 -21 -39 -21zM395 0h-245q-21 0 -21 20v951q0 20 21 20h245q21 0 21 -20v-84h2q75 127 258 127q104 0 174 -60q14 -11 6 -28l-115 -209q-10 -13 -28 -4q-73 48 -144 45
q-153 -6 -153 -215v-523q0 -20 -21 -20z" />
    <glyph glyph-name="Rcommaaccent" unicode="&#x156;" horiz-adv-x="1277" 
d="M535 -487q-23 0 -23 24v340q0 21 20 21h209q9 0 15 -6t6 -15v-162q0 -26 -17 -41l-178 -145q-19 -16 -32 -16zM1194 0h-291q-22 0 -31 20l-239 510h-187q-12 0 -12 -12v-498q0 -20 -20 -20h-260q-21 0 -21 20v1352q0 9 6 15t15 6h555q213 0 343 -120t130 -312
q0 -133 -66 -235t-182 -153l274 -548q5 -9 0.5 -17t-14.5 -8zM692 786q86 0 137.5 47.5t51.5 127.5q0 78 -51.5 125t-137.5 47h-246q-12 0 -12 -13v-321q0 -13 12 -13h246z" />
    <glyph glyph-name="rcommaaccent" unicode="&#x157;" horiz-adv-x="872" 
d="M172 -487q-22 0 -22 24v340q0 21 20 21h209q20 0 20 -21v-162q0 -27 -16 -41l-178 -145q-19 -16 -33 -16zM395 0h-245q-21 0 -21 20v951q0 20 21 20h245q21 0 21 -20v-84h2q75 127 258 127q104 0 174 -60q14 -11 6 -28l-115 -209q-10 -13 -28 -4q-73 48 -144 45
q-153 -6 -153 -215v-523q0 -20 -21 -20z" />
    <glyph glyph-name="Rcaron" unicode="&#x158;" horiz-adv-x="1277" 
d="M670 1524h-154q-25 0 -39 20l-211 266q-6 8 -3.5 14.5t11.5 6.5h164q24 0 45 -21l107 -110h4l108 110q21 21 46 21h163q9 0 12 -6.5t-3 -14.5l-213 -266q-14 -20 -37 -20zM1194 0h-291q-22 0 -31 20l-239 510h-187q-12 0 -12 -12v-498q0 -20 -20 -20h-260q-21 0 -21 20
v1352q0 9 6 15t15 6h555q213 0 343 -120t130 -312q0 -133 -66 -235t-182 -153l274 -548q5 -9 0.5 -17t-14.5 -8zM692 786q86 0 137.5 47.5t51.5 127.5q0 78 -51.5 125t-137.5 47h-246q-12 0 -12 -13v-321q0 -13 12 -13h246z" />
    <glyph glyph-name="rcaron" unicode="&#x159;" horiz-adv-x="872" 
d="M555 1120h-154q-21 0 -36 21l-213 268q-6 7 -2.5 14t12.5 7h162q24 0 45 -21l108 -111h4l107 111q21 21 45 21h164q9 0 11.5 -7t-3.5 -14l-211 -268q-15 -21 -39 -21zM395 0h-245q-21 0 -21 20v951q0 20 21 20h245q21 0 21 -20v-84h2q75 127 258 127q104 0 174 -60
q14 -11 6 -28l-115 -209q-10 -13 -28 -4q-73 48 -144 45q-153 -6 -153 -215v-523q0 -20 -21 -20z" />
    <glyph glyph-name="Sacute" unicode="&#x15a;" horiz-adv-x="1218" 
d="M602 -23q-157 0 -303.5 54.5t-232.5 136.5q-18 18 -3 35l156 178q13 16 31 2q178 -143 364 -143q107 0 167.5 45.5t60.5 120.5q0 64 -47.5 101t-167.5 54l-74 10q-440 61 -440 418q0 193 134 309.5t359 116.5q137 0 260.5 -38.5t212.5 -106.5q18 -12 4 -31l-125 -186
q-12 -15 -28 -6q-161 106 -324 106q-90 0 -138 -42t-48 -110q0 -62 50 -99t167 -54l74 -10q219 -30 328.5 -133t109.5 -289q0 -196 -142.5 -317.5t-404.5 -121.5zM676 1544h-191q-9 0 -11.5 7t3.5 14l195 235q18 21 39 21h245q10 0 14 -6.5t-3 -14.5l-252 -237
q-19 -19 -39 -19z" />
    <glyph glyph-name="sacute" unicode="&#x15b;" horiz-adv-x="1034" 
d="M575 1128h-186q-9 0 -12.5 6t0.5 15l158 266q12 21 36 21h236q9 0 12.5 -7t-2.5 -14l-203 -266q-16 -21 -39 -21zM518 -23q-273 0 -450 154q-14 15 0 29l133 149q12 12 28 0q66 -51 146 -79.5t157 -28.5q76 0 115 25.5t39 68.5q0 38 -29.5 58.5t-111.5 27.5l-111 12
q-157 15 -240 92.5t-83 210.5q0 147 107.5 232.5t299.5 85.5q121 0 225 -33.5t177 -89.5q15 -15 2 -31l-115 -141q-12 -14 -29 -4q-127 80 -268 80q-61 0 -93 -22t-32 -60q0 -36 28.5 -55.5t108.5 -26.5l109 -13q330 -33 330 -301q-2 -155 -118 -247.5t-325 -92.5z" />
    <glyph glyph-name="Scircumflex" unicode="&#x15c;" horiz-adv-x="1218" 
d="M602 -23q-157 0 -303.5 54.5t-232.5 136.5q-18 18 -3 35l156 178q13 16 31 2q178 -143 364 -143q107 0 167.5 45.5t60.5 120.5q0 64 -47.5 101t-167.5 54l-74 10q-440 61 -440 418q0 193 134 309.5t359 116.5q137 0 260.5 -38.5t212.5 -106.5q18 -12 4 -31l-125 -186
q-12 -15 -28 -6q-161 106 -324 106q-90 0 -138 -42t-48 -110q0 -62 50 -99t167 -54l74 -10q219 -30 328.5 -133t109.5 -289q0 -196 -142.5 -317.5t-404.5 -121.5zM934 1530h-164q-25 0 -45 20l-109 111h-4l-106 -111q-20 -20 -45 -20h-164q-9 0 -11.5 6t3.5 14l211 269
q14 20 39 20h153q23 0 37 -20l213 -269q6 -8 3.5 -14t-11.5 -6z" />
    <glyph glyph-name="scircumflex" unicode="&#x15d;" horiz-adv-x="1034" 
d="M840 1126h-164q-24 0 -45 21l-107 110h-4l-108 -110q-21 -21 -45 -21h-162q-9 0 -12.5 7t2.5 14l213 268q15 21 36 21h154q24 0 39 -21l211 -268q6 -7 3.5 -14t-11.5 -7zM518 -23q-273 0 -450 154q-14 15 0 29l133 149q12 12 28 0q66 -51 146 -79.5t157 -28.5
q76 0 115 25.5t39 68.5q0 38 -29.5 58.5t-111.5 27.5l-111 12q-157 15 -240 92.5t-83 210.5q0 147 107.5 232.5t299.5 85.5q121 0 225 -33.5t177 -89.5q15 -15 2 -31l-115 -141q-12 -14 -29 -4q-127 80 -268 80q-61 0 -93 -22t-32 -60q0 -36 28.5 -55.5t108.5 -26.5l109 -13
q330 -33 330 -301q-2 -155 -118 -247.5t-325 -92.5z" />
    <glyph glyph-name="Scedilla" unicode="&#x15e;" horiz-adv-x="1218" 
d="M610 -328h-198q-9 0 -13.5 6t-1.5 15l117 289q-141 19 -258 67.5t-190 118.5q-18 18 -3 35l156 178q13 16 31 2q178 -143 364 -143q107 0 167.5 45.5t60.5 120.5q0 64 -47.5 101t-167.5 54l-74 10q-440 61 -440 418q0 193 134 309.5t359 116.5q137 0 260.5 -38.5
t212.5 -106.5q18 -12 4 -31l-125 -186q-12 -15 -28 -6q-161 106 -324 106q-90 0 -138 -42t-48 -110q0 -62 50 -99t167 -54l74 -10q219 -30 328.5 -133t109.5 -289q0 -166 -107.5 -282.5t-308.5 -147.5l-90 -293q-6 -21 -33 -21z" />
    <glyph glyph-name="scedilla" unicode="&#x15f;" horiz-adv-x="1034" 
d="M518 -328h-199q-9 0 -13 6t-1 15l119 291q-212 21 -356 147q-14 15 0 29l133 149q12 12 28 0q66 -51 146 -79.5t157 -28.5q76 0 115 25.5t39 68.5q0 38 -29.5 58.5t-111.5 27.5l-111 12q-157 15 -240 92.5t-83 210.5q0 147 107.5 232.5t299.5 85.5q121 0 225 -33.5
t177 -89.5q15 -15 2 -31l-115 -141q-12 -14 -29 -4q-127 80 -268 80q-61 0 -93 -22t-32 -60q0 -36 28.5 -55.5t108.5 -26.5l109 -13q330 -33 330 -301q-2 -127 -85 -214.5t-235 -114.5l-90 -295q-6 -21 -33 -21z" />
    <glyph glyph-name="Scaron" unicode="&#x160;" horiz-adv-x="1218" 
d="M602 -23q-157 0 -303.5 54.5t-232.5 136.5q-18 18 -3 35l156 178q13 16 31 2q178 -143 364 -143q107 0 167.5 45.5t60.5 120.5q0 64 -47.5 101t-167.5 54l-74 10q-440 61 -440 418q0 193 134 309.5t359 116.5q137 0 260.5 -38.5t212.5 -106.5q18 -12 4 -31l-125 -186
q-12 -15 -28 -6q-161 106 -324 106q-90 0 -138 -42t-48 -110q0 -62 50 -99t167 -54l74 -10q219 -30 328.5 -133t109.5 -289q0 -196 -142.5 -317.5t-404.5 -121.5zM690 1524h-153q-25 0 -39 20l-211 266q-6 8 -3.5 14.5t11.5 6.5h164q24 0 45 -21l106 -110h4l109 110
q21 21 45 21h164q9 0 11.5 -6.5t-3.5 -14.5l-213 -266q-14 -20 -37 -20z" />
    <glyph glyph-name="scaron" unicode="&#x161;" horiz-adv-x="1034" 
d="M592 1120h-154q-22 0 -37 21l-213 268q-6 7 -2 14t13 7h161q25 0 46 -21l108 -111h4l107 111q21 21 45 21h164q9 0 11.5 -7t-3.5 -14l-211 -268q-15 -21 -39 -21zM518 -23q-273 0 -450 154q-14 15 0 29l133 149q12 12 28 0q66 -51 146 -79.5t157 -28.5q76 0 115 25.5
t39 68.5q0 38 -29.5 58.5t-111.5 27.5l-111 12q-157 15 -240 92.5t-83 210.5q0 147 107.5 232.5t299.5 85.5q121 0 225 -33.5t177 -89.5q15 -15 2 -31l-115 -141q-12 -14 -29 -4q-127 80 -268 80q-61 0 -93 -22t-32 -60q0 -36 28.5 -55.5t108.5 -26.5l109 -13
q330 -33 330 -301q-2 -155 -118 -247.5t-325 -92.5z" />
    <glyph glyph-name="uni0162" unicode="&#x162;" horiz-adv-x="1142" 
d="M469 -487q-23 0 -23 24v340q0 9 6 15t15 6h209q20 0 20 -21v-162q0 -27 -16 -41l-178 -145q-19 -16 -33 -16zM702 0h-260q-20 0 -20 20v1092q0 12 -12 12h-353q-20 0 -20 21v227q0 21 20 21h1030q9 0 15 -6t6 -15v-227q0 -9 -6 -15t-15 -6h-352q-12 0 -12 -12v-1092
q0 -20 -21 -20z" />
    <glyph glyph-name="uni0163" unicode="&#x163;" horiz-adv-x="677" 
d="M281 -487q-23 0 -23 24v340q0 9 6 15t15 6h208q9 0 15 -6t6 -15v-162q0 -27 -16 -41l-179 -145q-19 -16 -32 -16zM573 -12h-108q-170 0 -242.5 78t-72.5 251v451q0 12 -13 12h-61q-9 0 -15 6t-6 15v170q0 20 21 20h61q13 0 13 13v266q0 20 20 20h244q20 0 20 -20v-266
q0 -13 12 -13h127q21 0 21 -20v-170q0 -9 -6 -15t-15 -6h-127q-12 0 -12 -12v-438q0 -55 20 -77t70 -22h49q21 0 21 -20v-203q0 -20 -21 -20z" />
    <glyph glyph-name="Tcaron" unicode="&#x164;" horiz-adv-x="1142" 
d="M647 1524h-153q-25 0 -39 20l-211 266q-6 8 -3.5 14.5t11.5 6.5h164q24 0 45 -21l106 -110h4l109 110q21 21 45 21h164q9 0 11.5 -6.5t-3.5 -14.5l-213 -266q-14 -20 -37 -20zM702 0h-260q-20 0 -20 20v1092q0 12 -12 12h-353q-20 0 -20 21v227q0 21 20 21h1030
q9 0 15 -6t6 -15v-227q0 -9 -6 -15t-15 -6h-352q-12 0 -12 -12v-1092q0 -20 -21 -20z" />
    <glyph glyph-name="tcaron" unicode="&#x165;" horiz-adv-x="700" 
d="M602 999q-10 0 -16 7t-6 16v350q0 21 20 21h197q20 0 20 -21v-172q0 -27 -16 -41l-168 -145q-15 -15 -31 -15zM573 -12h-108q-170 0 -242.5 78t-72.5 251v451q0 12 -13 12h-61q-9 0 -15 6t-6 15v170q0 20 21 20h61q13 0 13 13v266q0 20 20 20h244q20 0 20 -20v-266
q0 -13 12 -13h127q21 0 21 -20v-170q0 -9 -6 -15t-15 -6h-127q-12 0 -12 -12v-438q0 -55 20 -77t70 -22h49q21 0 21 -20v-203q0 -20 -21 -20z" />
    <glyph glyph-name="Tbar" unicode="&#x166;" horiz-adv-x="1142" 
d="M702 0h-260q-20 0 -20 20v615q0 12 -12 12h-183q-20 0 -20 21v180q0 20 20 20h183q12 0 12 13v231q0 12 -12 12h-353q-20 0 -20 21v227q0 21 20 21h1030q9 0 15 -6t6 -15v-227q0 -9 -6 -15t-15 -6h-352q-12 0 -12 -12v-231q0 -13 12 -13h183q20 0 20 -20v-180
q0 -21 -20 -21h-183q-12 0 -12 -12v-615q0 -20 -21 -20z" />
    <glyph glyph-name="tbar" unicode="&#x167;" horiz-adv-x="677" 
d="M573 -12h-108q-170 0 -242.5 78t-72.5 251v158q0 12 -13 12h-41q-20 0 -20 21v137q0 21 20 21h41q13 0 13 12v90q0 12 -13 12h-61q-9 0 -15 6t-6 15v170q0 20 21 20h61q13 0 13 13v266q0 20 20 20h244q20 0 20 -20v-266q0 -13 12 -13h127q21 0 21 -20v-170q0 -9 -6 -15
t-15 -6h-127q-12 0 -12 -12v-90q0 -12 12 -12h103q20 0 20 -21v-137q0 -21 -20 -21h-103q-12 0 -12 -12v-145q0 -55 20 -77t70 -22h49q21 0 21 -20v-203q0 -20 -21 -20z" />
    <glyph glyph-name="Utilde" unicode="&#x168;" horiz-adv-x="1320" 
d="M791 1532q-70 0 -154 43q-63 37 -119 37q-40 0 -72 -16t-73 -48q-7 -6 -13 -4t-6 8v148q0 23 17 43q72 72 157 72q70 0 154 -43q66 -37 119 -37q40 0 72 15.5t73 47.5q8 6 14.5 4t6.5 -8v-147q0 -24 -19 -43q-69 -72 -157 -72zM662 -23q-241 0 -388 140.5t-147 394.5v860
q0 21 20 21h261q20 0 20 -21v-868q0 -123 63.5 -191.5t170.5 -68.5q106 0 168.5 68.5t62.5 191.5v868q0 21 20 21h261q20 0 20 -21v-860q0 -254 -146.5 -394.5t-385.5 -140.5z" />
    <glyph glyph-name="utilde" unicode="&#x169;" horiz-adv-x="1124" 
d="M975 0h-246q-20 0 -20 20v72h-2q-86 -115 -254 -115q-160 0 -247 101.5t-87 267.5v625q0 20 20 20h246q21 0 21 -20v-570q0 -82 39 -131t112 -49q72 0 112 48.5t40 131.5v570q0 20 20 20h246q20 0 20 -20v-951q0 -20 -20 -20zM690 1130q-30 0 -58.5 7t-45.5 15t-49 24
q-70 36 -119 36q-67 0 -146 -65q-8 -6 -13 -4t-5 10v147q0 22 16 41q74 74 158 74q66 0 154 -45q66 -32 98 -36q10 -1 20 -1q40 0 73 16.5t73 49.5q8 6 14 4t6 -10v-148q0 -23 -18 -41q-71 -74 -158 -74z" />
    <glyph glyph-name="Umacron" unicode="&#x16a;" horiz-adv-x="1320" 
d="M950 1579h-579q-21 0 -21 20v156q0 9 6 15t15 6h579q9 0 15 -6t6 -15v-156q0 -20 -21 -20zM662 -23q-241 0 -388 140.5t-147 394.5v860q0 21 20 21h261q20 0 20 -21v-868q0 -123 63.5 -191.5t170.5 -68.5q106 0 168.5 68.5t62.5 191.5v868q0 21 20 21h261q20 0 20 -21
v-860q0 -254 -146.5 -394.5t-385.5 -140.5z" />
    <glyph glyph-name="umacron" unicode="&#x16b;" horiz-adv-x="1124" 
d="M975 0h-246q-20 0 -20 20v72h-2q-86 -115 -254 -115q-160 0 -247 101.5t-87 267.5v625q0 20 20 20h246q21 0 21 -20v-570q0 -82 39 -131t112 -49q72 0 112 48.5t40 131.5v570q0 20 20 20h246q20 0 20 -20v-951q0 -20 -20 -20zM850 1178h-580q-20 0 -20 20v154q0 20 20 20
h580q20 0 20 -20v-154q0 -20 -20 -20z" />
    <glyph glyph-name="Ubreve" unicode="&#x16c;" horiz-adv-x="1320" 
d="M659 1524q-136 0 -222 75.5t-91 192.5q0 23 21 23h118q21 0 27 -23q35 -86 147 -86q116 0 146 86q9 23 29 23h116q10 0 16.5 -7t6.5 -16q-6 -117 -92.5 -192.5t-221.5 -75.5zM662 -23q-241 0 -388 140.5t-147 394.5v860q0 21 20 21h261q20 0 20 -21v-868
q0 -123 63.5 -191.5t170.5 -68.5q106 0 168.5 68.5t62.5 191.5v868q0 21 20 21h261q20 0 20 -21v-860q0 -254 -146.5 -394.5t-385.5 -140.5z" />
    <glyph glyph-name="ubreve" unicode="&#x16d;" horiz-adv-x="1124" 
d="M975 0h-246q-20 0 -20 20v72h-2q-86 -115 -254 -115q-160 0 -247 101.5t-87 267.5v625q0 20 20 20h246q21 0 21 -20v-570q0 -82 39 -131t112 -49q72 0 112 48.5t40 131.5v570q0 20 20 20h246q20 0 20 -20v-951q0 -20 -20 -20zM561 1118q-136 0 -222 75.5t-91 192.5
q0 21 20 21h119q21 0 27 -21q34 -88 147 -88q116 0 146 88q9 21 28 21h117q22 0 22 -21q-6 -117 -92 -192.5t-221 -75.5z" />
    <glyph glyph-name="Uring" unicode="&#x16e;" horiz-adv-x="1320" 
d="M662 -23q-241 0 -388 140.5t-147 394.5v860q0 21 20 21h261q20 0 20 -21v-868q0 -123 63.5 -191.5t170.5 -68.5q106 0 168.5 68.5t62.5 191.5v868q0 21 20 21h261q20 0 20 -21v-860q0 -254 -146.5 -394.5t-385.5 -140.5zM659 1458q-94 0 -156.5 62.5t-62.5 156.5
t62.5 155.5t156.5 61.5t157 -62t63 -155q0 -94 -63 -156.5t-157 -62.5zM659 1579q40 0 67.5 28t27.5 70q0 41 -27.5 70t-67.5 29q-41 0 -68.5 -28.5t-27.5 -70.5q0 -43 27.5 -70.5t68.5 -27.5z" />
    <glyph glyph-name="uring" unicode="&#x16f;" horiz-adv-x="1124" 
d="M561 1073q-94 0 -156.5 61.5t-62.5 155.5q0 95 62.5 157t156.5 62t156.5 -62t62.5 -157q0 -94 -62.5 -155.5t-156.5 -61.5zM561 1192q40 0 67 28.5t27 69.5q0 43 -27 72t-67 29q-41 0 -68.5 -29t-27.5 -72q0 -41 27.5 -69.5t68.5 -28.5zM975 0h-246q-20 0 -20 20v72h-2
q-86 -115 -254 -115q-160 0 -247 101.5t-87 267.5v625q0 20 20 20h246q21 0 21 -20v-570q0 -82 39 -131t112 -49q72 0 112 48.5t40 131.5v570q0 20 20 20h246q20 0 20 -20v-951q0 -20 -20 -20z" />
    <glyph glyph-name="Uhungarumlaut" unicode="&#x170;" horiz-adv-x="1320" 
d="M662 -23q-241 0 -388 140.5t-147 394.5v860q0 21 20 21h261q20 0 20 -21v-868q0 -123 63.5 -191.5t170.5 -68.5q106 0 168.5 68.5t62.5 191.5v868q0 21 20 21h261q20 0 20 -21v-860q0 -254 -146.5 -394.5t-385.5 -140.5zM901 1548h-166q-9 0 -12 7t2 14l141 229
q12 21 35 21h199q9 0 11.5 -6.5t-3.5 -14.5l-168 -229q-16 -21 -39 -21zM549 1548h-166q-9 0 -12 7t2 14l143 229q12 21 35 21h199q9 0 11.5 -6.5t-3.5 -14.5l-170 -229q-13 -21 -39 -21z" />
    <glyph glyph-name="uhungarumlaut" unicode="&#x171;" horiz-adv-x="1124" 
d="M975 0h-246q-20 0 -20 20v72h-2q-86 -115 -254 -115q-160 0 -247 101.5t-87 267.5v625q0 20 20 20h246q21 0 21 -20v-570q0 -82 39 -131t112 -49q72 0 112 48.5t40 131.5v570q0 20 20 20h246q20 0 20 -20v-951q0 -20 -20 -20zM813 1124h-168q-9 0 -12.5 6t0.5 15l137 268
q10 21 33 21h198q9 0 12.5 -7t-1.5 -14l-164 -268q-12 -21 -35 -21zM461 1124h-166q-9 0 -12.5 6t0.5 15l137 268q10 21 33 21h198q9 0 12.5 -7t-1.5 -14l-164 -268q-15 -21 -37 -21z" />
    <glyph glyph-name="Uogonek" unicode="&#x172;" horiz-adv-x="1320" 
d="M684 -391q-96 0 -153.5 50.5t-57.5 137.5q0 94 88 189q-200 27 -317 164t-117 362v860q0 21 20 21h261q20 0 20 -21v-868q0 -123 63.5 -191.5t170.5 -68.5q106 0 168.5 68.5t62.5 191.5v868q0 21 20 21h261q20 0 20 -21v-860q0 -212 -103.5 -345t-279.5 -173
q-69 -53 -95 -86.5t-26 -61.5q0 -43 43 -43q18 0 49 17q18 9 27 -8l65 -121q9 -15 -8 -29q-79 -53 -182 -53z" />
    <glyph glyph-name="uogonek" unicode="&#x173;" horiz-adv-x="1126" 
d="M801 -391q-96 0 -153.5 50.5t-57.5 137.5q0 62 32 107.5t103 95.5q-16 3 -16 20v72h-2q-86 -115 -254 -115q-160 0 -247 101.5t-87 267.5v625q0 20 20 20h246q21 0 21 -20v-570q0 -82 39 -131t112 -49q72 0 112 48.5t40 131.5v570q0 20 20 20h246q20 0 20 -20v-951
q0 -14 -12 -20q-97 -49 -136.5 -85t-39.5 -69q0 -43 45 -43q15 0 49 17q18 11 27 -8l63 -121q9 -15 -8 -29q-79 -53 -182 -53z" />
    <glyph glyph-name="Wcircumflex" unicode="&#x174;" horiz-adv-x="1771" 
d="M1362 0h-205q-20 0 -27 20l-241 867h-4l-244 -867q-7 -20 -27 -20h-204q-18 0 -25 20l-360 1352q-3 21 16 21h264q21 0 25 -21l200 -874h5l237 874q7 21 27 21h178q17 0 24 -21l246 -874h4l193 874q3 21 24 21h263q19 0 16 -21l-358 -1352q-3 -20 -27 -20zM1204 1530
h-164q-25 0 -45 20l-108 111h-4l-107 -111q-20 -20 -45 -20h-164q-9 0 -11.5 6t3.5 14l211 269q14 20 39 20h154q22 0 36 -20l213 -269q6 -8 3.5 -14t-11.5 -6z" />
    <glyph glyph-name="wcircumflex" unicode="&#x175;" horiz-adv-x="1562" 
d="M1098 1126h-164q-24 0 -45 21l-107 110h-4l-108 -110q-21 -21 -45 -21h-162q-9 0 -12.5 7t2.5 14l213 268q15 21 36 21h154q24 0 39 -21l211 -268q6 -7 3.5 -14t-11.5 -7zM1184 0h-205q-18 0 -25 20l-170 576h-4l-174 -576q-7 -20 -24 -20h-203q-18 0 -25 20l-317 951
q-3 9 1 14.5t13 5.5h252q23 0 29 -20l164 -590h4l170 590q6 20 28 20h172q21 0 27 -20l174 -590h4l156 590q6 20 26 20h252q11 0 15.5 -5.5t1.5 -14.5l-318 -951q-7 -20 -24 -20z" />
    <glyph glyph-name="Ycircumflex" unicode="&#x176;" horiz-adv-x="1163" 
d="M711 0h-260q-21 0 -21 20v535l-412 817q-3 8 1 14.5t14 6.5h266q22 0 31 -21l252 -508h6l252 508q9 21 30 21h258q10 0 15 -6.5t0 -14.5l-412 -817v-535q0 -20 -20 -20zM897 1530h-164q-25 0 -45 20l-108 111h-5l-106 -111q-20 -20 -45 -20h-164q-9 0 -11.5 6t3.5 14
l211 269q14 20 39 20h153q23 0 37 -20l213 -269q6 -8 3.5 -14t-11.5 -6z" />
    <glyph glyph-name="ycircumflex" unicode="&#x177;" horiz-adv-x="1038" 
d="M260 -369h-70q-20 0 -20 21v201q0 20 20 20h43q54 0 85.5 23.5t50.5 78.5l26 74l-368 922q-3 9 2 14.5t14 5.5h262q18 0 25 -20l198 -574h4l185 574q7 20 24 20h254q11 0 15.5 -5.5t1.5 -14.5l-402 -1055q-62 -163 -138.5 -224t-211.5 -61zM840 1126h-164q-24 0 -45 21
l-107 110h-4l-108 -110q-21 -21 -45 -21h-162q-9 0 -12.5 7t2.5 14l213 268q15 21 36 21h154q24 0 39 -21l211 -268q6 -7 3.5 -14t-11.5 -7z" />
    <glyph glyph-name="Ydieresis" unicode="&#x178;" horiz-adv-x="1163" 
d="M711 0h-260q-21 0 -21 20v535l-412 817q-3 8 1 14.5t14 6.5h266q22 0 31 -21l252 -508h6l252 508q9 21 30 21h258q10 0 15 -6.5t0 -14.5l-412 -817v-535q0 -20 -20 -20zM881 1556h-185q-20 0 -20 21v201q0 20 20 20h185q20 0 20 -20v-201q0 -21 -20 -21zM465 1556h-184
q-9 0 -15 6t-6 15v201q0 20 21 20h184q20 0 20 -20v-201q0 -21 -20 -21z" />
    <glyph glyph-name="Zacute" unicode="&#x179;" horiz-adv-x="1118" 
d="M1016 0h-914q-20 0 -20 20v226q0 11 6 20l600 854v4h-563q-9 0 -15 6t-6 15v227q0 9 6 15t15 6h891q20 0 20 -21v-225q0 -12 -6 -21l-602 -854v-4h588q20 0 20 -20v-228q0 -20 -20 -20zM610 1544h-190q-9 0 -11.5 7t3.5 14l194 235q17 21 39 21h246q9 0 13 -6.5t-3 -14.5
l-252 -237q-19 -19 -39 -19z" />
    <glyph glyph-name="zacute" unicode="&#x17a;" horiz-adv-x="1003" 
d="M565 1128h-186q-9 0 -12.5 6t0.5 15l157 266q12 21 37 21h236q9 0 12.5 -7t-2.5 -14l-203 -266q-16 -21 -39 -21zM889 0h-774q-21 0 -21 20v185q0 11 6 20l471 527v4h-430q-20 0 -20 20v195q0 20 20 20h748q20 0 20 -20v-195q0 -11 -6 -20l-467 -516v-4h453q20 0 20 -21
v-195q0 -20 -20 -20z" />
    <glyph glyph-name="Zdotaccent" unicode="&#x17b;" horiz-adv-x="1118" 
d="M676 1556h-236q-20 0 -20 21v201q0 20 20 20h236q20 0 20 -20v-201q0 -21 -20 -21zM1016 0h-914q-20 0 -20 20v226q0 11 6 20l600 854v4h-563q-9 0 -15 6t-6 15v227q0 9 6 15t15 6h891q20 0 20 -21v-225q0 -12 -6 -21l-602 -854v-4h588q20 0 20 -20v-228q0 -20 -20 -20z
" />
    <glyph glyph-name="zdotaccent" unicode="&#x17c;" horiz-adv-x="1003" 
d="M889 0h-774q-21 0 -21 20v185q0 11 6 20l471 527v4h-430q-20 0 -20 20v195q0 20 20 20h748q20 0 20 -20v-195q0 -11 -6 -20l-467 -516v-4h453q20 0 20 -21v-195q0 -20 -20 -20zM627 1149h-236q-20 0 -20 20v203q0 21 20 21h236q20 0 20 -21v-203q0 -20 -20 -20z" />
    <glyph glyph-name="Zcaron" unicode="&#x17d;" horiz-adv-x="1118" 
d="M637 1524h-154q-25 0 -39 20l-211 266q-6 8 -3 14.5t12 6.5h164q24 0 45 -21l106 -110h4l109 110q21 21 45 21h164q9 0 11.5 -6.5t-3.5 -14.5l-213 -266q-14 -20 -37 -20zM1016 0h-914q-20 0 -20 20v226q0 11 6 20l600 854v4h-563q-9 0 -15 6t-6 15v227q0 9 6 15t15 6
h891q20 0 20 -21v-225q0 -12 -6 -21l-602 -854v-4h588q20 0 20 -20v-228q0 -20 -20 -20z" />
    <glyph glyph-name="zcaron" unicode="&#x17e;" horiz-adv-x="1003" 
d="M586 1120h-154q-22 0 -37 21l-213 268q-6 7 -2 14t13 7h161q24 0 45 -21l109 -111h4l106 111q21 21 46 21h163q9 0 12 -7t-3 -14l-211 -268q-15 -21 -39 -21zM889 0h-774q-21 0 -21 20v185q0 11 6 20l471 527v4h-430q-20 0 -20 20v195q0 20 20 20h748q20 0 20 -20v-195
q0 -11 -6 -20l-467 -516v-4h453q20 0 20 -21v-195q0 -20 -20 -20z" />
    <glyph glyph-name="florin" unicode="&#x192;" 
d="M920 641h-193l-100 -659q-31 -192 -119 -271.5t-266 -79.5h-66q-20 0 -20 21v198q0 21 20 21h39q65 0 95 24.5t40 92.5l99 653h-125q-9 0 -15 6t-6 15v172q0 20 21 20h157l31 195q29 184 118 264t263 80h70q20 0 20 -21v-198q0 -21 -20 -21h-43q-59 0 -90.5 -26.5
t-41.5 -86.5l-28 -186h160q20 0 20 -20v-172q0 -21 -20 -21z" />
    <glyph glyph-name="Scommaaccent" unicode="&#x218;" horiz-adv-x="1218" 
d="M504 -487q-23 0 -23 24v340q0 9 6 15t15 6h209q20 0 20 -21v-162q0 -27 -16 -41l-178 -145q-19 -16 -33 -16zM602 -23q-157 0 -303.5 54.5t-232.5 136.5q-18 18 -3 35l156 178q13 16 31 2q178 -143 364 -143q107 0 167.5 45.5t60.5 120.5q0 64 -47.5 101t-167.5 54
l-74 10q-440 61 -440 418q0 193 134 309.5t359 116.5q137 0 260.5 -38.5t212.5 -106.5q18 -12 4 -31l-125 -186q-12 -15 -28 -6q-161 106 -324 106q-90 0 -138 -42t-48 -110q0 -62 50 -99t167 -54l74 -10q219 -30 328.5 -133t109.5 -289q0 -196 -142.5 -317.5t-404.5 -121.5
z" />
    <glyph glyph-name="scommaaccent" unicode="&#x219;" horiz-adv-x="1034" 
d="M420 -487q-23 0 -23 24v340q0 9 6 15t15 6h209q20 0 20 -21v-162q0 -27 -16 -41l-178 -145q-19 -16 -33 -16zM518 -23q-273 0 -450 154q-14 15 0 29l133 149q12 12 28 0q66 -51 146 -79.5t157 -28.5q76 0 115 25.5t39 68.5q0 38 -29.5 58.5t-111.5 27.5l-111 12
q-157 15 -240 92.5t-83 210.5q0 147 107.5 232.5t299.5 85.5q121 0 225 -33.5t177 -89.5q15 -15 2 -31l-115 -141q-12 -14 -29 -4q-127 80 -268 80q-61 0 -93 -22t-32 -60q0 -36 28.5 -55.5t108.5 -26.5l109 -13q330 -33 330 -301q-2 -155 -118 -247.5t-325 -92.5z" />
    <glyph glyph-name="uni021A" unicode="&#x21a;" horiz-adv-x="1142" 
d="M469 -487q-23 0 -23 24v340q0 9 6 15t15 6h209q20 0 20 -21v-162q0 -27 -16 -41l-178 -145q-19 -16 -33 -16zM702 0h-260q-20 0 -20 20v1092q0 12 -12 12h-353q-20 0 -20 21v227q0 21 20 21h1030q9 0 15 -6t6 -15v-227q0 -9 -6 -15t-15 -6h-352q-12 0 -12 -12v-1092
q0 -20 -21 -20z" />
    <glyph glyph-name="uni021B" unicode="&#x21b;" horiz-adv-x="677" 
d="M281 -487q-23 0 -23 24v340q0 9 6 15t15 6h208q9 0 15 -6t6 -15v-162q0 -27 -16 -41l-179 -145q-19 -16 -32 -16zM573 -12h-108q-170 0 -242.5 78t-72.5 251v451q0 12 -13 12h-61q-9 0 -15 6t-6 15v170q0 20 21 20h61q13 0 13 13v266q0 20 20 20h244q20 0 20 -20v-266
q0 -13 12 -13h127q21 0 21 -20v-170q0 -9 -6 -15t-15 -6h-127q-12 0 -12 -12v-438q0 -55 20 -77t70 -22h49q21 0 21 -20v-203q0 -20 -21 -20z" />
    <glyph glyph-name="dotlessj" unicode="&#x237;" horiz-adv-x="544" 
d="M45 -369h-68q-20 0 -20 21v201q0 20 20 20h41q61 0 86 24.5t25 90.5v983q0 20 21 20h245q21 0 21 -20v-981q0 -185 -93.5 -272t-277.5 -87z" />
    <glyph glyph-name="circumflex" unicode="&#x2c6;" horiz-adv-x="929" 
d="M782 1126h-164q-24 0 -45 21l-106 110h-4l-109 -110q-21 -21 -45 -21h-162q-9 0 -12.5 7t2.5 14l213 268q15 21 37 21h154q24 0 39 -21l211 -268q6 -7 3 -14t-12 -7z" />
    <glyph glyph-name="caron" unicode="&#x2c7;" horiz-adv-x="929" 
d="M541 1120h-154q-22 0 -37 21l-213 268q-6 7 -2.5 14t12.5 7h162q24 0 45 -21l109 -111h4l106 111q21 21 45 21h164q9 0 12 -7t-3 -14l-211 -268q-15 -21 -39 -21z" />
    <glyph glyph-name="uni02C9" unicode="&#x2c9;" horiz-adv-x="929" 
d="M754 1579h-580q-20 0 -20 20v156q0 21 20 21h580q20 0 20 -21v-156q0 -20 -20 -20z" />
    <glyph glyph-name="breve" unicode="&#x2d8;" horiz-adv-x="929" 
d="M465 1118q-136 0 -222 75.5t-91 192.5q0 21 20 21h119q20 0 26 -21q34 -88 148 -88q115 0 145 88q9 21 29 21h117q22 0 22 -21q-6 -117 -92 -192.5t-221 -75.5z" />
    <glyph glyph-name="dotaccent" unicode="&#x2d9;" horiz-adv-x="929" 
d="M582 1149h-236q-20 0 -20 20v203q0 21 20 21h236q20 0 20 -21v-203q0 -20 -20 -20z" />
    <glyph glyph-name="ring" unicode="&#x2da;" horiz-adv-x="929" 
d="M465 1073q-94 0 -156.5 61.5t-62.5 155.5q0 95 62.5 157t156.5 62t156.5 -62t62.5 -157q0 -94 -62.5 -155.5t-156.5 -61.5zM465 1192q40 0 67 28.5t27 69.5q0 43 -27 72t-67 29q-41 0 -68.5 -29t-27.5 -72q0 -41 27.5 -69.5t68.5 -28.5z" />
    <glyph glyph-name="ogonek" unicode="&#x2db;" horiz-adv-x="929" 
d="M446 -391q-96 0 -153 50.5t-57 137.5q0 117 122 203q26 20 52 20h213q9 0 10 -8t-8 -12q-94 -49 -133 -85.5t-39 -68.5q0 -43 43 -43q17 0 51 17q17 10 26 -8l64 -121q9 -15 -8 -29q-79 -53 -183 -53z" />
    <glyph glyph-name="tilde" unicode="&#x2dc;" horiz-adv-x="929" 
d="M592 1130q-30 0 -58.5 7t-46.5 15t-49 24q-70 36 -119 36q-41 0 -73 -16t-72 -49q-8 -6 -13 -4t-5 10v147q0 22 16 41q74 74 158 74q43 0 75 -11t78 -34q76 -37 119 -37q40 0 73 16.5t73 49.5q8 6 14 4t6 -10v-148q0 -23 -18 -41q-71 -74 -158 -74z" />
    <glyph glyph-name="hungarumlaut" unicode="&#x2dd;" horiz-adv-x="929" 
d="M639 1124h-168q-9 0 -12.5 6t0.5 15l137 268q10 21 33 21h198q9 0 12.5 -7t-1.5 -14l-164 -268q-12 -21 -35 -21zM287 1124h-166q-9 0 -12.5 6t0.5 15l137 268q10 21 33 21h198q9 0 12 -7t-2 -14l-163 -268q-15 -21 -37 -21z" />
    <glyph glyph-name="uni0394" unicode="&#x394;" horiz-adv-x="1331" 
d="M1282 0h-1233q-9 0 -13 5.5t-1 14.5l479 1352q7 21 27 21h258q19 0 26 -21l471 -1352q3 -9 -1 -14.5t-13 -5.5zM903 248q13 0 10 12l-243 748h-6l-246 -748q-3 -12 10 -12h475z" />
    <glyph glyph-name="uni03A9" unicode="&#x3a9;" horiz-adv-x="1302" 
d="M1184 0h-436q-21 0 -21 20v207q0 23 18 29q84 31 119 130.5t35 309.5q0 212 -25 299q-23 74 -81 114t-142 40t-141 -40t-82 -114q-25 -77 -25 -299q0 -209 35 -309t117 -131q20 -6 20 -29v-207q0 -20 -20 -20h-436q-21 0 -21 20v213q0 9 6 15t15 6h117v4
q-71 55 -104.5 155.5t-33.5 282.5q0 156 8.5 232.5t30.5 144.5q56 168 190.5 255t323.5 87t323.5 -87t190.5 -255q22 -68 30.5 -144.5t8.5 -232.5q0 -183 -33.5 -283t-105.5 -155v-4h119q20 0 20 -21v-213q0 -20 -20 -20z" />
    <glyph glyph-name="uni03BC" unicode="&#x3bc;" horiz-adv-x="1232" 
d="M778 125q-44 -79 -101.5 -109t-150.5 -30q-29 0 -61 8.5t-49 21.5h-2v-364q0 -9 -6 -15t-15 -6h-246q-20 0 -20 21v1319q0 20 20 20h246q21 0 21 -20v-568q0 -85 38.5 -132.5t112.5 -47.5q77 0 122.5 52t45.5 147v549q0 20 21 20h245q21 0 21 -20v-670q0 -38 12.5 -54
t46.5 -16q21 0 21 -20v-193q0 -30 -23 -30h-35q-68 0 -114.5 9.5t-74.5 30t-43 41.5t-30 56h-2z" />
    <glyph glyph-name="pi" unicode="&#x3c0;" horiz-adv-x="1239" 
d="M1112 -12h-63q-158 0 -228.5 75t-70.5 238v430q0 12 -13 12h-256q-12 0 -12 -12v-711q0 -20 -20 -20h-244q-21 0 -21 20v711q0 12 -12 12h-90q-9 0 -15 6t-6 15v207q0 20 21 20h1055q20 0 20 -20v-207q0 -21 -20 -21h-90q-13 0 -13 -12v-416q0 -47 15.5 -65.5t52.5 -18.5
h10q21 0 21 -20v-203q0 -20 -21 -20z" />
    <glyph glyph-name="uni0400" unicode="&#x400;" horiz-adv-x="1157" 
d="M154 0q-21 0 -21 20v1352q0 9 6 15t15 6h893q20 0 20 -21v-219q0 -20 -20 -20h-601q-12 0 -12 -13v-276q0 -13 12 -13h500q21 0 21 -20v-217q0 -9 -6 -15t-15 -6h-500q-12 0 -12 -12v-289q0 -12 12 -12h601q20 0 20 -20v-220q0 -20 -20 -20h-893zM737 1544h-190
q-20 0 -39 19l-252 237q-7 8 -3 14.5t13 6.5h246q22 0 39 -21l194 -235q6 -7 3.5 -14t-11.5 -7z" />
    <glyph glyph-name="uni0401" unicode="&#x401;" horiz-adv-x="1157" 
d="M154 0q-21 0 -21 20v1352q0 9 6 15t15 6h893q20 0 20 -21v-219q0 -20 -20 -20h-601q-12 0 -12 -13v-276q0 -13 12 -13h500q21 0 21 -20v-217q0 -9 -6 -15t-15 -6h-500q-12 0 -12 -12v-289q0 -12 12 -12h601q20 0 20 -20v-220q0 -20 -20 -20h-893zM895 1556h-184
q-9 0 -15 6t-6 15v201q0 20 21 20h184q20 0 20 -20v-201q0 -21 -20 -21zM479 1556h-184q-9 0 -15 6t-6 15v201q0 20 21 20h184q21 0 21 -20v-201q0 -9 -6 -15t-15 -6z" />
    <glyph glyph-name="uni0402" unicode="&#x402;" horiz-adv-x="1536" 
d="M444 0q-20 0 -20 20v1092q0 12 -10 12h-359q-20 0 -20 21v227q0 21 20 21h1039q20 0 20 -21v-227q0 -21 -20 -21h-357q-12 0 -12 -12v-274q0 -8 5.5 -11.5t12.5 -1.5q172 43 324 43q60 0 116.5 -13.5t109.5 -44.5t92.5 -77.5t63.5 -118t24 -159.5q0 -214 -123.5 -334.5
t-376.5 -120.5h-64q-18 0 -18 20v222q0 18 20 18h50q103 0 156.5 42t53.5 134q0 80 -57 122t-141 42q-62 0 -127.5 -14t-104.5 -29q-16 -5 -16 -25v-512q0 -20 -20 -20h-261z" />
    <glyph glyph-name="uni0403" unicode="&#x403;" horiz-adv-x="1024" 
d="M154 0q-21 0 -21 20v1352q0 9 6 15t15 6h827q20 0 20 -21v-229q0 -19 -20 -19h-535q-12 0 -12 -12v-1092q0 -20 -20 -20h-260zM600 1544h-190q-9 0 -12 7t3 14l195 235q17 21 39 21h246q9 0 13 -6.5t-3 -14.5l-252 -237q-19 -19 -39 -19z" />
    <glyph glyph-name="uni0404" unicode="&#x404;" horiz-adv-x="1181" 
d="M645 -25q-181 0 -311.5 80.5t-188.5 235.5q-29 75 -39 161.5t-10 245.5q0 150 8.5 230t32.5 151q54 167 188 251.5t320 84.5q174 0 294.5 -74.5t180.5 -218.5q7 -21 -10 -28l-213 -95q-19 -8 -29 11q-36 73 -87.5 110t-131.5 37q-84 0 -145 -40t-84 -113
q-21 -63 -23 -158q0 -15 15 -15h370q7 0 13 -5t6 -15v-215q0 -18 -19 -18h-370q-15 0 -15 -15q3 -121 27 -186q25 -69 86.5 -105t138.5 -36q80 0 133 37.5t88 109.5q9 18 29 10l211 -96q19 -8 10 -29q-59 -141 -181 -217t-294 -76z" />
    <glyph glyph-name="uni0405" unicode="&#x405;" horiz-adv-x="1218" 
d="M602 -23q-157 0 -303.5 54.5t-232.5 136.5q-18 18 -3 35l156 178q13 16 31 2q178 -143 364 -143q107 0 167.5 45.5t60.5 120.5q0 64 -47.5 101t-167.5 54l-74 10q-440 61 -440 418q0 193 134 309.5t359 116.5q137 0 260.5 -38.5t212.5 -106.5q18 -12 4 -31l-125 -186
q-12 -15 -28 -6q-161 106 -324 106q-90 0 -138 -42t-48 -110q0 -62 50 -99t167 -54l74 -10q219 -30 328.5 -133t109.5 -289q0 -196 -142.5 -317.5t-404.5 -121.5z" />
    <glyph glyph-name="uni0406" unicode="&#x406;" horiz-adv-x="567" 
d="M133 20v1352q0 9 6 15t15 6h260q20 0 20 -21v-1352q0 -20 -20 -20h-260q-21 0 -21 20z" />
    <glyph glyph-name="uni0407" unicode="&#x407;" horiz-adv-x="567" 
d="M133 20v1352q0 9 6 15t15 6h260q20 0 20 -21v-1352q0 -20 -20 -20h-260q-21 0 -21 20zM584 1556h-185q-20 0 -20 21v201q0 20 20 20h185q20 0 20 -20v-201q0 -21 -20 -21zM168 1556h-184q-9 0 -15 6t-6 15v201q0 20 21 20h184q20 0 20 -20v-201q0 -21 -20 -21z" />
    <glyph glyph-name="uni0408" unicode="&#x408;" horiz-adv-x="1067" 
d="M43 156q-11 18 2 28l191 146q14 10 28 -4q30 -35 74 -58.5t96 -23.5q99 0 152 61.5t53 179.5v887q0 21 20 21h261q20 0 20 -21v-872q0 -254 -133.5 -388.5t-374.5 -134.5q-125 0 -231.5 50.5t-157.5 128.5z" />
    <glyph glyph-name="uni0409" unicode="&#x409;" horiz-adv-x="2068" 
d="M41 -8q-21 0 -21 20v230q0 18 21 18h27q39 0 70 10.5t62 41t51 81.5t33 138t13 204v639q0 19 20 19h914q18 0 18 -19v-469q0 -12 13 -12h249q233 0 363.5 -122t130.5 -322q0 -203 -130 -326t-364 -123h-544q-7 0 -13 6t-6 14v1092q0 12 -12 12h-332q-12 0 -12 -12v-395
q0 -269 -53.5 -430t-153.5 -228t-260 -67h-84zM1262 260h231q100 0 155.5 51.5t55.5 141.5q0 89 -54.5 135.5t-156.5 46.5h-231q-13 0 -13 -12v-351q0 -12 13 -12z" />
    <glyph glyph-name="uni040A" unicode="&#x40a;" horiz-adv-x="2015" 
d="M154 0q-21 0 -21 20v1352q0 9 6 15t15 6h260q20 0 20 -21v-498q0 -12 12 -12h455q12 0 12 12v498q0 9 6 15t15 6h260q20 0 20 -21v-498q0 -12 13 -12h272q207 0 330 -118t123 -310t-122.5 -313t-330.5 -121h-565q-21 0 -21 20v562q0 12 -12 12h-455q-12 0 -12 -12v-562
q0 -20 -20 -20h-260zM1227 260h243q84 0 132.5 47.5t48.5 126.5t-48.5 125.5t-132.5 46.5h-243q-13 0 -13 -12v-322q0 -12 13 -12z" />
    <glyph glyph-name="uni040B" unicode="&#x40b;" horiz-adv-x="1550" 
d="M444 0q-20 0 -20 20v1092q0 12 -10 12h-359q-20 0 -20 21v227q0 21 20 21h1039q20 0 20 -21v-227q0 -21 -20 -21h-357q-8 0 -12 -8v-276q0 -8 6.5 -12.5t13.5 -2.5q172 43 322 43q60 0 110 -8.5t100.5 -33t85 -64t56 -106t21.5 -154.5v-484q0 -18 -19 -18h-262
q-20 0 -20 18v424q0 82 -44.5 120t-121.5 38q-84 0 -215 -31q-33 -8 -33 -32v-517q0 -20 -20 -20h-261z" />
    <glyph glyph-name="uni040C" unicode="&#x40c;" horiz-adv-x="1320" 
d="M154 0q-21 0 -21 20v1352q0 9 6 15t15 6h260q20 0 20 -21v-520q0 -12 12 -12h99q116 0 164 121l88 217q50 125 123 174t196 49h86q8 0 14.5 -5.5t6.5 -15.5v-221q0 -18 -21 -18h-18q-56 0 -84.5 -20.5t-50.5 -73.5l-68 -170q-45 -119 -117 -148v-8q51 -14 82 -49t53 -94
l84 -224q21 -56 48 -75t81 -19h23q20 0 20 -18v-230q0 -20 -20 -20h-98q-126 0 -202 51t-122 174l-88 229q-27 73 -71.5 99t-110.5 26h-97q-12 0 -12 -12v-539q0 -20 -20 -20h-260zM743 1544h-190q-9 0 -11.5 7t3.5 14l194 235q17 21 39 21h246q9 0 13 -6.5t-3 -14.5
l-252 -237q-19 -19 -39 -19z" />
    <glyph glyph-name="uni040D" unicode="&#x40d;" horiz-adv-x="1368" 
d="M152 0q-9 0 -14 6t-5 14v1354q0 8 5.5 13.5t13.5 5.5h264q7 0 12.5 -5.5t5.5 -13.5v-856h6l508 858q11 17 29 17h240q18 0 18 -19v-1354q0 -8 -5.5 -14t-12.5 -6h-263q-9 0 -14.5 6t-5.5 14v859h-6l-508 -863q-10 -16 -29 -16h-239zM819 1544h-190q-20 0 -39 19l-252 237
q-7 8 -3 14.5t13 6.5h246q22 0 39 -21l194 -235q6 -7 3.5 -14t-11.5 -7z" />
    <glyph glyph-name="uni040E" unicode="&#x40e;" horiz-adv-x="1202" 
d="M618 1505q-262 0 -311 246q-6 26 10 29l138 18q18 3 24 -14q31 -94 139 -94q106 0 140 94q6 17 24 14l136 -18q16 -3 10 -29q-49 -246 -310 -246zM211 -8q-21 0 -21 20v230q0 18 21 18h82q64 0 99 22.5t54 65.5l29 64l-450 956q-5 12 -1 18.5t13 6.5h274q23 0 31 -19
l274 -616h7l241 616q8 19 29 19h274q21 0 11 -23l-486 -1134q-103 -244 -346 -244h-135z" />
    <glyph glyph-name="uni040F" unicode="&#x40f;" horiz-adv-x="1331" 
d="M545 -272q-7 0 -13 6t-6 14v240q0 12 -12 12h-362q-19 0 -19 18v1354q0 8 6 14.5t13 6.5h264q7 0 12.5 -6.5t5.5 -14.5v-1091q0 -13 12 -13h439q12 0 12 13v1091q0 8 5.5 14.5t12.5 6.5h265q7 0 12.5 -6.5t5.5 -14.5v-1354q0 -18 -20 -18h-361q-12 0 -12 -12v-240
q0 -8 -6 -14t-13 -6h-241z" />
    <glyph glyph-name="uni0410" unicode="&#x410;" horiz-adv-x="1318" 
d="M29 20l479 1352q7 21 27 21h258q19 0 26 -21l471 -1352q7 -20 -14 -20h-266q-21 0 -27 20l-80 244h-487l-78 -244q-6 -20 -27 -20h-268q-21 0 -14 20zM500 520h321l-157 488h-7z" />
    <glyph glyph-name="uni0411" unicode="&#x411;" horiz-adv-x="1251" 
d="M152 0q-7 0 -13 6t-6 14v1354q0 19 19 19h913q10 0 15 -6t5 -13v-223q0 -21 -20 -21h-619q-12 0 -12 -12v-248q0 -12 12 -12h273q207 0 329.5 -118t122.5 -310t-122 -311t-330 -119h-567zM446 256h244q84 0 132 47.5t48 126.5t-48 125.5t-132 46.5h-244q-12 0 -12 -12
v-322q0 -12 12 -12z" />
    <glyph glyph-name="uni0412" unicode="&#x412;" horiz-adv-x="1249" 
d="M154 0q-21 0 -21 20v1352q0 9 6 15t15 6h542q220 0 332.5 -99.5t112.5 -271.5q0 -205 -162 -295v-8q76 -29 131 -112.5t55 -200.5q0 -202 -126.5 -304t-356.5 -102h-528zM446 244h230q91 0 139.5 45.5t48.5 128.5q0 81 -48.5 127.5t-139.5 46.5h-230q-12 0 -12 -12v-324
q0 -12 12 -12zM446 823h213q86 0 134.5 43.5t48.5 120.5q0 76 -48.5 119t-134.5 43h-213q-12 0 -12 -12v-301q0 -13 12 -13z" />
    <glyph glyph-name="uni0413" unicode="&#x413;" horiz-adv-x="1024" 
d="M154 0q-21 0 -21 20v1352q0 9 6 15t15 6h827q20 0 20 -21v-229q0 -19 -20 -19h-535q-12 0 -12 -12v-1092q0 -20 -20 -20h-260z" />
    <glyph glyph-name="uni0414" unicode="&#x414;" horiz-adv-x="1406" 
d="M27 -272q-7 0 -12 6t-5 14v502q0 7 5.5 12.5t13.5 5.5h77q27 0 33 17q81 166 116.5 359t35.5 546v184q0 19 20 19h908q18 0 18 -21v-1091q0 -13 12 -13h115q8 0 14 -5.5t6 -12.5v-502q0 -8 -5.5 -14t-12.5 -6h-242q-6 0 -11 6t-5 14v240q0 12 -12 12h-797q-12 0 -12 -12
v-240q0 -8 -6 -14t-13 -6h-241zM461 268h463q12 0 12 13v831q0 12 -12 12h-328q-12 0 -12 -12v-20q0 -539 -135 -809q-4 -5 -1 -10t13 -5z" />
    <glyph glyph-name="uni0415" unicode="&#x415;" horiz-adv-x="1157" 
d="M154 0q-21 0 -21 20v1352q0 9 6 15t15 6h893q20 0 20 -21v-219q0 -20 -20 -20h-601q-12 0 -12 -13v-276q0 -13 12 -13h500q21 0 21 -20v-217q0 -9 -6 -15t-15 -6h-500q-12 0 -12 -12v-289q0 -12 12 -12h601q20 0 20 -20v-220q0 -20 -20 -20h-893z" />
    <glyph glyph-name="uni0416" unicode="&#x416;" horiz-adv-x="1992" 
d="M86 -10q-20 0 -20 20v230q0 18 20 18h18q53 0 83 20.5t51 75.5l81 224q43 117 138 143v8q-68 23 -119 148l-68 170q-22 54 -49 74t-84 20h-20q-21 0 -21 18v221q0 10 6.5 15.5t14.5 5.5h86q120 0 195 -51.5t124 -171.5l88 -217q49 -123 166 -123h58q12 0 12 12v522
q0 21 20 21h260q9 0 15 -6t6 -15v-522q0 -12 12 -12h55q117 0 166 123l88 217q49 120 124.5 171.5t195.5 51.5h86q20 0 20 -21v-221q0 -18 -20 -18h-21q-57 0 -84 -20t-49 -74l-67 -170q-51 -125 -119 -148v-8q94 -26 137 -143l82 -224q21 -55 50.5 -75.5t82.5 -20.5h21
q20 0 20 -18v-230q0 -20 -20 -20h-101q-123 0 -199.5 53.5t-121.5 173.5l-88 229q-29 74 -74 101.5t-109 27.5h-55q-12 0 -12 -12v-543q0 -20 -21 -20h-260q-20 0 -20 20v543q0 12 -12 12h-56q-65 0 -110 -27.5t-74 -101.5l-88 -229q-45 -121 -121.5 -174t-200.5 -53h-98z
" />
    <glyph glyph-name="uni0417" unicode="&#x417;" horiz-adv-x="1187" 
d="M580 -23q-351 0 -527 168q-13 11 0 31l127 180q3 5 11 5.5t14 -3.5q164 -120 350 -120q91 0 157 47t66 121q0 86 -57 131t-152 45h-149q-7 0 -13 5t-6 15v211q0 10 6 15.5t13 5.5h149q89 0 139 44.5t50 125.5q0 74 -56 113.5t-153 39.5q-164 0 -303 -104q-22 -12 -31 0
l-121 180q-11 19 2 29q206 153 477 153q227 0 358.5 -105.5t131.5 -287.5q0 -99 -46 -179.5t-128 -119.5v-4q89 -33 142.5 -118t53.5 -200q0 -190 -142 -307t-363 -117z" />
    <glyph glyph-name="uni0418" unicode="&#x418;" horiz-adv-x="1368" 
d="M152 0q-9 0 -14 6t-5 14v1354q0 8 5.5 13.5t13.5 5.5h264q7 0 12.5 -5.5t5.5 -13.5v-856h6l508 858q11 17 29 17h240q18 0 18 -19v-1354q0 -8 -5.5 -14t-12.5 -6h-263q-9 0 -14.5 6t-5.5 14v859h-6l-508 -863q-10 -16 -29 -16h-239z" />
    <glyph glyph-name="uni0419" unicode="&#x419;" horiz-adv-x="1368" 
d="M684 1505q-262 0 -311 246q-6 26 10 29l137 18q19 3 25 -14q31 -94 139 -94q105 0 139 94q6 17 25 14l135 -18q16 -3 10 -29q-49 -246 -309 -246zM152 0q-9 0 -14 6t-5 14v1354q0 8 5.5 13.5t13.5 5.5h264q7 0 12.5 -5.5t5.5 -13.5v-856h6l508 858q11 17 29 17h240
q18 0 18 -19v-1354q0 -8 -5.5 -14t-12.5 -6h-263q-9 0 -14.5 6t-5.5 14v859h-6l-508 -863q-10 -16 -29 -16h-239z" />
    <glyph glyph-name="uni041A" unicode="&#x41a;" horiz-adv-x="1320" 
d="M154 0q-21 0 -21 20v1352q0 9 6 15t15 6h260q20 0 20 -21v-520q0 -12 12 -12h99q116 0 164 121l88 217q50 125 123 174t196 49h86q8 0 14.5 -5.5t6.5 -15.5v-221q0 -18 -21 -18h-18q-56 0 -84.5 -20.5t-50.5 -73.5l-68 -170q-45 -119 -117 -148v-8q51 -14 82 -49t53 -94
l84 -224q21 -56 48 -75t81 -19h23q20 0 20 -18v-230q0 -20 -20 -20h-98q-126 0 -202 51t-122 174l-88 229q-27 73 -71.5 99t-110.5 26h-97q-12 0 -12 -12v-539q0 -20 -20 -20h-260z" />
    <glyph glyph-name="uni041B" unicode="&#x41b;" horiz-adv-x="1382" 
d="M41 -8q-21 0 -21 20v230q0 18 21 18h27q39 0 70 10.5t62 41t51 81.5t33 138t13 204v639q0 19 20 19h914q18 0 18 -19v-1354q0 -20 -16 -20h-266q-7 0 -13 6t-6 14v1092q0 12 -12 12h-332q-12 0 -12 -12v-395q0 -202 -28.5 -343t-87.5 -224.5t-141 -120.5t-196 -37h-98z
" />
    <glyph glyph-name="uni041C" unicode="&#x41c;" horiz-adv-x="1562" 
d="M154 0q-21 0 -21 20v1352q0 9 6 15t15 6h243q24 0 33 -21l352 -794h9l346 794q9 21 32 21h240q9 0 15 -6t6 -15v-1352q0 -20 -21 -20h-231q-21 0 -21 20v785h-8l-258 -588q-12 -27 -39 -27h-141q-27 0 -39 27l-258 588h-8v-785q0 -20 -21 -20h-231z" />
    <glyph glyph-name="uni041D" unicode="&#x41d;" horiz-adv-x="1347" 
d="M154 0q-21 0 -21 20v1352q0 9 6 15t15 6h260q20 0 20 -21v-522q0 -12 12 -12h455q12 0 12 12v522q0 9 6 15t15 6h260q20 0 20 -21v-1352q0 -20 -20 -20h-260q-21 0 -21 20v537q0 12 -12 12h-455q-12 0 -12 -12v-537q0 -20 -20 -20h-260z" />
    <glyph glyph-name="uni041E" unicode="&#x41e;" horiz-adv-x="1286" 
d="M643 -23q-187 0 -321 86.5t-187 251.5q-23 72 -31 149t-8 232t8 232t31 149q53 165 187 251.5t321 86.5t321 -86.5t187 -251.5q23 -72 31 -149t8 -232t-8 -232t-31 -149q-53 -165 -187 -251.5t-321 -86.5zM643 244q170 0 219 153q23 70 23 299t-23 299q-50 154 -219 154
t-219 -154q-23 -70 -23 -299t23 -299q49 -153 219 -153z" />
    <glyph glyph-name="uni041F" unicode="&#x41f;" horiz-adv-x="1331" 
d="M152 0q-7 0 -13 6t-6 14v1354q0 19 19 19h1026q20 0 20 -19v-1354q0 -8 -5.5 -14t-12.5 -6h-265q-7 0 -12.5 6t-5.5 14v1092q0 12 -12 12h-439q-12 0 -12 -12v-1092q0 -8 -5.5 -14t-12.5 -6h-264z" />
    <glyph glyph-name="uni0420" unicode="&#x420;" horiz-adv-x="1239" 
d="M154 0q-21 0 -21 20v1352q0 9 6 15t15 6h540q225 0 355.5 -123.5t130.5 -325.5q0 -199 -131.5 -322.5t-354.5 -123.5h-248q-12 0 -12 -13v-465q0 -20 -20 -20h-260zM446 758h230q95 0 149 50.5t54 135.5q0 86 -54.5 137.5t-148.5 51.5h-230q-12 0 -12 -13v-350
q0 -12 12 -12z" />
    <glyph glyph-name="uni0421" unicode="&#x421;" horiz-adv-x="1177" 
d="M631 -23q-185 0 -313 87t-183 255q-23 68 -31 142.5t-8 234.5t8 234.5t31 142.5q55 168 183 255t313 87q176 0 301 -80.5t184 -228.5q11 -18 -10 -25l-223 -100q-19 -10 -29 10q-68 158 -221 158q-159 0 -209 -154q-13 -41 -18 -99.5t-5 -199.5t5 -199.5t18 -99.5
q49 -153 209 -153q153 0 221 157q10 20 29 11l223 -101q20 -7 10 -24q-59 -148 -184.5 -229t-300.5 -81z" />
    <glyph glyph-name="uni0422" unicode="&#x422;" horiz-adv-x="1140" 
d="M440 0q-20 0 -20 20v1092q0 12 -12 12h-353q-20 0 -20 21v227q0 21 20 21h1030q9 0 15 -6t6 -15v-227q0 -9 -6 -15t-15 -6h-352q-12 0 -12 -12v-1092q0 -20 -21 -20h-260z" />
    <glyph glyph-name="uni0423" unicode="&#x423;" horiz-adv-x="1202" 
d="M211 -8q-21 0 -21 20v230q0 18 21 18h82q64 0 99 22.5t54 65.5l29 64l-450 956q-5 12 -1 18.5t13 6.5h274q23 0 31 -19l274 -616h7l241 616q8 19 29 19h274q21 0 11 -23l-486 -1134q-103 -244 -346 -244h-135z" />
    <glyph glyph-name="uni0424" unicode="&#x424;" horiz-adv-x="1638" 
d="M686 -23q-7 0 -12.5 6.5t-5.5 14.5v149q0 13 -13 13q-307 18 -449.5 159t-142.5 408q0 258 151 393.5t441 149.5q13 0 13 12v115q0 18 20 18h262q19 0 19 -18v-115q0 -12 12 -12q292 -14 443 -149.5t151 -393.5q0 -267 -142.5 -408t-451.5 -159q-12 0 -12 -13v-149
q0 -8 -6 -14.5t-13 -6.5h-264zM655 420q13 0 13 12v567q0 11 -13 11q-150 -6 -220 -75t-70 -220q0 -144 70 -215t220 -80zM983 420q150 9 220.5 80t70.5 215q0 151 -70.5 220t-220.5 75q-14 0 -14 -11v-567q0 -12 14 -12z" />
    <glyph glyph-name="uni0425" unicode="&#x425;" horiz-adv-x="1218" 
d="M39 0q-10 0 -14 8t2 17l415 694l-387 649q-5 9 -1 17t14 8h284q21 0 33 -21l221 -377h6l222 377q12 21 32 21h285q10 0 13.5 -8t-1.5 -17l-389 -649l418 -694q5 -9 1.5 -17t-13.5 -8h-285q-24 0 -35 20l-248 424h-6l-250 -424q-11 -20 -34 -20h-283z" />
    <glyph glyph-name="uni0426" unicode="&#x426;" horiz-adv-x="1368" 
d="M1085 -272q-6 0 -11 6t-5 14v240q0 12 -12 12h-905q-19 0 -19 18v1354q0 8 6 14.5t13 6.5h264q7 0 12.5 -6.5t5.5 -14.5v-1091q0 -13 12 -13h439q12 0 12 13v1091q0 8 5.5 14.5t12.5 6.5h265q7 0 12.5 -6.5t5.5 -14.5v-1091q0 -13 12 -13h115q8 0 14.5 -5.5t6.5 -12.5
v-502q0 -8 -6 -14t-13 -6h-242z" />
    <glyph glyph-name="uni0427" unicode="&#x427;" horiz-adv-x="1251" 
d="M836 0q-7 0 -13 6t-6 14v482q0 16 -18 12q-172 -43 -324 -43q-375 0 -375 367v536q0 19 21 19h260q20 0 20 -19v-471q0 -82 44.5 -120t121.5 -38q107 0 221 27q29 5 29 29v573q0 19 19 19h262q20 0 20 -19v-1354q0 -8 -5.5 -14t-12.5 -6h-264z" />
    <glyph glyph-name="uni0428" unicode="&#x428;" horiz-adv-x="1949" 
d="M152 0q-19 0 -19 18v1354q0 8 6 14.5t13 6.5h264q7 0 12.5 -6.5t5.5 -14.5v-1091q0 -13 12 -13h365q12 0 12 13v1091q0 7 5.5 14t11.5 7h266q7 0 12.5 -6.5t5.5 -14.5v-1091q0 -13 13 -13h366q13 0 13 13v1091q0 21 16 21h264q9 0 15 -6.5t6 -14.5v-1354q0 -8 -6 -13
t-15 -5h-1644z" />
    <glyph glyph-name="uni0429" unicode="&#x429;" horiz-adv-x="1984" 
d="M1702 -272q-6 0 -11 6t-5 14v240q0 12 -13 12h-1521q-19 0 -19 18v1354q0 8 6 14.5t13 6.5h264q7 0 12.5 -6.5t5.5 -14.5v-1091q0 -13 12 -13h365q12 0 12 13v1091q0 7 5.5 14t11.5 7h266q7 0 12.5 -6.5t5.5 -14.5v-1091q0 -13 13 -13h366q13 0 13 13v1091q0 21 16 21
h264q9 0 15 -6.5t6 -14.5v-1091q0 -13 12 -13h113q8 0 14 -5.5t6 -12.5v-502q0 -8 -5.5 -14t-12.5 -6h-242z" />
    <glyph glyph-name="uni042A" unicode="&#x42a;" horiz-adv-x="1441" 
d="M342 0q-20 0 -20 20v1092q0 12 -11 12h-264q-7 0 -12.5 5.5t-5.5 13.5v229q0 9 5 15t13 6h555q9 0 15 -6t6 -15v-467q0 -12 12 -12h250q233 0 363 -122t130 -322q0 -203 -129.5 -326t-363.5 -123h-543zM635 260h231q101 0 156 49.5t55 139.5q0 89 -55 137.5t-156 48.5
h-231q-12 0 -12 -12v-351q0 -12 12 -12z" />
    <glyph glyph-name="uni042B" unicode="&#x42b;" horiz-adv-x="1773" 
d="M154 0q-21 0 -21 20v1352q0 9 6 15t15 6h260q20 0 20 -21v-467q0 -12 12 -12h248q234 0 364 -122t130 -322q0 -203 -130 -326t-364 -123h-540zM446 260h232q99 0 154 50t55 139t-54.5 137.5t-154.5 48.5h-232q-12 0 -12 -12v-351q0 -12 12 -12zM1360 0q-21 0 -21 20v1352
q0 9 6 15t15 6h260q20 0 20 -21v-1352q0 -20 -20 -20h-260z" />
    <glyph glyph-name="uni042C" unicode="&#x42c;" horiz-adv-x="1251" 
d="M154 0q-21 0 -21 20v1352q0 9 6 15t15 6h260q20 0 20 -21v-467q0 -12 12 -12h248q234 0 364 -122t130 -322q0 -203 -130 -326t-364 -123h-540zM446 260h232q99 0 154 51.5t55 141.5q0 89 -54.5 135.5t-154.5 46.5h-232q-12 0 -12 -12v-351q0 -12 12 -12z" />
    <glyph glyph-name="uni042D" unicode="&#x42d;" horiz-adv-x="1181" 
d="M537 -25q-172 0 -294.5 76t-181.5 217q-9 21 11 29l211 96q19 8 28 -10q35 -72 88 -109.5t133 -37.5q77 0 139 36t87 105q23 62 26 186q0 15 -14 15h-371q-18 0 -18 18v215q0 10 5.5 15t12.5 5h371q14 0 14 15q-3 98 -22 158q-23 73 -84.5 113t-145.5 40
q-80 0 -131.5 -37t-87.5 -110q-9 -19 -28 -11l-213 95q-18 8 -11 28q60 144 181 218.5t295 74.5q186 0 319.5 -84.5t187.5 -251.5q24 -71 32.5 -151t8.5 -230q0 -159 -10 -245.5t-39 -161.5q-58 -155 -188 -235.5t-311 -80.5z" />
    <glyph glyph-name="uni042E" unicode="&#x42e;" horiz-adv-x="1777" 
d="M1159 -23q-178 0 -305.5 84t-177.5 246q-32 97 -37 252q0 12 -12 12h-181q-12 0 -12 -12v-539q0 -20 -20 -20h-260q-21 0 -21 20v1352q0 21 21 21h260q20 0 20 -21v-520q0 -12 12 -12h181q12 0 12 12q10 146 37 233q52 161 179 245.5t304 84.5t304 -84.5t179 -245.5
q23 -72 31 -151.5t8 -237.5q0 -159 -8 -238t-31 -151q-52 -161 -179 -245.5t-304 -84.5zM1159 246q152 0 197 145q22 67 22 305t-22 303q-49 148 -197 148q-73 0 -123.5 -38.5t-72.5 -109.5q-23 -77 -23 -303q0 -224 23 -305q22 -70 72 -107.5t124 -37.5z" />
    <glyph glyph-name="uni042F" unicode="&#x42f;" horiz-adv-x="1282" 
d="M78 -8q-21 0 -21 20v230q0 18 21 18h28q51 0 79 19t44 59l58 135q32 80 94 119v8q-57 14 -105.5 41.5t-89.5 71.5t-64.5 110.5t-23.5 149.5q0 181 123.5 300.5t335.5 119.5h573q19 0 19 -19v-1354q0 -8 -5 -14t-14 -6h-262q-9 0 -14.5 6t-5.5 14v486q0 12 -12 12h-105
q-60 0 -96 -19.5t-64 -88.5l-77 -193q-49 -123 -124.5 -174t-199.5 -51h-92zM588 774h248q12 0 12 12v332q0 12 -12 12h-248q-83 0 -135 -45.5t-52 -132.5q0 -88 51.5 -133t135.5 -45z" />
    <glyph glyph-name="uni0430" unicode="&#x430;" horiz-adv-x="1081" 
d="M416 -23q-142 0 -236 77t-94 227q0 159 110 239t302 80h176q12 0 12 12v37q0 72 -44 103.5t-159 31.5q-136 0 -221 -63q-16 -13 -26 4l-93 162q-9 18 7 28q141 99 368 99q239 0 339.5 -85t100.5 -274v-635q0 -20 -20 -20h-227q-21 0 -21 20v66h-2q-84 -109 -272 -109z
M502 193q184 0 184 137v67q0 13 -12 13h-139q-91 0 -134 -27.5t-43 -85.5q0 -104 144 -104z" />
    <glyph glyph-name="uni0431" unicode="&#x431;" horiz-adv-x="1105" 
d="M567 -25q-113 0 -205 38.5t-151 109.5q-69 83 -89 201.5t-20 322.5q0 110 4.5 180t19 149t46.5 138.5t84 106.5q28 26 64.5 44.5t82.5 30t77 17t86.5 12.5t72.5 10q90 12 92 62q0 6 6 12t15 6h219q8 0 13 -5.5t5 -12.5q-2 -145 -64 -215.5t-204 -83.5q-19 -2 -84.5 -6.5
t-95.5 -9t-74.5 -20.5t-73.5 -42q-61 -54 -61 -174h6q30 60 101 96.5t171 36.5q224 0 320 -124.5t96 -362.5q0 -255 -115.5 -386t-343.5 -131zM565 219q42 0 71 11t52.5 39.5t35 83.5t11.5 139q0 79 -11.5 131.5t-35.5 79.5t-52.5 37t-70.5 10t-70.5 -10t-53 -37
t-36.5 -79.5t-12 -131.5q0 -84 11.5 -139.5t36 -84t53.5 -39t71 -10.5z" />
    <glyph glyph-name="uni0432" unicode="&#x432;" horiz-adv-x="1081" 
d="M147 0q-7 0 -12.5 6t-5.5 12v955q0 18 18 18h517q156 0 237.5 -70t81.5 -192q0 -151 -131 -213v-8q64 -21 105.5 -80.5t41.5 -144.5q0 -138 -90 -210.5t-250 -72.5h-512zM426 203h178q52 0 81.5 27.5t29.5 74.5t-29 72.5t-82 25.5h-178q-12 0 -12 -12v-176q0 -12 12 -12z
M426 602h168q51 0 77.5 25t26.5 69q0 92 -104 92h-168q-12 0 -12 -12v-164q0 -10 12 -10z" />
    <glyph glyph-name="uni0433" unicode="&#x433;" horiz-adv-x="849" 
d="M147 0q-7 0 -12.5 6t-5.5 12v955q0 8 5.5 13t12.5 5h666q21 0 21 -18v-205q0 -18 -21 -18h-385q-12 0 -12 -13v-719q0 -6 -6 -12t-13 -6h-250z" />
    <glyph glyph-name="uni0434" unicode="&#x434;" horiz-adv-x="1171" 
d="M29 -213q-17 0 -17 18v418q0 19 19 19h57q25 0 35 26q34 96 50 152.5t29 170.5t13 273v109q0 18 18 18h773q8 0 13 -5.5t5 -12.5v-719q0 -12 12 -12h90q19 0 19 -19v-418q0 -18 -17 -18h-225q-7 0 -12.5 5.5t-5.5 12.5v183q0 12 -13 12h-587q-13 0 -13 -12v-183
q0 -7 -5 -12.5t-11 -5.5h-227zM416 242h309q12 0 12 12v487q0 13 -12 13h-229q-13 0 -13 -13v-45q0 -263 -77 -440q-6 -14 10 -14z" />
    <glyph glyph-name="uni0435" unicode="&#x435;" horiz-adv-x="1079" 
d="M553 -23q-168 0 -281.5 74.5t-156.5 208.5q-35 107 -35 236q0 136 33 237q43 133 155 207t271 74q163 0 274 -73.5t154 -205.5q32 -106 32 -305q0 -20 -22 -20h-600q-12 0 -12 -13q3 -31 12 -55q20 -64 73.5 -97.5t131.5 -33.5q132 0 227 88q18 14 29 0l135 -127
q17 -14 2 -29q-73 -78 -181 -122t-241 -44zM377 600h328q12 0 12 12q0 41 -10 74q-17 51 -61 80t-105 29t-105 -29t-61 -80q-10 -33 -10 -74q0 -12 12 -12z" />
    <glyph glyph-name="uni0436" unicode="&#x436;" horiz-adv-x="1587" 
d="M72 -8q-21 0 -21 18v199q0 18 21 18h8q37 0 55 19.5t37 68.5l39 101q18 44 38.5 67.5t51.5 32.5v8q-42 19 -70 94l-30 82q-15 39 -36.5 55.5t-55.5 16.5h-17q-20 0 -20 21v188q0 18 20 18h90q106 0 158.5 -34t83.5 -119l49 -131q36 -94 125 -94h41q12 0 12 12v340
q0 18 19 18h250q18 0 18 -18v-340q0 -12 12 -12h39q91 0 127 94l49 131q31 85 83 119t157 34h92q19 0 19 -18v-188q0 -21 -19 -21h-16q-34 0 -55.5 -16.5t-36.5 -55.5l-31 -82q-27 -73 -70 -94v-8q31 -7 50 -30.5t38 -69.5l39 -101q19 -48 37.5 -68t54.5 -20h11q18 0 18 -18
v-199q0 -18 -18 -18h-105q-103 0 -156 38.5t-86 127.5l-53 143q-20 53 -50.5 69.5t-72.5 16.5h-45q-12 0 -12 -12v-357q0 -6 -5.5 -12t-12.5 -6h-250q-7 0 -13 6t-6 12v357q0 12 -12 12h-45q-20 0 -35 -2.5t-33 -11t-32.5 -26.5t-24.5 -46l-51 -143q-32 -89 -85.5 -127.5
t-156.5 -38.5h-104z" />
    <glyph glyph-name="uni0437" unicode="&#x437;" horiz-adv-x="980" 
d="M479 -25q-142 0 -243.5 29.5t-192.5 99.5q-12 10 -2 27l117 160q9 9 28 0q119 -86 250 -86q170 0 170 102q0 53 -35 74.5t-104 21.5h-129q-8 0 -13.5 5.5t-5.5 13.5v164q0 9 5.5 14.5t13.5 5.5h125q61 0 95 25t34 74q0 48 -42.5 68t-123.5 20q-98 0 -219 -72
q-17 -13 -27 0l-96 151q-12 17 6 29q77 58 167 86.5t220 28.5q197 0 302.5 -71t105.5 -206q0 -69 -38.5 -128t-101.5 -85v-6q68 -23 111 -87t43 -142q0 -144 -116 -230t-304 -86z" />
    <glyph glyph-name="uni0438" unicode="&#x438;" horiz-adv-x="1167" 
d="M147 0q-7 0 -12.5 6t-5.5 12v955q0 7 5.5 12.5t12.5 5.5h244q15 0 19 -18v-539h6l323 543q9 14 27 14h254q18 0 18 -18v-955q0 -7 -5 -12.5t-13 -5.5h-244q-14 0 -18 18v555h-6l-326 -557q-10 -16 -29 -16h-250z" />
    <glyph glyph-name="uni0439" unicode="&#x439;" horiz-adv-x="1167" 
d="M582 1106q-127 0 -200.5 60.5t-98.5 185.5q-6 25 10 28l129 21q18 3 24 -12q15 -45 50 -75t86 -30t85.5 30t49.5 75q6 15 24 12l129 -21q17 -3 11 -28q-49 -246 -299 -246zM147 0q-7 0 -12.5 6t-5.5 12v955q0 7 5.5 12.5t12.5 5.5h244q15 0 19 -18v-539h6l323 543
q9 14 27 14h254q18 0 18 -18v-955q0 -7 -5 -12.5t-13 -5.5h-244q-14 0 -18 18v555h-6l-326 -557q-10 -16 -29 -16h-250z" />
    <glyph glyph-name="uni043A" unicode="&#x43a;" horiz-adv-x="1085" 
d="M147 0q-7 0 -12.5 6t-5.5 12v955q0 18 18 18h250q19 0 19 -18v-336q0 -12 12 -12h55q51 0 78.5 23t44.5 67l53 131q34 83 87.5 118t146.5 35h104q19 0 19 -18v-188q0 -21 -19 -21h-16q-60 0 -92 -70l-37 -86q-29 -72 -68 -92v-8q29 -7 55 -38t40 -70l32 -89
q20 -52 36.5 -72t51.5 -20h17q18 0 18 -18v-199q0 -18 -18 -18h-96q-107 0 -165 39t-89 127l-52 143q-10 28 -25.5 45.5t-36.5 25t-38 9.5t-43 2h-43q-12 0 -12 -12v-353q0 -6 -6 -12t-13 -6h-250z" />
    <glyph glyph-name="uni043B" unicode="&#x43b;" horiz-adv-x="1167" 
d="M45 -8q-18 0 -18 18v199q0 18 18 18h16q168 0 168 271v475q0 18 19 18h772q18 0 18 -18v-955q0 -7 -5 -12.5t-13 -5.5h-248q-8 0 -14 6t-6 12v719q0 13 -13 13h-227q-12 0 -12 -13v-239q0 -189 -41.5 -301.5t-120 -158.5t-205.5 -46h-88z" />
    <glyph glyph-name="uni043C" unicode="&#x43c;" horiz-adv-x="1351" 
d="M147 0q-7 0 -12.5 6t-5.5 12v955q0 7 5.5 12.5t12.5 5.5h252q16 0 23 -14l252 -520h6l250 520q7 14 24 14h250q8 0 13.5 -5.5t5.5 -12.5v-955q0 -6 -6 -12t-13 -6h-233q-9 0 -15 6t-6 12v494h-6l-178 -365q-8 -18 -27 -18h-127q-16 0 -22 18l-182 365h-7v-494
q0 -6 -5.5 -12t-12.5 -6h-236z" />
    <glyph glyph-name="uni043D" unicode="&#x43d;" 
d="M147 0q-7 0 -12.5 6t-5.5 12v955q0 7 5.5 12.5t12.5 5.5h250q8 0 13.5 -5.5t5.5 -12.5v-336q0 -12 12 -12h283q12 0 12 12v336q0 18 20 18h248q8 0 13.5 -5.5t5.5 -12.5v-955q0 -6 -6 -12t-13 -6h-248q-9 0 -14.5 6t-5.5 12v353q0 12 -12 12h-283q-12 0 -12 -12v-353
q0 -6 -6 -12t-13 -6h-250z" />
    <glyph glyph-name="uni043E" unicode="&#x43e;" horiz-adv-x="1085" 
d="M543 -23q-159 0 -273.5 73t-156.5 206q-33 103 -33 240q0 136 33 239q42 133 156.5 206t273.5 73t273.5 -73t156.5 -206q33 -103 33 -239q0 -137 -33 -240q-42 -133 -156.5 -206t-273.5 -73zM543 219q118 0 153 107q19 61 19 170t-19 170q-35 106 -153 106
q-119 0 -154 -106q-18 -58 -18 -170t18 -170q35 -107 154 -107z" />
    <glyph glyph-name="uni043F" unicode="&#x43f;" horiz-adv-x="1134" 
d="M147 0q-7 0 -12.5 6t-5.5 12v955q0 18 18 18h840q19 0 19 -18v-955q0 -6 -6 -12t-13 -6h-248q-9 0 -14.5 6t-5.5 12v719q0 13 -12 13h-279q-12 0 -12 -13v-719q0 -6 -6 -12t-13 -6h-250z" />
    <glyph glyph-name="uni0440" unicode="&#x440;" horiz-adv-x="1128" 
d="M150 -369q-9 0 -15 6t-6 15v1319q0 20 21 20h245q21 0 21 -20v-72h2q76 115 260 115q126 0 212 -60.5t124 -177.5q35 -109 35 -280q0 -172 -35 -281q-38 -116 -124.5 -177t-211.5 -61q-184 0 -260 115h-2v-440q0 -9 -6 -15t-15 -6h-245zM586 219q118 0 153 107
q19 62 19 170t-19 170q-34 106 -153 106q-118 0 -152 -106q-18 -58 -18 -170t18 -170q35 -107 152 -107z" />
    <glyph glyph-name="uni0441" unicode="&#x441;" horiz-adv-x="985" 
d="M539 -23q-159 0 -271.5 72.5t-156.5 208.5q-31 91 -31 238q0 146 31 237q44 136 156.5 208.5t271.5 72.5q123 0 220.5 -51t153.5 -136q10 -17 -4 -28l-178 -117q-18 -12 -31 4q-33 46 -68.5 66t-88.5 20q-120 0 -154 -106q-18 -53 -18 -170t18 -170q34 -107 154 -107
q53 0 88.5 20t68.5 66q13 16 31 4l178 -116q14 -12 4 -29q-56 -85 -153.5 -136t-220.5 -51z" />
    <glyph glyph-name="uni0442" unicode="&#x442;" horiz-adv-x="899" 
d="M326 0q-9 0 -15 6t-6 12v719q0 13 -12 13h-252q-7 0 -12.5 5t-5.5 13v205q0 8 5.5 13t12.5 5h817q19 0 19 -18v-205q0 -18 -19 -18h-254q-12 0 -12 -13v-719q0 -6 -6 -12t-15 -6h-245z" />
    <glyph glyph-name="uni0443" unicode="&#x443;" horiz-adv-x="1038" 
d="M190 -369q-20 0 -20 21v201q0 20 20 20h43q54 0 85.5 23.5t50.5 78.5l26 74l-368 922q-3 9 2 14.5t14 5.5h262q18 0 25 -20l198 -574h4l185 574q7 20 24 20h254q11 0 15.5 -5.5t1.5 -14.5l-402 -1055q-62 -163 -138.5 -224t-211.5 -61h-70z" />
    <glyph glyph-name="uni0444" unicode="&#x444;" horiz-adv-x="1482" 
d="M616 -369q-18 0 -18 19v327q0 13 -12 13q-514 32 -514 514q0 244 129.5 363t384.5 134q12 0 12 13v360q0 19 18 19h250q19 0 19 -19v-360q0 -13 12 -13q254 -15 383 -134t129 -363q0 -482 -512 -514q-12 0 -12 -13v-327q0 -8 -5.5 -13.5t-13.5 -5.5h-250zM588 225
q12 0 12 13v518q0 12 -12 12q-116 -6 -172 -64t-56 -202q0 -145 58 -208t170 -69zM893 225q111 6 169 69t58 208t-55.5 202.5t-171.5 63.5q-12 0 -12 -12v-518q0 -13 12 -13z" />
    <glyph glyph-name="uni0445" unicode="&#x445;" horiz-adv-x="1054" 
d="M51 0q-11 0 -15 6t1 14l334 494l-310 457q-5 7 -1 13.5t16 6.5h266q22 0 35 -18l149 -234h2l152 234q15 18 33 18h264q13 0 17 -6.5t-1 -13.5l-309 -457l334 -494q5 -8 0.5 -14t-17.5 -6h-266q-18 0 -30 18l-179 271h-2l-176 -271q-15 -18 -33 -18h-264z" />
    <glyph glyph-name="uni0446" unicode="&#x446;" horiz-adv-x="1153" 
d="M885 -213q-8 0 -13.5 5.5t-5.5 12.5v183q0 12 -12 12h-707q-8 0 -13 5.5t-5 12.5v955q0 6 5.5 12t12.5 6h250q7 0 13 -6t6 -12v-719q0 -12 12 -12h279q12 0 12 12v719q0 7 5.5 12.5t14.5 5.5h248q7 0 13 -6t6 -12v-719q0 -12 12 -12h90q18 0 18 -19v-418q0 -18 -16 -18
h-225z" />
    <glyph glyph-name="uni0447" unicode="&#x447;" horiz-adv-x="1071" 
d="M676 0q-9 0 -15 6t-6 12v318q0 17 -18 12q-132 -31 -234 -31q-151 0 -235 70.5t-84 235.5v350q0 18 20 18h248q19 0 19 -18v-299q0 -115 121 -115q74 0 149 23q14 3 14 16v375q0 8 6 13t15 5h248q18 0 18 -18v-955q0 -6 -5.5 -12t-12.5 -6h-248z" />
    <glyph glyph-name="uni0448" unicode="&#x448;" horiz-adv-x="1634" 
d="M147 0q-8 0 -13 5.5t-5 12.5v955q0 6 5.5 12t12.5 6h250q7 0 13 -6t6 -12v-719q0 -12 12 -12h234q12 0 12 12v719q0 7 6 12.5t14 5.5h248q7 0 13 -6t6 -12v-719q0 -12 12 -12h233q13 0 13 12v719q0 7 5.5 12.5t14.5 5.5h248q7 0 12.5 -6t5.5 -12v-955q0 -7 -5 -12.5
t-13 -5.5h-1340z" />
    <glyph glyph-name="uni0449" unicode="&#x449;" horiz-adv-x="1654" 
d="M1384 -213q-6 0 -11 5.5t-5 12.5v183q0 12 -12 12h-1209q-8 0 -13 5.5t-5 12.5v955q0 6 5.5 12t12.5 6h250q7 0 13 -6t6 -12v-719q0 -12 12 -12h234q12 0 12 12v719q0 7 6 12.5t14 5.5h248q7 0 13 -6t6 -12v-719q0 -12 12 -12h233q13 0 13 12v719q0 7 5.5 12.5t14.5 5.5
h248q7 0 12.5 -6t5.5 -12v-719q0 -12 13 -12h90q8 0 14 -5t6 -14v-418q0 -7 -5 -12.5t-13 -5.5h-226z" />
    <glyph glyph-name="uni044A" unicode="&#x44a;" horiz-adv-x="1163" 
d="M262 0q-7 0 -12.5 6t-5.5 12v719q0 13 -13 13h-190q-7 0 -12.5 5t-5.5 13v205q0 8 5.5 13t12.5 5h471q18 0 18 -18v-307q0 -13 13 -13h219q151 0 244.5 -91t93.5 -234q0 -145 -91.5 -236.5t-240.5 -91.5h-506zM537 219h172q56 0 86 30t30 81q0 49 -30 78.5t-86 29.5h-172
q-13 0 -13 -12v-195q0 -12 13 -12z" />
    <glyph glyph-name="uni044B" unicode="&#x44b;" horiz-adv-x="1499" 
d="M147 0q-7 0 -12.5 6t-5.5 12v955q0 18 18 18h250q19 0 19 -18v-307q0 -13 12 -13h219q151 0 244.5 -91t93.5 -234q0 -145 -92.5 -236.5t-239.5 -91.5h-506zM422 219h172q54 0 84.5 30.5t30.5 80.5q0 48 -30.5 78t-84.5 30h-172q-12 0 -12 -12v-195q0 -12 12 -12zM1104 0
q-21 0 -21 20v951q0 20 21 20h246q20 0 20 -20v-951q0 -20 -20 -20h-246z" />
    <glyph glyph-name="uni044C" unicode="&#x44c;" horiz-adv-x="1048" 
d="M147 0q-7 0 -12.5 6t-5.5 12v955q0 18 18 18h250q19 0 19 -18v-307q0 -13 12 -13h219q151 0 244.5 -91t93.5 -234q0 -145 -93 -236.5t-245 -91.5h-500zM422 219h172q54 0 84.5 30.5t30.5 80.5q0 48 -30.5 78t-84.5 30h-172q-12 0 -12 -12v-195q0 -12 12 -12z" />
    <glyph glyph-name="uni044D" unicode="&#x44d;" horiz-adv-x="1001" 
d="M461 -23q-138 0 -239.5 49t-160.5 138q-5 6 -2.5 14.5t11.5 14.5l149 122q18 15 31 -8q41 -53 85 -77.5t111 -24.5q100 0 146 69q33 53 35 109q0 12 -13 12h-258q-6 0 -12 6t-6 13v176q0 10 5.5 15t12.5 5h260q14 0 11 13q-4 34 -21 77q-38 88 -160 88q-63 0 -106.5 -21
t-77.5 -73q-16 -19 -33 -6l-147 105q-15 12 -6 28q130 193 385 193q213 0 344 -137q117 -127 117 -381q0 -224 -86 -344q-60 -85 -156 -130t-219 -45z" />
    <glyph glyph-name="uni044E" unicode="&#x44e;" horiz-adv-x="1540" 
d="M147 0q-7 0 -12.5 6t-5.5 12v955q0 7 5.5 12.5t12.5 5.5h250q8 0 13.5 -5.5t5.5 -12.5v-338q0 -12 12 -12h135q9 0 12 12q20 112 66 190q57 92 153 140.5t220 48.5q155 0 265 -71.5t151 -207.5q30 -94 30 -241q0 -146 -30 -240q-41 -134 -151 -205.5t-265 -71.5
q-213 0 -338 144q-85 98 -103 252q0 12 -12 12h-133q-12 0 -12 -12v-355q0 -6 -6 -12t-13 -6h-250zM1014 219q103 0 137 107q18 62 18 170q0 106 -18 168q-30 108 -137 108t-137 -108q-19 -65 -19 -168q0 -105 19 -170q34 -107 137 -107z" />
    <glyph glyph-name="uni044F" unicode="&#x44f;" horiz-adv-x="1105" 
d="M100 -8q-18 0 -18 18v199q0 18 18 18h25q58 0 88 66l27 61q23 50 55 60v6q-88 19 -145.5 91t-57.5 167q0 147 93 230t261 83h512q8 0 13.5 -5.5t5.5 -12.5v-955q0 -7 -5.5 -12.5t-13.5 -5.5h-247q-9 0 -15 6t-6 12v312q0 12 -12 12h-66q-37 0 -61 -18.5t-43 -59.5
l-57 -127q-37 -83 -94 -114t-162 -31h-95zM492 553h194q10 0 10 12v199q0 12 -10 12h-194q-54 0 -85.5 -28.5t-31.5 -79.5q0 -49 32 -82t85 -33z" />
    <glyph glyph-name="uni0450" unicode="&#x450;" horiz-adv-x="1079" 
d="M553 -23q-168 0 -281.5 74.5t-156.5 208.5q-35 107 -35 236q0 136 33 237q43 133 155 207t271 74q163 0 274 -73.5t154 -205.5q32 -106 32 -305q0 -20 -22 -20h-600q-12 0 -12 -13q3 -31 12 -55q20 -64 73.5 -97.5t131.5 -33.5q132 0 227 88q18 14 29 0l135 -127
q17 -14 2 -29q-73 -78 -181 -122t-241 -44zM377 600h328q12 0 12 12q0 41 -10 74q-17 51 -61 80t-105 29t-105 -29t-61 -80q-10 -33 -10 -74q0 -12 12 -12zM672 1128h-189q-23 0 -39 21l-202 266q-6 7 -2.5 14t12.5 7h237q25 0 37 -21l156 -266q10 -21 -10 -21z" />
    <glyph glyph-name="uni0451" unicode="&#x451;" horiz-adv-x="1079" 
d="M840 1149h-191q-20 0 -20 20v203q0 21 20 21h191q20 0 20 -21v-203q0 -20 -20 -20zM428 1149h-188q-21 0 -21 20v203q0 9 6 15t15 6h188q9 0 15 -6t6 -15v-203q0 -20 -21 -20zM553 -23q-168 0 -281.5 74.5t-156.5 208.5q-35 107 -35 236q0 136 33 237q43 133 155 207
t271 74q163 0 274 -73.5t154 -205.5q32 -106 32 -305q0 -20 -22 -20h-600q-12 0 -12 -13q3 -31 12 -55q20 -64 73.5 -97.5t131.5 -33.5q132 0 227 88q18 14 29 0l135 -127q17 -14 2 -29q-73 -78 -181 -122t-241 -44zM377 600h328q12 0 12 12q0 41 -10 74q-17 51 -61 80
t-105 29t-105 -29t-61 -80q-10 -33 -10 -74q0 -12 12 -12z" />
    <glyph glyph-name="uni0452" unicode="&#x452;" horiz-adv-x="1132" 
d="M573 -369q-20 0 -20 21v201q0 20 20 20h41q61 0 86 24.5t25 90.5v579q0 84 -39.5 132.5t-114.5 48.5q-73 0 -114 -49t-41 -132v-547q0 -20 -21 -20h-245q-21 0 -21 20v1035q0 12 -12 12h-131q-21 0 -21 20v175q0 20 21 20h131q12 0 12 12v78q0 9 6 15t15 6h245q9 0 15 -6
t6 -15v-78q0 -12 12 -12h211q20 0 20 -20v-175q0 -20 -20 -20h-211q-12 0 -12 -12v-176h2q83 112 256 112q161 0 249.5 -100.5t88.5 -267.5v-633q0 -185 -93.5 -272t-277.5 -87h-68z" />
    <glyph glyph-name="uni0453" unicode="&#x453;" horiz-adv-x="849" 
d="M147 0q-7 0 -12.5 6t-5.5 12v955q0 8 5.5 13t12.5 5h666q21 0 21 -18v-205q0 -18 -21 -18h-385q-12 0 -12 -13v-719q0 -6 -6 -12t-13 -6h-250zM508 1128h-186q-9 0 -13 6t0 15l158 266q12 21 37 21h235q9 0 13 -7t-2 -14l-203 -266q-16 -21 -39 -21z" />
    <glyph glyph-name="uni0454" unicode="&#x454;" horiz-adv-x="1001" 
d="M541 -23q-123 0 -219 45t-156 130q-86 120 -86 344q0 254 117 381q131 137 344 137q255 0 385 -193q9 -16 -6 -28l-148 -105q-17 -13 -33 6q-34 52 -77.5 73t-106.5 21q-122 0 -160 -88q-16 -39 -20 -77q-3 -13 10 -13h260q7 0 13 -5t6 -15v-176q0 -7 -6.5 -13t-12.5 -6
h-258q-12 0 -12 -12q2 -56 35 -109q46 -69 145 -69q67 0 111.5 24.5t85.5 77.5q13 22 30 8l150 -122q20 -13 8 -29q-59 -89 -160 -138t-239 -49z" />
    <glyph glyph-name="uni0455" unicode="&#x455;" horiz-adv-x="1034" 
d="M518 -23q-273 0 -450 154q-14 15 0 29l133 149q12 12 28 0q66 -51 146 -79.5t157 -28.5q76 0 115 25.5t39 68.5q0 38 -29.5 58.5t-111.5 27.5l-111 12q-157 15 -240 92.5t-83 210.5q0 147 107.5 232.5t299.5 85.5q121 0 225 -33.5t177 -89.5q15 -15 2 -31l-115 -141
q-12 -14 -29 -4q-127 80 -268 80q-61 0 -93 -22t-32 -60q0 -36 28.5 -55.5t108.5 -26.5l109 -13q330 -33 330 -301q-2 -155 -118 -247.5t-325 -92.5z" />
    <glyph glyph-name="uni0456" unicode="&#x456;" horiz-adv-x="544" 
d="M150 0q-21 0 -21 20v951q0 20 21 20h245q21 0 21 -20v-951q0 -20 -21 -20h-245zM150 1149q-21 0 -21 20v203q0 9 6 15t15 6h245q9 0 15 -6t6 -15v-203q0 -20 -21 -20h-245z" />
    <glyph glyph-name="uni0457" unicode="&#x457;" horiz-adv-x="544" 
d="M573 1149h-190q-21 0 -21 20v203q0 9 6 15t15 6h190q9 0 15 -6t6 -15v-203q0 -20 -21 -20zM162 1149h-189q-20 0 -20 20v203q0 21 20 21h189q20 0 20 -21v-203q0 -20 -20 -20zM395 0h-245q-21 0 -21 20v951q0 20 21 20h245q21 0 21 -20v-951q0 -20 -21 -20z" />
    <glyph glyph-name="uni0458" unicode="&#x458;" horiz-adv-x="544" 
d="M-23 -369q-20 0 -20 21v201q0 20 20 20h41q61 0 86 24.5t25 90.5v983q0 20 21 20h245q21 0 21 -20v-981q0 -185 -93.5 -272t-277.5 -87h-68zM150 1149q-21 0 -21 20v203q0 9 6 15t15 6h245q9 0 15 -6t6 -15v-203q0 -20 -21 -20h-245z" />
    <glyph glyph-name="uni0459" unicode="&#x459;" horiz-adv-x="1671" 
d="M45 -8q-18 0 -18 18v205q0 18 18 18h16q168 0 168 265v475q0 18 19 18h772q18 0 18 -18v-309q0 -13 13 -13h219q152 0 245 -90t93 -233q0 -145 -91.5 -236.5t-240.5 -91.5h-504q-8 0 -14 6t-6 12v719q0 13 -13 13h-227q-12 0 -12 -13v-239q0 -189 -41 -301.5t-118 -158.5
t-200 -46h-96zM1044 219h173q56 0 86 30t30 81q0 49 -30 78.5t-86 29.5h-173q-12 0 -12 -12v-195q0 -12 12 -12z" />
    <glyph glyph-name="uni045A" unicode="&#x45a;" horiz-adv-x="1640" 
d="M147 0q-7 0 -12.5 6t-5.5 12v955q0 7 5.5 12.5t12.5 5.5h250q8 0 13.5 -5.5t5.5 -12.5v-314q0 -12 12 -12h281q12 0 12 12v314q0 18 20 18h248q8 0 13.5 -5.5t5.5 -12.5v-314q0 -12 12 -12h219q152 0 245 -89t93 -232q0 -145 -91.5 -235.5t-240.5 -90.5h-504
q-9 0 -14.5 6t-5.5 12v379q0 13 -12 13h-281q-12 0 -12 -13v-379q0 -6 -6 -12t-13 -6h-250zM1014 219h172q56 0 86.5 29.5t30.5 79.5q0 48 -30.5 77t-86.5 29h-172q-13 0 -13 -12v-191q0 -12 13 -12z" />
    <glyph glyph-name="uni045B" unicode="&#x45b;" horiz-adv-x="1132" 
d="M150 0q-21 0 -21 20v1035q0 12 -12 12h-131q-21 0 -21 20v175q0 20 21 20h131q12 0 12 12v78q0 9 6 15t15 6h245q9 0 15 -6t6 -15v-78q0 -12 12 -12h211q20 0 20 -20v-175q0 -20 -20 -20h-211q-12 0 -12 -12v-176h2q83 112 256 112q161 0 249.5 -100.5t88.5 -267.5v-603
q0 -20 -21 -20h-246q-20 0 -20 20v547q0 84 -39.5 132.5t-114.5 48.5q-73 0 -114 -49t-41 -132v-547q0 -20 -21 -20h-245z" />
    <glyph glyph-name="uni045C" unicode="&#x45c;" horiz-adv-x="1085" 
d="M147 0q-7 0 -12.5 6t-5.5 12v955q0 18 18 18h250q19 0 19 -18v-336q0 -12 12 -12h55q51 0 78.5 23t44.5 67l53 131q34 83 87.5 118t146.5 35h104q19 0 19 -18v-188q0 -21 -19 -21h-16q-60 0 -92 -70l-37 -86q-29 -72 -68 -92v-8q29 -7 55 -38t40 -70l32 -89
q20 -52 36.5 -72t51.5 -20h17q18 0 18 -18v-199q0 -18 -18 -18h-96q-107 0 -165 39t-89 127l-52 143q-10 28 -25.5 45.5t-36.5 25t-38 9.5t-43 2h-43q-12 0 -12 -12v-353q0 -6 -6 -12t-13 -6h-250zM602 1128h-186q-9 0 -13 6t0 15l158 266q12 21 37 21h236q9 0 12.5 -7
t-2.5 -14l-203 -266q-16 -21 -39 -21z" />
    <glyph glyph-name="uni045D" unicode="&#x45d;" horiz-adv-x="1167" 
d="M147 0q-7 0 -12.5 6t-5.5 12v955q0 7 5.5 12.5t12.5 5.5h244q15 0 19 -18v-539h6l323 543q9 14 27 14h254q18 0 18 -18v-955q0 -7 -5 -12.5t-13 -5.5h-244q-14 0 -18 18v555h-6l-326 -557q-10 -16 -29 -16h-250zM733 1128h-188q-23 0 -39 21l-203 266q-6 7 -2.5 14
t12.5 7h238q25 0 37 -21l155 -266q5 -9 2 -15t-12 -6z" />
    <glyph glyph-name="uni045E" unicode="&#x45e;" horiz-adv-x="1038" 
d="M528 1106q-127 0 -200.5 60.5t-98.5 185.5q-6 25 11 28l129 21q18 3 24 -12q15 -45 49.5 -75t85.5 -30t86 30t50 75q6 15 24 12l129 -21q16 -3 10 -28q-49 -246 -299 -246zM190 -369q-20 0 -20 21v201q0 20 20 20h43q54 0 85.5 23.5t50.5 78.5l26 74l-368 922
q-3 9 2 14.5t14 5.5h262q18 0 25 -20l198 -574h4l185 574q7 20 24 20h254q11 0 15.5 -5.5t1.5 -14.5l-402 -1055q-62 -163 -138.5 -224t-211.5 -61h-70z" />
    <glyph glyph-name="uni045F" unicode="&#x45f;" horiz-adv-x="1134" 
d="M453 -213q-6 0 -11.5 5.5t-5.5 12.5v183q0 12 -12 12h-277q-8 0 -13 5.5t-5 12.5v955q0 6 5.5 12t12.5 6h250q7 0 13 -6t6 -12v-719q0 -12 12 -12h279q12 0 12 12v719q0 7 5.5 12.5t14.5 5.5h248q7 0 13 -6t6 -12v-955q0 -7 -5.5 -12.5t-13.5 -5.5h-278q-13 0 -13 -12
v-183q0 -7 -5 -12.5t-13 -5.5h-225z" />
    <glyph glyph-name="uni0490" unicode="&#x490;" horiz-adv-x="1024" 
d="M154 0q-21 0 -21 20v1352q0 9 6 15t15 6h571q14 0 14 12v223q0 8 6 14.5t13 6.5h225q7 0 12.5 -6.5t5.5 -14.5v-485q0 -19 -20 -19h-535q-12 0 -12 -12v-1092q0 -20 -20 -20h-260z" />
    <glyph glyph-name="uni0491" unicode="&#x491;" horiz-adv-x="849" 
d="M147 0q-7 0 -12.5 6t-5.5 12v955q0 7 6 12.5t12 5.5h424q13 0 13 13v165q0 21 16 21h217q7 0 12 -6.5t5 -14.5v-399q0 -20 -21 -20h-385q-12 0 -12 -13v-719q0 -6 -6 -12t-15 -6h-248z" />
    <glyph glyph-name="Wgrave" unicode="&#x1e80;" horiz-adv-x="1771" 
d="M977 1544h-191q-19 0 -38 19l-252 237q-7 8 -3 14.5t13 6.5h246q22 0 39 -21l194 -235q6 -7 3.5 -14t-11.5 -7zM1362 0h-205q-20 0 -27 20l-241 867h-4l-244 -867q-7 -20 -27 -20h-204q-18 0 -25 20l-360 1352q-3 21 16 21h264q21 0 25 -21l200 -874h5l237 874
q7 21 27 21h178q17 0 24 -21l246 -874h4l193 874q3 21 24 21h263q19 0 16 -21l-358 -1352q-3 -20 -27 -20z" />
    <glyph glyph-name="wgrave" unicode="&#x1e81;" horiz-adv-x="1562" 
d="M1184 0h-205q-18 0 -25 20l-170 576h-4l-174 -576q-7 -20 -24 -20h-203q-18 0 -25 20l-317 951q-3 9 1 14.5t13 5.5h252q23 0 29 -20l164 -590h4l170 590q6 20 28 20h172q21 0 27 -20l174 -590h4l156 590q6 20 26 20h252q11 0 15.5 -5.5t1.5 -14.5l-318 -951
q-7 -20 -24 -20zM874 1128h-188q-23 0 -39 21l-203 266q-6 7 -2 14t13 7h237q25 0 37 -21l156 -266q4 -9 1 -15t-12 -6z" />
    <glyph glyph-name="Wacute" unicode="&#x1e82;" horiz-adv-x="1771" 
d="M991 1544h-190q-9 0 -11.5 7t3.5 14l194 235q17 21 39 21h246q9 0 13 -6.5t-3 -14.5l-252 -237q-19 -19 -39 -19zM1362 0h-205q-20 0 -27 20l-241 867h-4l-244 -867q-7 -20 -27 -20h-204q-18 0 -25 20l-360 1352q-3 21 16 21h264q21 0 25 -21l200 -874h5l237 874
q7 21 27 21h178q17 0 24 -21l246 -874h4l193 874q3 21 24 21h263q19 0 16 -21l-358 -1352q-3 -20 -27 -20z" />
    <glyph glyph-name="wacute" unicode="&#x1e83;" horiz-adv-x="1562" 
d="M879 1128h-187q-9 0 -12.5 6t0.5 15l158 266q12 21 36 21h236q9 0 12.5 -7t-2.5 -14l-202 -266q-16 -21 -39 -21zM1184 0h-205q-18 0 -25 20l-170 576h-4l-174 -576q-7 -20 -24 -20h-203q-18 0 -25 20l-317 951q-3 9 1 14.5t13 5.5h252q23 0 29 -20l164 -590h4l170 590
q6 20 28 20h172q21 0 27 -20l174 -590h4l156 590q6 20 26 20h252q11 0 15.5 -5.5t1.5 -14.5l-318 -951q-7 -20 -24 -20z" />
    <glyph glyph-name="Wdieresis" unicode="&#x1e84;" horiz-adv-x="1771" 
d="M1186 1556h-185q-20 0 -20 21v201q0 20 20 20h185q20 0 20 -20v-201q0 -21 -20 -21zM770 1556h-184q-9 0 -15 6t-6 15v201q0 20 21 20h184q21 0 21 -20v-201q0 -9 -6 -15t-15 -6zM1362 0h-205q-20 0 -27 20l-241 867h-4l-244 -867q-7 -20 -27 -20h-204q-18 0 -25 20
l-360 1352q-3 21 16 21h264q21 0 25 -21l200 -874h5l237 874q7 21 27 21h178q17 0 24 -21l246 -874h4l193 874q3 21 24 21h263q19 0 16 -21l-358 -1352q-3 -20 -27 -20z" />
    <glyph glyph-name="wdieresis" unicode="&#x1e85;" horiz-adv-x="1562" 
d="M1079 1149h-190q-21 0 -21 20v203q0 9 6 15t15 6h190q9 0 15 -6t6 -15v-203q0 -20 -21 -20zM668 1149h-189q-20 0 -20 20v203q0 21 20 21h189q20 0 20 -21v-203q0 -20 -20 -20zM1184 0h-205q-18 0 -25 20l-170 576h-4l-174 -576q-7 -20 -24 -20h-203q-18 0 -25 20
l-317 951q-3 9 1 14.5t13 5.5h252q23 0 29 -20l164 -590h4l170 590q6 20 28 20h172q21 0 27 -20l174 -590h4l156 590q6 20 26 20h252q11 0 15.5 -5.5t1.5 -14.5l-318 -951q-7 -20 -24 -20z" />
    <glyph glyph-name="Ygrave" unicode="&#x1ef2;" horiz-adv-x="1163" 
d="M711 0h-260q-21 0 -21 20v535l-412 817q-3 8 1 14.5t14 6.5h266q22 0 31 -21l252 -508h6l252 508q9 21 30 21h258q10 0 15 -6.5t0 -14.5l-412 -817v-535q0 -20 -20 -20zM696 1544h-190q-20 0 -39 19l-252 237q-7 8 -3 14.5t13 6.5h246q21 0 39 -21l195 -235q6 -7 3 -14
t-12 -7z" />
    <glyph glyph-name="ygrave" unicode="&#x1ef3;" horiz-adv-x="1038" 
d="M260 -369h-70q-20 0 -20 21v201q0 20 20 20h43q54 0 85.5 23.5t50.5 78.5l26 74l-368 922q-3 9 2 14.5t14 5.5h262q18 0 25 -20l198 -574h4l185 574q7 20 24 20h254q11 0 15.5 -5.5t1.5 -14.5l-402 -1055q-62 -163 -138.5 -224t-211.5 -61zM643 1128h-188q-23 0 -39 21
l-203 266q-6 7 -2.5 14t12.5 7h238q25 0 37 -21l155 -266q5 -9 2 -15t-12 -6z" />
    <glyph glyph-name="uni2010" unicode="&#x2010;" horiz-adv-x="802" 
d="M106 418q-20 0 -20 20v209q0 21 20 21h590q9 0 15 -6t6 -15v-209q0 -20 -21 -20h-590z" />
    <glyph glyph-name="endash" unicode="&#x2013;" horiz-adv-x="1095" 
d="M1034 424h-973q-20 0 -20 20v199q0 21 20 21h973q9 0 15 -6t6 -15v-199q0 -20 -21 -20z" />
    <glyph glyph-name="emdash" unicode="&#x2014;" horiz-adv-x="1830" 
d="M1769 424h-1708q-20 0 -20 20v199q0 21 20 21h1708q9 0 15 -6t6 -15v-199q0 -20 -21 -20z" />
    <glyph glyph-name="quoteleft" unicode="&#x2018;" horiz-adv-x="473" 
d="M338 967h-203q-20 0 -20 20v215q0 28 18 43l170 137q18 15 33 15q22 0 22 -23v-387q0 -20 -20 -20z" />
    <glyph glyph-name="quoteright" unicode="&#x2019;" horiz-adv-x="473" 
d="M137 963q-22 0 -22 22v387q0 21 20 21h203q20 0 20 -21v-215q0 -28 -18 -43l-170 -137q-17 -14 -33 -14z" />
    <glyph glyph-name="quotesinglbase" unicode="&#x201a;" horiz-adv-x="473" 
d="M137 -184q-22 0 -22 22v387q0 21 20 21h203q20 0 20 -21v-213q0 -30 -18 -45l-170 -135q-16 -16 -33 -16z" />
    <glyph glyph-name="quotedblleft" unicode="&#x201c;" horiz-adv-x="854" 
d="M719 967h-203q-20 0 -20 20v215q0 28 18 43l170 137q18 15 33 15q22 0 22 -23v-387q0 -20 -20 -20zM338 967h-203q-20 0 -20 20v215q0 28 18 43l170 137q18 15 33 15q22 0 22 -23v-387q0 -20 -20 -20z" />
    <glyph glyph-name="quotedblright" unicode="&#x201d;" horiz-adv-x="854" 
d="M518 963q-22 0 -22 22v387q0 21 20 21h203q20 0 20 -21v-215q0 -28 -18 -43l-170 -137q-17 -14 -33 -14zM137 963q-22 0 -22 22v387q0 21 20 21h203q20 0 20 -21v-215q0 -28 -18 -43l-170 -137q-17 -14 -33 -14z" />
    <glyph glyph-name="quotedblbase" unicode="&#x201e;" horiz-adv-x="854" 
d="M518 -184q-22 0 -22 22v387q0 21 20 21h203q20 0 20 -21v-213q0 -30 -18 -45l-170 -135q-16 -16 -33 -16zM137 -184q-22 0 -22 22v387q0 21 20 21h203q20 0 20 -21v-213q0 -30 -18 -45l-170 -135q-16 -16 -33 -16z" />
    <glyph glyph-name="dagger" unicode="&#x2020;" horiz-adv-x="1122" 
d="M680 -369h-238q-20 0 -20 21v1030q0 12 -12 12h-295q-9 0 -15 6t-6 15v209q0 20 21 20h295q12 0 12 12v416q0 21 20 21h238q20 0 20 -21v-416q0 -12 13 -12h295q20 0 20 -20v-209q0 -21 -20 -21h-295q-13 0 -13 -12v-1030q0 -21 -20 -21z" />
    <glyph glyph-name="daggerdbl" unicode="&#x2021;" horiz-adv-x="1122" 
d="M680 -369h-238q-20 0 -20 21v348q0 12 -12 12h-295q-9 0 -15 6t-6 15v209q0 20 21 20h295q12 0 12 12v476q0 12 -12 12h-295q-21 0 -21 20v209q0 9 6 15t15 6h295q12 0 12 12v348q0 21 20 21h238q20 0 20 -21v-348q0 -12 13 -12h295q20 0 20 -21v-209q0 -20 -20 -20h-295
q-13 0 -13 -12v-476q0 -12 13 -12h295q20 0 20 -20v-209q0 -21 -20 -21h-295q-13 0 -13 -12v-348q0 -21 -20 -21z" />
    <glyph glyph-name="bullet" unicode="&#x2022;" horiz-adv-x="972" 
d="M485 324q-133 0 -220 87t-87 220q0 135 86.5 222t220.5 87q135 0 222.5 -87t87.5 -222q0 -134 -87.5 -220.5t-222.5 -86.5z" />
    <glyph glyph-name="ellipsis" unicode="&#x2026;" horiz-adv-x="1591" 
d="M1448 0h-244q-20 0 -20 20v246q0 21 20 21h244q20 0 20 -21v-246q0 -20 -20 -20zM918 0h-244q-21 0 -21 20v246q0 9 6 15t15 6h244q20 0 20 -21v-246q0 -20 -20 -20zM387 0h-244q-20 0 -20 20v246q0 21 20 21h244q9 0 15 -6t6 -15v-246q0 -20 -21 -20z" />
    <glyph glyph-name="perthousand" unicode="&#x2030;" horiz-adv-x="2326" 
d="M506 -23h-172q-9 0 -12 6.5t2 14.5l809 1397q11 20 32 20h172q9 0 12.5 -6.5t-1.5 -13.5l-809 -1397q-12 -21 -33 -21zM406 676q-97 0 -167.5 45.5t-97.5 122.5q-18 62 -18 198q0 138 18 199q27 77 97.5 122.5t167.5 45.5q99 0 169 -45.5t95 -122.5q11 -32 14.5 -68.5
t3.5 -130.5q0 -93 -3.5 -129.5t-14.5 -68.5q-25 -77 -95 -122.5t-169 -45.5zM406 838q55 0 73 47q6 24 6 157q0 134 -6 158q-18 47 -73 47q-57 0 -72 -47q-8 -21 -8 -158q0 -136 8 -157q15 -47 72 -47zM1921 -18q-99 0 -169 45.5t-95 124.5q-11 33 -15 69t-4 127q0 92 4 129
t15 70q25 77 95 122.5t169 45.5q97 0 167 -45.5t95 -122.5q12 -35 16.5 -72t4.5 -127q0 -88 -4.5 -124.5t-16.5 -71.5q-25 -79 -94.5 -124.5t-167.5 -45.5zM1262 -18q-98 0 -168.5 45.5t-96.5 124.5q-18 62 -18 196q0 138 18 199q27 77 97.5 122.5t167.5 45.5
q98 0 167.5 -45t96.5 -123q11 -32 14.5 -68.5t3.5 -130.5q0 -92 -3.5 -128t-14.5 -68q-27 -79 -96 -124.5t-168 -45.5zM1921 143q57 0 72 50q8 19 8 155q0 137 -8 158q-15 47 -72 47q-59 0 -74 -47q-6 -24 -6 -158t6 -155q15 -50 74 -50zM1262 143q56 0 71 50q8 19 8 155
q0 137 -8 158q-15 47 -71 47q-57 0 -72 -47q-8 -21 -8 -158q0 -136 8 -155q15 -50 72 -50z" />
    <glyph glyph-name="guilsinglleft" unicode="&#x2039;" horiz-adv-x="653" 
d="M508 78l-451 448q-6 6 -6 14.5t6 14.5l451 449q6 6 13 3t7 -12v-239q0 -21 -20 -41l-168 -166q-8 -9 0 -17l168 -165q20 -20 20 -41v-240q0 -9 -7 -11.5t-13 3.5z" />
    <glyph glyph-name="guilsinglright" unicode="&#x203a;" horiz-adv-x="653" 
d="M596 526l-451 -448q-6 -6 -13 -3.5t-7 11.5v240q0 21 20 41l168 165q9 8 0 17l-168 166q-20 20 -20 41v239q0 9 7 12t13 -3l451 -449q14 -15 0 -29z" />
    <glyph glyph-name="interrobang" unicode="&#x203d;" horiz-adv-x="968" 
d="M348 408q-16 0 -20 14v6l-49 526q0 21 20 21h221q9 0 15 -6t6 -15l-4 -166h2l45 74q47 74 47 160q0 83 -44 120.5t-114 37.5q-57 0 -93 -20t-56 -66q-8 -22 -27 -19l-213 41q-20 3 -16 25q30 138 136.5 206t276.5 68q190 0 301 -101t111 -261q0 -143 -111 -291l-135 -182
q-24 -32 -32.5 -56.5t-8.5 -66.5v-29q0 -20 -20 -20h-238zM324 20v234q0 20 20 20h246q20 0 20 -20v-234q0 -20 -20 -20h-246q-20 0 -20 20z" />
    <glyph glyph-name="fraction" unicode="&#x2044;" horiz-adv-x="339" 
d="M-160 -23h-172q-9 0 -12 6.5t2 14.5l809 1397q11 20 33 20h172q9 0 12 -6.5t-2 -13.5l-809 -1397q-12 -21 -33 -21z" />
    <glyph glyph-name="zero.superior" unicode="&#x2070;" horiz-adv-x="733" 
d="M367 864q-111 0 -184 48t-103 137q-19 70 -19 247q0 178 19 248q30 89 103 137t184 48t183.5 -48t100.5 -137q21 -65 21 -248q0 -182 -21 -247q-28 -89 -100.5 -137t-183.5 -48zM367 1042q59 0 75 52q9 27 9 202q0 176 -9 203q-15 51 -75 51q-61 0 -76 -51
q-8 -24 -8 -203q0 -178 8 -202q16 -52 76 -52z" />
    <glyph glyph-name="four.superior" unicode="&#x2074;" horiz-adv-x="733" 
d="M594 881h-162q-20 0 -20 20v82q0 12 -13 12h-336q-20 0 -20 21v141q0 15 10 35l236 500q10 20 28 20h187q9 0 12.5 -5.5t-0.5 -14.5l-240 -514v-2h123q13 0 13 12v141q0 21 20 21h162q20 0 20 -21v-141q0 -12 13 -12h30q9 0 15 -6t6 -15v-139q0 -9 -6 -15t-15 -6h-30
q-13 0 -13 -12v-82q0 -20 -20 -20z" />
    <glyph glyph-name="five.superior" unicode="&#x2075;" horiz-adv-x="733" 
d="M360 864q-110 0 -185.5 47.5t-94.5 130.5q-4 22 12 25l160 41q18 6 24 -10q26 -54 84 -54q62 0 78 50q6 24 6 55q0 32 -6 53q-15 49 -73 49q-40 0 -62 -22q-12 -12 -27 -12h-165q-21 0 -21 20v455q0 20 21 20h503q21 0 21 -20v-140q0 -20 -21 -20h-315q-12 0 -12 -12
v-121h2q52 31 121 31q185 0 231 -146q16 -49 16 -131q0 -74 -14 -117q-28 -83 -101 -127.5t-182 -44.5z" />
    <glyph glyph-name="six.superior" unicode="&#x2076;" horiz-adv-x="733" 
d="M367 864q-136 0 -223 75.5t-87 197.5q0 53 17.5 104t56.5 121l184 330q11 20 33 20h197q9 0 12 -6t-2 -14l-164 -291l2 -2q3 0 13 1t14 1q112 0 183 -72t71 -192q0 -122 -85.5 -197.5t-221.5 -75.5zM367 1040q43 0 69.5 27t26.5 68q0 40 -27 66t-69 26q-44 0 -70.5 -26
t-26.5 -66q0 -42 26.5 -68.5t70.5 -26.5z" />
    <glyph glyph-name="seven.superior" unicode="&#x2077;" horiz-adv-x="733" 
d="M369 881h-181q-10 0 -13.5 6.5t1.5 15.5l264 625v4h-147q-12 0 -12 -12v-82q0 -9 -6 -15t-15 -6h-162q-20 0 -20 21v254q0 20 20 20h543q21 0 21 -20v-156q0 -5 -5 -25l-260 -612q-9 -18 -28 -18z" />
    <glyph glyph-name="eight.superior" unicode="&#x2078;" horiz-adv-x="733" 
d="M367 864q-135 0 -223.5 72.5t-88.5 189.5q0 113 95 191v2q-76 65 -76 156q0 105 77.5 179.5t215.5 74.5q136 0 213 -74.5t77 -179.5q0 -90 -73 -156v-2q94 -77 94 -191q0 -117 -88.5 -189.5t-222.5 -72.5zM367 1393q36 0 59 23t23 57q0 33 -23 56t-59 23t-59 -23t-23 -56
q0 -34 23 -57t59 -23zM367 1040q41 0 69.5 28t28.5 67q0 41 -28.5 68.5t-69.5 27.5q-42 0 -70.5 -27.5t-28.5 -68.5q0 -39 29 -67t70 -28z" />
    <glyph glyph-name="nine.superior" unicode="&#x2079;" horiz-adv-x="733" 
d="M383 881h-195q-9 0 -12 6.5t2 13.5l162 291l-2 2q-1 0 -11 -1t-16 -1q-112 0 -183 72t-71 192q0 122 87 197.5t223 75.5t221.5 -75.5t85.5 -197.5q0 -96 -72 -225l-184 -330q-11 -20 -35 -20zM367 1366q42 0 69 26t27 66q0 41 -26.5 67.5t-69.5 26.5q-44 0 -70.5 -26
t-26.5 -68q0 -40 26.5 -66t70.5 -26z" />
    <glyph glyph-name="zero.inferior" unicode="&#x2080;" horiz-adv-x="733" 
d="M367 -336q-111 0 -184 47.5t-103 136.5q-19 70 -19 248t19 248q30 89 103 136.5t184 47.5t183.5 -47.5t100.5 -136.5q21 -65 21 -248t-21 -248q-28 -89 -100.5 -136.5t-183.5 -47.5zM367 -158q59 0 75 52q9 27 9 202q0 176 -9 203q-15 51 -75 51q-61 0 -76 -51
q-8 -24 -8 -203q0 -178 8 -202q16 -52 76 -52z" />
    <glyph glyph-name="one.inferior" unicode="&#x2081;" horiz-adv-x="733" 
d="M506 -319h-176q-21 0 -21 20v578h-4l-131 -82q-7 -4 -13.5 0.5t-6.5 13.5v172q0 21 18 31l127 84q20 14 35 14h172q20 0 20 -20v-791q0 -20 -20 -20z" />
    <glyph glyph-name="two.inferior" unicode="&#x2082;" horiz-adv-x="733" 
d="M633 -319h-535q-20 0 -20 20v135q0 22 16 35l295 301q51 55 51 102q0 35 -19.5 55.5t-55.5 20.5q-72 0 -84 -78q-3 -21 -23 -18l-162 27q-19 3 -16 22q7 87 84.5 156t208.5 69q124 0 202 -69.5t78 -182.5q0 -63 -24.5 -112t-75.5 -98l-197 -201v-2h277q20 0 20 -21v-141
q0 -20 -20 -20z" />
    <glyph glyph-name="three.inferior" unicode="&#x2083;" horiz-adv-x="733" 
d="M371 -336q-119 0 -200 51t-101 148q-4 21 14 24l158 31q18 3 26 -14q28 -62 94 -62q41 0 66 24t25 62q0 42 -27 65t-76 23h-35q-20 0 -20 21v135q0 21 20 21h29q42 0 66 19.5t24 57.5t-21 59t-59 21q-59 0 -82 -51q-7 -17 -26 -14l-154 28q-17 3 -14 23q20 86 93.5 139
t190.5 53q134 0 209.5 -65t75.5 -172q0 -102 -86 -168v-2q42 -20 73.5 -70.5t31.5 -122.5q0 -120 -80.5 -192t-214.5 -72z" />
    <glyph glyph-name="four.inferior" unicode="&#x2084;" horiz-adv-x="733" 
d="M594 -319h-162q-20 0 -20 20v82q0 12 -13 12h-336q-20 0 -20 21v141q0 15 10 35l236 500q10 20 28 20h187q9 0 12.5 -5.5t-0.5 -14.5l-240 -515v-2h123q13 0 13 13v141q0 21 20 21h162q20 0 20 -21v-141q0 -13 13 -13h30q21 0 21 -20v-139q0 -9 -6 -15t-15 -6h-30
q-13 0 -13 -12v-82q0 -20 -20 -20z" />
    <glyph glyph-name="five.inferior" unicode="&#x2085;" horiz-adv-x="733" 
d="M360 -336q-110 0 -185.5 47.5t-94.5 130.5q-4 22 12 25l160 41q18 6 24 -10q26 -54 84 -54q62 0 78 50q6 24 6 55q0 32 -6 53q-15 49 -73 49q-40 0 -62 -22q-13 -13 -27 -13h-165q-9 0 -15 6t-6 15v455q0 20 21 20h503q21 0 21 -20v-140q0 -20 -21 -20h-315
q-12 0 -12 -13v-120h2q51 30 121 30q185 0 231 -145q16 -49 16 -131q0 -74 -14 -117q-28 -83 -101 -127.5t-182 -44.5z" />
    <glyph glyph-name="six.inferior" unicode="&#x2086;" horiz-adv-x="733" 
d="M367 -336q-136 0 -223 75.5t-87 197.5q0 53 17.5 104t56.5 121l184 330q11 20 33 20h197q9 0 12 -6t-2 -14l-164 -291l2 -2q3 0 13 1t14 1q112 0 183 -72t71 -192q0 -122 -85.5 -197.5t-221.5 -75.5zM367 -160q43 0 69.5 26.5t26.5 67.5q0 40 -27 66.5t-69 26.5
q-44 0 -70.5 -26.5t-26.5 -66.5q0 -42 26.5 -68t70.5 -26z" />
    <glyph glyph-name="seven.inferior" unicode="&#x2087;" horiz-adv-x="733" 
d="M369 -319h-181q-10 0 -13.5 6.5t1.5 15.5l264 625v4h-147q-12 0 -12 -13v-81q0 -9 -6 -15t-15 -6h-162q-20 0 -20 21v254q0 20 20 20h543q21 0 21 -20v-156q0 -5 -5 -25l-260 -612q-9 -18 -28 -18z" />
    <glyph glyph-name="eight.inferior" unicode="&#x2088;" horiz-adv-x="733" 
d="M367 -336q-135 0 -223.5 72.5t-88.5 189.5q0 113 95 191v2q-76 65 -76 155q0 105 77.5 179.5t215.5 74.5q136 0 213 -74.5t77 -179.5q0 -89 -73 -155v-2q94 -77 94 -191q0 -117 -88.5 -189.5t-222.5 -72.5zM367 193q36 0 59 22.5t23 56.5q0 33 -23 56.5t-59 23.5
t-59 -23.5t-23 -56.5q0 -34 23 -56.5t59 -22.5zM367 -160q41 0 69.5 27.5t28.5 66.5q0 41 -28.5 69t-69.5 28t-70 -28t-29 -69q0 -38 29 -66t70 -28z" />
    <glyph glyph-name="nine.inferior" unicode="&#x2089;" horiz-adv-x="733" 
d="M383 -319h-195q-9 0 -12 6.5t2 13.5l162 291l-2 2q-1 0 -11 -1t-16 -1q-112 0 -183 72t-71 192q0 122 87 197t223 75t221.5 -75t85.5 -197q0 -96 -72 -225l-184 -330q-11 -20 -35 -20zM367 166q42 0 69 26t27 66q0 41 -26.5 67.5t-69.5 26.5q-44 0 -70.5 -26t-26.5 -68
q0 -40 26.5 -66t70.5 -26z" />
    <glyph glyph-name="Euro" unicode="&#x20ac;" 
d="M647 -23q-164 0 -276.5 75.5t-157.5 219.5q-29 89 -29 201q0 12 -12 12h-74q-20 0 -20 21v127q0 20 20 20h74q12 0 12 13v69q0 13 -12 13h-74q-20 0 -20 20v127q0 20 20 20h74q12 0 12 13q0 103 29 192q45 144 157.5 219.5t276.5 75.5q151 0 254.5 -67t159.5 -181
q7 -17 -10 -28l-195 -90q-21 -7 -31 10q-32 58 -72.5 86.5t-101.5 28.5q-120 0 -162 -121q-14 -47 -14 -125q0 -13 12 -13h340q21 0 21 -20l-21 -127q-3 -20 -20 -20h-320q-12 0 -12 -13v-69q0 -13 12 -13h299q21 0 21 -20l-21 -127q-3 -21 -20 -21h-279q-12 0 -12 -12
q0 -86 14 -133q42 -121 162 -121q61 0 101.5 28.5t72.5 86.5q10 17 31 10l195 -90q18 -11 10 -29q-56 -114 -159.5 -181t-254.5 -67z" />
    <glyph glyph-name="afii61248" unicode="&#x2105;" horiz-adv-x="1667" 
d="M324 -2l809 1397q11 20 32 20h172q9 0 11.5 -6.5t-2.5 -13.5l-809 -1397q-12 -21 -33 -21h-170q-9 0 -12 6.5t2 14.5zM1266 -23q-106 0 -182 52t-105 147q-21 86 -21 172q0 81 21 170q29 94 105 145.5t182 51.5q105 0 181 -51.5t105 -145.5q21 -89 21 -170
q0 -86 -21 -172q-29 -96 -104.5 -147.5t-181.5 -51.5zM1264 150q72 0 90 75q10 39 10 121q0 80 -10 121q-19 76 -90 76t-90 -76q-11 -45 -11 -121q0 -78 11 -121q18 -75 90 -75zM424 676q-109 0 -186 49t-107 141q-20 61 -20 183q0 104 20 163q30 94 107 143.5t186 49.5
q177 0 252 -135q7 -10 -2 -19l-131 -77q-12 -9 -19 2q-33 59 -92 59q-73 0 -94 -72q-12 -35 -12 -116q0 -102 12 -134q20 -71 94 -71q65 0 94 63q7 11 19 2l131 -76q8 -8 2 -18q-37 -64 -103 -100.5t-151 -36.5z" />
    <glyph glyph-name="afii61289" unicode="&#x2113;" horiz-adv-x="944" 
d="M182 285q-17 -10 -28 4l-93 131q-10 17 5 29l178 133v391q0 209 83 325.5t248 116.5q133 0 213 -83t80 -228q0 -299 -360 -612v-177q0 -106 84 -106q54 0 113 49q19 11 28 -4l92 -133q10 -13 -6 -29q-55 -52 -131 -83.5t-153 -31.5q-291 0 -291 334v19zM508 1018v-240
q143 156 143 328q0 51 -17 79.5t-48 28.5q-40 0 -59 -42t-19 -154z" />
    <glyph glyph-name="uni2116" unicode="&#x2116;" horiz-adv-x="1953" 
d="M154 0q-9 0 -15 6t-6 14v1354q0 19 21 19h221q17 0 26 -17l459 -807h6v805q0 8 6 13.5t15 5.5h248q18 0 18 -19v-1354q0 -20 -18 -20h-222q-18 0 -28 16l-459 809h-6v-805q0 -8 -6 -14t-15 -6h-245zM1317 264q-8 0 -14.5 6t-6.5 13v145q0 7 6.5 12.5t14.5 5.5h493
q21 0 21 -18v-145q0 -9 -6.5 -14t-14.5 -5h-493zM1567 549q-153 0 -231.5 79t-78.5 234t78.5 233.5t231.5 78.5q150 0 227.5 -78.5t77.5 -233.5t-77.5 -234t-227.5 -79zM1567 711q55 0 78.5 34.5t23.5 116.5q0 81 -24 116.5t-78 35.5q-57 0 -81 -35t-24 -117q0 -83 24 -117
t81 -34z" />
    <glyph glyph-name="published" unicode="&#x2117;" horiz-adv-x="1660" 
d="M829 -23q-201 0 -365.5 93.5t-258.5 258.5t-94 367q0 201 94 366t258.5 259t365.5 94q151 0 285 -55.5t229.5 -150.5t151 -228.5t55.5 -284.5t-55.5 -284.5t-151 -229t-229.5 -150.5t-285 -55zM829 141q236 0 392.5 158t156.5 397t-156.5 397t-392.5 158
q-235 0 -390.5 -158t-155.5 -397t155.5 -397t390.5 -158zM748 283h-189q-7 0 -12.5 5.5t-5.5 12.5v762q0 18 18 18h309q152 0 240 -63.5t88 -202.5q0 -293 -328 -293h-92q-10 0 -10 -10v-211q0 -18 -18 -18zM829 698q82 0 123 22.5t41 86.5q0 56 -42.5 78t-121.5 22h-55
q-8 0 -8 -6v-196q0 -2 2.5 -4.5t5.5 -2.5h55z" />
    <glyph glyph-name="trademark" unicode="&#x2122;" horiz-adv-x="1732" 
d="M1606 586h-142q-20 0 -20 20v398h-4l-127 -283q-11 -21 -27 -21h-96q-16 0 -27 21l-127 283h-6v-398q0 -20 -20 -20h-142q-20 0 -20 20v766q0 21 20 21h140q18 0 28 -21l201 -442h6l197 442q10 21 30 21h136q20 0 20 -21v-766q0 -20 -20 -20zM483 586h-157q-21 0 -21 20
v602q0 13 -12 13h-197q-20 0 -20 20v131q0 21 20 21h615q20 0 20 -21v-131q0 -20 -20 -20h-195q-12 0 -12 -13v-602q0 -20 -21 -20z" />
    <glyph glyph-name="Omega" unicode="&#x2126;" horiz-adv-x="1302" 
d="M1184 0h-436q-21 0 -21 20v207q0 23 18 29q84 31 119 130.5t35 309.5q0 212 -25 299q-23 74 -81 114t-142 40t-141 -40t-82 -114q-25 -77 -25 -299q0 -209 35 -309t117 -131q20 -6 20 -29v-207q0 -20 -20 -20h-436q-21 0 -21 20v213q0 9 6 15t15 6h117v4
q-71 55 -104.5 155.5t-33.5 282.5q0 156 8.5 232.5t30.5 144.5q56 168 190.5 255t323.5 87t323.5 -87t190.5 -255q22 -68 30.5 -144.5t8.5 -232.5q0 -183 -33.5 -283t-105.5 -155v-4h119q20 0 20 -21v-213q0 -20 -20 -20z" />
    <glyph glyph-name="estimated" unicode="&#x212e;" horiz-adv-x="1200" 
d="M598 -23q-143 0 -254 70.5t-170 188.5t-59 262t59 261t170 186t254 69q217 0 351 -143.5t136 -372.5h-757v-342q107 -107 270 -107q118 0 205 53.5t155 171.5l68 -43q-90 -136 -186 -195t-242 -59zM872 565v273q-120 114 -274 114q-162 0 -270 -114v-273h544z" />
    <glyph glyph-name="onethird" unicode="&#x2153;" horiz-adv-x="1878" 
d="M530 561h-176q-20 0 -20 21v577h-4l-131 -82q-7 -4 -14 1t-7 14v172q0 19 19 30l127 84q21 15 34 15h172q9 0 15 -6t6 -15v-790q0 -9 -6 -15t-15 -6zM1405 -16q-119 0 -200 50.5t-101 147.5q-4 22 14 25l158 31q18 3 27 -15q28 -61 94 -61q41 0 65.5 23.5t24.5 62.5
q0 42 -27 65t-76 23h-34q-21 0 -21 20v136q0 20 21 20h28q42 0 66 20t24 58t-20.5 59t-58.5 21q-59 0 -82 -52q-7 -17 -27 -14l-154 29q-17 3 -14 22q20 86 94 139.5t191 53.5q134 0 209 -65.5t75 -172.5q0 -102 -86 -168v-2q42 -20 73.5 -70t31.5 -122q0 -120 -80.5 -192
t-214.5 -72zM539 -23h-172q-9 0 -12.5 6.5t1.5 14.5l809 1397q11 20 33 20h172q9 0 12 -6.5t-2 -13.5l-809 -1397q-12 -21 -32 -21z" />
    </font>
</defs>
</svg>
